<?xml version="1.0" encoding="UTF-8"?>
<svg id="Layer_1" data-name="Layer 1" xmlns="http://www.w3.org/2000/svg" viewBox="0 0 856.55 100">
  <path d="M75.54,73.96c0,7.37-.13,13.54-.39,18.54-.79,.13-1.77,.2-2.96,.2-.13,0-1.15-.1-3.06-.3-1.91-.2-4.37-.3-7.4-.3h-9.27l-33.73-.39H2.56c-1.71,0-2.56-.43-2.56-1.29,0-.74,2.56-1.29,7.69-1.66,1.45-.13,2.33-.46,2.66-.99,.33-.53,.49-1.98,.49-4.35V17.19c0-7.38-.59-11.27-1.78-11.66-.53-.26-1.68-.4-3.45-.4s-2.93-.07-3.45-.2c-1.45,0-2.17-.53-2.17-1.58,0-.92,.86-1.38,2.58-1.38h31.92c2.51,0,3.77,.55,3.77,1.66,0,.74-2.17,1.17-6.51,1.29-2.1,.13-3.35,.59-3.75,1.38-.39,.79-.59,3.63-.59,8.5V88.16c5.23,.13,9.03,.2,11.39,.2,14.14,0,22.97-1.38,26.51-4.14,2.88-2.23,4.71-6.97,5.5-14.2,.26-3.15,.99-4.73,2.17-4.73,1.71,0,2.56,2.89,2.56,8.68Z"/>
  <path d="M170.99,47.43c0,12.73-4.14,23.52-12.43,32.37-8.28,8.86-18.41,13.28-30.37,13.28-12.76,0-23.5-4.49-32.25-13.48-8.75-8.99-13.12-19.98-13.12-32.97s4.17-24.57,12.52-33.16C103.71,4.89,114.39,.59,127.41,.59s22.71,4.5,31.06,13.48c8.35,8.99,12.52,20.11,12.52,33.36Zm-18.54,.59c0-15.22-3.09-27.22-9.27-36.01-3.94-5.64-9.4-8.46-16.37-8.46-9.6,0-16.57,5.25-20.91,15.74-3.03,7.35-4.54,16.66-4.54,27.94,0,13.51,2.37,24.07,7.1,31.68,4.73,7.61,11.31,11.41,19.72,11.41,16.17,0,24.26-14.1,24.26-42.31Z"/>
  <path d="M270.59,47.43c0,12.73-4.14,23.52-12.42,32.37-8.28,8.86-18.41,13.28-30.37,13.28-12.75,0-23.5-4.49-32.25-13.48-8.75-8.99-13.12-19.98-13.12-32.97s4.17-24.57,12.52-33.16C203.3,4.89,213.99,.59,227.01,.59s22.71,4.5,31.06,13.48c8.35,8.99,12.52,20.11,12.52,33.36Zm-18.54,.59c0-15.22-3.09-27.22-9.27-36.01-3.94-5.64-9.4-8.46-16.37-8.46-9.6,0-16.57,5.25-20.91,15.74-3.03,7.35-4.54,16.66-4.54,27.94,0,13.51,2.37,24.07,7.1,31.68,4.73,7.61,11.31,11.41,19.72,11.41,16.17,0,24.26-14.1,24.26-42.31Z"/>
  <path d="M375.91,90.13c0,.79-.23,1.25-.69,1.38-.46,.13-2.01,.2-4.64,.2h-32.94c-2.37,0-3.55-.37-3.55-1.11,0-.86,2.17-1.48,6.51-1.85,2.63-.26,3.94-.79,3.94-1.58,0-.53-1.51-2.44-4.54-5.75-2.76-2.91-13.35-14.47-31.75-34.68v35.5c0,3.16,.4,5,1.18,5.52,.79,.53,3.35,.86,7.69,.99,1.45,0,2.17,.53,2.17,1.58,0,.92-.99,1.38-2.96,1.38h-32.74c-1.84,0-2.76-.52-2.76-1.58,0-1.18,1.9-1.71,5.72-1.58,2.63,0,4.14-.4,4.54-1.18s.59-3.61,.59-8.48V12.82c0-3.68-.07-5.72-.2-6.11-.4-1.05-2.28-1.58-5.63-1.58s-5.02-.59-5.02-1.78c0-.92,.92-1.38,2.78-1.38h1.98c1.19,.13,2.18,.2,2.97,.2l12.88-.2c.66,0,3.44,.07,8.33,.2l6.74-.2c1.85,0,2.78,.53,2.78,1.58,0,.92-2.17,1.45-6.51,1.58-2.1,.13-3.39,.36-3.85,.69-.46,.33-.69,1.42-.69,3.26V41.62c24.59-22.75,36.88-34.58,36.88-35.5,0-.66-2.7-.99-8.09-.99-1.58,0-2.37-.52-2.37-1.58,0-.79,.46-1.25,1.38-1.38,.92-.13,4.21-.2,9.86-.2,10.12,0,16.04,.07,17.75,.19,1.71,.12,2.56,.62,2.56,1.49,0,1.25-1.18,1.81-3.55,1.68h-5.52c-1.84-.13-4.08,1.06-6.71,3.56-1.71,1.45-4.34,3.82-7.89,7.12-5.26,5.01-13.28,12.45-24.06,22.34,1.71,1.85,7.95,8.24,18.74,19.18l23.27,23.52c3.68,3.69,6.11,5.9,7.3,6.62,1.18,.73,3.09,1.09,5.72,1.09,1.58,0,2.37,.46,2.37,1.38Z"/>
  <path d="M466.04,47.43c0,12.73-4.14,23.52-12.42,32.37-8.28,8.86-18.41,13.28-30.37,13.28-12.75,0-23.5-4.49-32.25-13.48-8.75-8.99-13.12-19.98-13.12-32.97s4.17-24.57,12.52-33.16c8.35-8.59,19.03-12.89,32.05-12.89s22.71,4.5,31.06,13.48c8.35,8.99,12.52,20.11,12.52,33.36Zm-18.54,.59c0-15.22-3.09-27.22-9.27-36.01-3.94-5.64-9.4-8.46-16.37-8.46-9.6,0-16.57,5.25-20.91,15.74-3.03,7.35-4.54,16.66-4.54,27.94,0,13.51,2.37,24.07,7.1,31.68,4.73,7.61,11.31,11.41,19.72,11.41,16.17,0,24.26-14.1,24.26-42.31Z"/>
  <path d="M564.66,3c0,1.22-1.12,1.7-3.35,1.43-3.68,.14-6.18,.58-7.49,1.33-1.32,.75-2.43,2.34-3.35,4.79l-1.18,3.26c-7.37,18.67-16.7,43.59-28.01,74.75-1.05,3.28-2.1,4.93-3.15,4.93s-2.1-1.51-3.15-4.54c-5.24-14.47-12.9-34.73-22.99-60.78-1.34-3.41-3.27-8.53-5.81-15.35-1.45-4.07-2.8-6.47-4.04-7.2-1.25-.72-4.44-1.09-9.56-1.09-1.45,0-2.17-.39-2.17-1.18,0-1.18,.92-1.77,2.76-1.77h38.46c3.42,0,5.13,.53,5.13,1.58,0,.92-.99,1.51-2.96,1.77h-7.3c-4.08,.14-6.11,.67-6.11,1.6,0,.53,3.41,9.86,10.24,27.99,.26,.52,4.33,11.46,12.2,32.82,.93-2.48,3.72-9.67,8.38-21.56l8.14-21.74c3.86-9.71,5.8-15.36,5.8-16.94,0-1.31-1.12-2.03-3.35-2.17h-7.69c-1.05,0-1.58-.4-1.58-1.2,0-1.44,1.9-2.15,5.72-2.15h9.47c2.5,.39,3.94,.59,4.34,.59,.66,0,1.91-.2,3.75-.59h5.92c1.97,0,2.96,.48,2.96,1.43Z"/>
  <path d="M604.69,90.53c0,.79-.59,1.18-1.77,1.18h-33.13c-2.24,0-3.35-.34-3.35-1.03,0-.91,1.45-1.42,4.34-1.54,3.94-.26,6.02-.73,6.21-1.39,.2-.66,.3-3.51,.3-8.54V15.26c0-5.16-.13-8.18-.39-9.04-.27-.86-1.25-1.36-2.96-1.49h-5.92c-1.18,0-1.78-.46-1.78-1.38s.85-1.38,2.56-1.38c-.13,0,.26,0,1.18,0h31.36c2.1,0,3.16,.53,3.16,1.58,0,.79-2.24,1.25-6.71,1.38-1.84,0-2.96,.3-3.35,.89-.39,.59-.59,2.4-.59,5.42V85.6c0,1.31,.49,2.17,1.48,2.56,.99,.4,3.32,.72,7,.99,1.58,.13,2.37,.59,2.37,1.38Z"/>
  <path d="M690.48,25.9c0,1.8-.79,2.7-2.37,2.7-1.71,0-2.63-1.21-2.76-3.62-.4-5.21-1.51-9.47-3.35-12.78-2.5-4.58-8.22-6.87-17.16-6.87-1.32,0-3.35,.07-6.11,.2V84.81c0,2.5,1.9,3.81,5.72,3.94,3.81,.13,5.72,.66,5.72,1.58s-1.12,1.38-3.35,1.38h-32.15c-2.63,0-3.94-.46-3.94-1.38s2.17-1.45,6.51-1.58c1.58,0,2.63-.13,3.16-.39,1.05-.26,1.64-.96,1.77-2.08,.13-1.12,.2-4.45,.2-9.98V5.32c-10.26-.13-16.93,.91-20.02,3.13-3.09,2.22-5.16,7.43-6.21,15.65-.39,3-1.25,4.5-2.56,4.5-1.18,0-1.77-1.49-1.77-4.47,0-3.75,.59-11.14,1.77-22.15h45.95c4.07,0,12.36-.11,24.85-.33,1.05,0,2.43-.22,4.14-.66l.2,4.06,.59,6.95,.59,8.11,.4,3.48c.13,1.16,.2,1.93,.2,2.32Z"/>
  <path d="M759.91,66.39c0,7.33-3.16,13.62-9.47,18.85-6.31,5.24-13.94,7.85-22.88,7.85-6.71,0-13.61-2.04-20.71-6.13-.79-.25-1.32-.38-1.58-.38-.79,0-1.25,.62-1.38,1.86-.13,1.24-.33,2.32-.59,3.26-.27,.93-.92,1.39-1.97,1.39-1.32,0-1.97-.66-1.97-1.97,0-.26,.13-2.23,.39-5.92,.26-3.68,.39-6.83,.39-9.47v-10.06c0-2.5,.66-3.75,1.97-3.75s2.3,2.04,2.96,6.11c2.5,14.47,10.26,21.7,23.27,21.7,11.05,0,16.57-5.5,16.57-16.49,0-4.84-1.31-8.77-3.94-11.78-2.63-3.01-7.76-6.42-15.38-10.21-9.99-4.97-16.37-8.9-19.13-11.78-3.55-3.8-5.32-8.51-5.32-14.14,0-7.2,2.63-13.12,7.89-17.77,5.26-4.65,11.9-6.97,19.92-6.97,4.99,0,10.32,1.51,15.97,4.54,.66,.39,1.18,.59,1.58,.59,.92,0,1.51-.95,1.78-2.86,.26-1.9,1.05-2.86,2.37-2.86s1.97,.66,1.97,1.97c0,.27-.07,.79-.2,1.58-.26,2.1-.39,4.8-.39,8.09,0,1.97,.2,5.52,.59,10.65,.13,.53,.2,1.12,.2,1.77,0,1.58-.53,2.37-1.58,2.37-1.18,0-2.04-1.17-2.56-3.52-1.18-5.73-3.58-10.33-7.2-13.78-3.62-3.45-7.86-5.18-12.72-5.18-9.47,0-14.2,5.04-14.2,15.12,0,4.45,1.25,8.12,3.75,11,1.31,1.57,2.76,2.81,4.34,3.73,1.58,.92,6.18,3.21,13.81,6.87,8.55,4.19,14.59,8.22,18.14,12.08,3.55,3.86,5.32,8.41,5.32,13.65Z"/>
  <path d="M856.55,90.73c0,.79-1.32,1.18-3.94,1.18h-38.85c-2.37,0-3.55-.52-3.55-1.57s2.37-1.63,7.1-1.76c5.65-.13,8.48-.78,8.48-1.96,0-.26-.39-1.5-1.18-3.72-.27-1.04-1.78-5.42-4.54-13.12l-2.37-6.66h-28.2c-5.39,13.54-8.09,21.37-8.09,23.47,0,1.18,.79,1.84,2.37,1.97l2.56,.2h2.96l1.78,.59c1.58,0,2.37,.4,2.37,1.2,0,.91-1.38,1.37-4.14,1.37-.39,0-2.73-.1-7-.3-4.27-.2-8.05-.3-11.34-.3h-1.77l-1.77,.3-2.17,.3h-.39c-2.1,0-3.16-.39-3.16-1.19,0-.92,.86-1.45,2.56-1.58,2.37-.13,3.94-.26,4.73-.4,2.23-.39,3.68-.99,4.34-1.78,.79-.39,4.01-7.91,9.66-22.54,2.23-5.93,4.4-11.47,6.51-16.61,.79-1.84,1.31-3.23,1.58-4.15,.26-.92,.79-2.31,1.58-4.15,2.23-5.41,5.39-13.58,9.47-24.52l2.97-8.28,1.36-3.56c.79-1.97,1.58-2.96,2.37-2.96,.39,0,1.25,1.84,2.56,5.52,3.94,9.6,14.13,34.98,30.57,76.13,1.58,4.08,3.09,6.25,4.54,6.51,.39,.13,2.5,.33,6.31,.59,2.5,.13,3.75,.72,3.75,1.77Zm-40.04-30.96l-12.68-33.7c-3.2,7.88-7.59,19.12-13.18,33.7h25.86Z"/>
</svg>