<?xml version="1.0" encoding="UTF-8"?>
<svg id="Layer_1" data-name="Layer 1" xmlns="http://www.w3.org/2000/svg" xmlns:xlink="http://www.w3.org/1999/xlink" viewBox="0 0 856.55 564">
  <defs>
    <style>
      .cls-1 {
        fill: url(#linear-gradient);
      }
    </style>
    <linearGradient id="linear-gradient" x1="192.59" y1="42.19" x2="649.44" y2="372.91" gradientUnits="userSpaceOnUse">
      <stop offset="0" stop-color="#7bd989"/>
      <stop offset="1" stop-color="#2bbec8"/>
    </linearGradient>
  </defs>
  <path class="cls-1" d="M710.55,0V282c0,155.74-126.26,282-282,282S146.55,437.74,146.55,282V0h170.5c61.58,0,111.5,49.92,111.5,111.5,0-61.58,49.92-111.5,111.5-111.5h170.5Z"/>
  <g>
    <path d="M75.54,309.46c0,7.37-.13,13.54-.39,18.54-.79,.13-1.77,.2-2.96,.2-.13,0-1.15-.1-3.06-.3-1.91-.2-4.37-.3-7.4-.3h-9.27l-33.73-.39H2.56c-1.71,0-2.56-.43-2.56-1.29,0-.74,2.56-1.29,7.69-1.66,1.45-.13,2.33-.46,2.66-.99,.33-.53,.49-1.98,.49-4.35v-66.22c0-7.38-.59-11.27-1.78-11.66-.53-.26-1.68-.4-3.45-.4s-2.93-.07-3.45-.2c-1.45,0-2.17-.53-2.17-1.58,0-.92,.86-1.38,2.58-1.38h31.92c2.51,0,3.77,.55,3.77,1.66,0,.74-2.17,1.17-6.51,1.29-2.1,.13-3.35,.59-3.75,1.38-.39,.79-.59,3.63-.59,8.5v73.34c5.23,.13,9.03,.2,11.39,.2,14.14,0,22.97-1.38,26.51-4.14,2.88-2.23,4.71-6.97,5.5-14.2,.26-3.15,.99-4.73,2.17-4.73,1.71,0,2.56,2.89,2.56,8.68Z"/>
    <path d="M170.99,282.93c0,12.73-4.14,23.52-12.43,32.37-8.28,8.86-18.41,13.28-30.37,13.28-12.76,0-23.5-4.49-32.25-13.48-8.75-8.99-13.12-19.98-13.12-32.97s4.17-24.57,12.52-33.16c8.35-8.59,19.03-12.89,32.05-12.89s22.71,4.5,31.06,13.48c8.35,8.99,12.52,20.11,12.52,33.36Zm-18.54,.59c0-15.22-3.09-27.22-9.27-36.01-3.94-5.64-9.4-8.46-16.37-8.46-9.6,0-16.57,5.25-20.91,15.74-3.03,7.35-4.54,16.66-4.54,27.94,0,13.51,2.37,24.07,7.1,31.68,4.73,7.61,11.31,11.41,19.72,11.41,16.17,0,24.26-14.1,24.26-42.31Z"/>
    <path d="M270.59,282.93c0,12.73-4.14,23.52-12.42,32.37-8.28,8.86-18.41,13.28-30.37,13.28-12.75,0-23.5-4.49-32.25-13.48-8.75-8.99-13.12-19.98-13.12-32.97s4.17-24.57,12.52-33.16c8.35-8.59,19.03-12.89,32.05-12.89s22.71,4.5,31.06,13.48c8.35,8.99,12.52,20.11,12.52,33.36Zm-18.54,.59c0-15.22-3.09-27.22-9.27-36.01-3.94-5.64-9.4-8.46-16.37-8.46-9.6,0-16.57,5.25-20.91,15.74-3.03,7.35-4.54,16.66-4.54,27.94,0,13.51,2.37,24.07,7.1,31.68,4.73,7.61,11.31,11.41,19.72,11.41,16.17,0,24.26-14.1,24.26-42.31Z"/>
    <path d="M375.91,325.63c0,.79-.23,1.25-.69,1.38-.46,.13-2.01,.2-4.64,.2h-32.94c-2.37,0-3.55-.37-3.55-1.11,0-.86,2.17-1.48,6.51-1.85,2.63-.26,3.94-.79,3.94-1.58,0-.53-1.51-2.44-4.54-5.75-2.76-2.91-13.35-14.47-31.75-34.68v35.5c0,3.16,.4,5,1.18,5.52,.79,.53,3.35,.86,7.69,.99,1.45,0,2.17,.53,2.17,1.58,0,.92-.99,1.38-2.96,1.38h-32.74c-1.84,0-2.76-.52-2.76-1.58,0-1.18,1.9-1.71,5.72-1.58,2.63,0,4.14-.4,4.54-1.18s.59-3.61,.59-8.48v-66.07c0-3.68-.07-5.72-.2-6.11-.4-1.05-2.28-1.58-5.63-1.58s-5.02-.59-5.02-1.78c0-.92,.92-1.38,2.78-1.38h1.98c1.19,.13,2.18,.2,2.97,.2l12.88-.2c.66,0,3.44,.07,8.33,.2l6.74-.2c1.85,0,2.78,.53,2.78,1.58,0,.92-2.17,1.45-6.51,1.58-2.1,.13-3.39,.36-3.85,.69-.46,.33-.69,1.42-.69,3.26v32.54c24.59-22.75,36.88-34.58,36.88-35.5,0-.66-2.7-.99-8.09-.99-1.58,0-2.37-.52-2.37-1.58,0-.79,.46-1.25,1.38-1.38,.92-.13,4.21-.2,9.86-.2,10.12,0,16.04,.07,17.75,.19,1.71,.12,2.56,.62,2.56,1.49,0,1.25-1.18,1.81-3.55,1.68h-5.52c-1.84-.13-4.08,1.06-6.71,3.56-1.71,1.45-4.34,3.82-7.89,7.12-5.26,5.01-13.28,12.45-24.06,22.34,1.71,1.85,7.95,8.24,18.74,19.18l23.27,23.52c3.68,3.69,6.11,5.9,7.3,6.62,1.18,.73,3.09,1.09,5.72,1.09,1.58,0,2.37,.46,2.37,1.38Z"/>
    <path d="M466.04,282.93c0,12.73-4.14,23.52-12.42,32.37-8.28,8.86-18.41,13.28-30.37,13.28-12.75,0-23.5-4.49-32.25-13.48-8.75-8.99-13.12-19.98-13.12-32.97s4.17-24.57,12.52-33.16c8.35-8.59,19.03-12.89,32.05-12.89s22.71,4.5,31.06,13.48c8.35,8.99,12.52,20.11,12.52,33.36Zm-18.54,.59c0-15.22-3.09-27.22-9.27-36.01-3.94-5.64-9.4-8.46-16.37-8.46-9.6,0-16.57,5.25-20.91,15.74-3.03,7.35-4.54,16.66-4.54,27.94,0,13.51,2.37,24.07,7.1,31.68,4.73,7.61,11.31,11.41,19.72,11.41,16.17,0,24.26-14.1,24.26-42.31Z"/>
    <path d="M564.66,238.5c0,1.22-1.12,1.7-3.35,1.43-3.68,.14-6.18,.58-7.49,1.33-1.32,.75-2.43,2.34-3.35,4.79l-1.18,3.26c-7.37,18.67-16.7,43.59-28.01,74.75-1.05,3.28-2.1,4.93-3.15,4.93s-2.1-1.51-3.15-4.54c-5.24-14.47-12.9-34.73-22.99-60.78-1.34-3.41-3.27-8.53-5.81-15.35-1.45-4.07-2.8-6.47-4.04-7.2-1.25-.72-4.44-1.09-9.56-1.09-1.45,0-2.17-.39-2.17-1.18,0-1.18,.92-1.77,2.76-1.77h38.46c3.42,0,5.13,.53,5.13,1.58,0,.92-.99,1.51-2.96,1.77h-7.3c-4.08,.14-6.11,.67-6.11,1.6,0,.53,3.41,9.86,10.24,27.99,.26,.52,4.33,11.46,12.2,32.82,.93-2.48,3.72-9.67,8.38-21.56l8.14-21.74c3.86-9.71,5.8-15.36,5.8-16.94,0-1.31-1.12-2.03-3.35-2.17h-7.69c-1.05,0-1.58-.4-1.58-1.2,0-1.44,1.9-2.15,5.72-2.15h9.47c2.5,.39,3.94,.59,4.34,.59,.66,0,1.91-.2,3.75-.59h5.92c1.97,0,2.96,.48,2.96,1.43Z"/>
    <path d="M604.69,326.03c0,.79-.59,1.18-1.77,1.18h-33.13c-2.24,0-3.35-.34-3.35-1.03,0-.91,1.45-1.42,4.34-1.54,3.94-.26,6.02-.73,6.21-1.39,.2-.66,.3-3.51,.3-8.54v-63.95c0-5.16-.13-8.18-.39-9.04-.27-.86-1.25-1.36-2.96-1.49h-5.92c-1.18,0-1.78-.46-1.78-1.38s.85-1.38,2.56-1.38c-.13,0,.26,0,1.18,0h31.36c2.1,0,3.16,.53,3.16,1.58,0,.79-2.24,1.25-6.71,1.38-1.84,0-2.96,.3-3.35,.89-.39,.59-.59,2.4-.59,5.42v74.36c0,1.31,.49,2.17,1.48,2.56,.99,.4,3.32,.72,7,.99,1.58,.13,2.37,.59,2.37,1.38Z"/>
    <path d="M690.48,261.39c0,1.8-.79,2.7-2.37,2.7-1.71,0-2.63-1.21-2.76-3.62-.4-5.21-1.51-9.47-3.35-12.78-2.5-4.58-8.22-6.87-17.16-6.87-1.32,0-3.35,.07-6.11,.2v79.29c0,2.5,1.9,3.81,5.72,3.94,3.81,.13,5.72,.66,5.72,1.58s-1.12,1.38-3.35,1.38h-32.15c-2.63,0-3.94-.46-3.94-1.38s2.17-1.45,6.51-1.58c1.58,0,2.63-.13,3.16-.39,1.05-.26,1.64-.96,1.77-2.08,.13-1.12,.2-4.45,.2-9.98v-70.97c-10.26-.13-16.93,.91-20.02,3.13-3.09,2.22-5.16,7.43-6.21,15.65-.39,3-1.25,4.5-2.56,4.5-1.18,0-1.77-1.49-1.77-4.47,0-3.75,.59-11.14,1.77-22.15h45.95c4.07,0,12.36-.11,24.85-.33,1.05,0,2.43-.22,4.14-.66l.2,4.06,.59,6.95,.59,8.11,.4,3.48c.13,1.16,.2,1.93,.2,2.32Z"/>
    <path d="M759.91,301.88c0,7.33-3.16,13.62-9.47,18.85-6.31,5.24-13.94,7.85-22.88,7.85-6.71,0-13.61-2.04-20.71-6.13-.79-.25-1.32-.38-1.58-.38-.79,0-1.25,.62-1.38,1.86-.13,1.24-.33,2.32-.59,3.26-.27,.93-.92,1.39-1.97,1.39-1.32,0-1.97-.66-1.97-1.97,0-.26,.13-2.23,.39-5.92,.26-3.68,.39-6.83,.39-9.47v-10.06c0-2.5,.66-3.75,1.97-3.75s2.3,2.04,2.96,6.11c2.5,14.47,10.26,21.7,23.27,21.7,11.05,0,16.57-5.5,16.57-16.49,0-4.84-1.31-8.77-3.94-11.78-2.63-3.01-7.76-6.42-15.38-10.21-9.99-4.97-16.37-8.9-19.13-11.78-3.55-3.8-5.32-8.51-5.32-14.14,0-7.2,2.63-13.12,7.89-17.77,5.26-4.65,11.9-6.97,19.92-6.97,4.99,0,10.32,1.51,15.97,4.54,.66,.39,1.18,.59,1.58,.59,.92,0,1.51-.95,1.78-2.86,.26-1.9,1.05-2.86,2.37-2.86s1.97,.66,1.97,1.97c0,.27-.07,.79-.2,1.58-.26,2.1-.39,4.8-.39,8.09,0,1.97,.2,5.52,.59,10.65,.13,.53,.2,1.12,.2,1.77,0,1.58-.53,2.37-1.58,2.37-1.18,0-2.04-1.17-2.56-3.52-1.18-5.73-3.58-10.33-7.2-13.78-3.62-3.45-7.86-5.18-12.72-5.18-9.47,0-14.2,5.04-14.2,15.12,0,4.45,1.25,8.12,3.75,11,1.31,1.57,2.76,2.81,4.34,3.73,1.58,.92,6.18,3.21,13.81,6.87,8.55,4.19,14.59,8.22,18.14,12.08,3.55,3.86,5.32,8.41,5.32,13.65Z"/>
    <path d="M856.55,326.22c0,.79-1.32,1.18-3.94,1.18h-38.85c-2.37,0-3.55-.52-3.55-1.57s2.37-1.63,7.1-1.76c5.65-.13,8.48-.78,8.48-1.96,0-.26-.39-1.5-1.18-3.72-.27-1.04-1.78-5.42-4.54-13.12l-2.37-6.66h-28.2c-5.39,13.54-8.09,21.37-8.09,23.47,0,1.18,.79,1.84,2.37,1.97l2.56,.2h2.96l1.78,.59c1.58,0,2.37,.4,2.37,1.2,0,.91-1.38,1.37-4.14,1.37-.39,0-2.73-.1-7-.3-4.27-.2-8.05-.3-11.34-.3h-1.77l-1.77,.3-2.17,.3h-.39c-2.1,0-3.16-.39-3.16-1.19,0-.92,.86-1.45,2.56-1.58,2.37-.13,3.94-.26,4.73-.4,2.23-.39,3.68-.99,4.34-1.78,.79-.39,4.01-7.91,9.66-22.54,2.23-5.93,4.4-11.47,6.51-16.61,.79-1.84,1.31-3.23,1.58-4.15,.26-.92,.79-2.31,1.58-4.15,2.23-5.41,5.39-13.58,9.47-24.52l2.97-8.28,1.36-3.56c.79-1.97,1.58-2.96,2.37-2.96,.39,0,1.25,1.84,2.56,5.52,3.94,9.6,14.13,34.98,30.57,76.13,1.58,4.08,3.09,6.25,4.54,6.51,.39,.13,2.5,.33,6.31,.59,2.5,.13,3.75,.72,3.75,1.77Zm-40.04-30.96l-12.68-33.7c-3.2,7.88-7.59,19.12-13.18,33.7h25.86Z"/>
  </g>
  <g>
    <path d="M317.88,468.47c0,.18-.2,.26-.59,.26,.09,0-.02,0-.33,0h-5.52c-.39,0-.59-.08-.59-.23,0-.1,.05-.15,.15-.17,.1-.02,.47-.04,1.1-.06,.46-.02,.73-.09,.81-.2,.08-.11,.12-.52,.12-1.22v-10.61c-.39,1.1-1.03,2.9-1.91,5.43-.5,1.51-1.14,3.46-1.91,5.85-.22,.68-.39,1.02-.53,1.02-.18,0-.36-.3-.56-.89-.5-1.51-1.98-5.26-4.44-11.24v11.28c0,.29,.11,.46,.33,.53,.31,.02,.7,.03,1.18,.03,.28,0,.43,.08,.43,.23,0,.18-.22,.26-.66,.26h-3.75c-.33,0-.49-.09-.49-.26,0-.15,.35-.24,1.05-.26,.48-.02,.76-.08,.84-.18,.08-.1,.12-.45,.12-1.07v-11.15c0-.75-.07-1.18-.21-1.31-.14-.13-.62-.21-1.43-.23-.28,0-.43-.09-.43-.26,0-.13,.19-.21,.56-.23,.37-.02,1.69-.03,3.95-.03l.13,.36c.11,.24,.25,.58,.43,1.02l.79,1.97c.22,.55,.59,1.47,1.12,2.76l1.73,4.3c.33-1.05,.59-1.83,.77-2.33l2.83-8.09h3.94c.57-.02,.85,.07,.85,.28,0,.17-.21,.26-.62,.28-.57,.02-.91,.04-1.02,.07-.31,.11-.46,.35-.46,.72v11.61c0,.88,.08,1.35,.23,1.41,.15,.07,.66,.1,1.51,.1,.33,0,.49,.09,.49,.26Z"/>
    <path d="M333.59,468.54c0,.13-.22,.2-.66,.2h-6.48c-.39,0-.59-.09-.59-.26s.39-.27,1.18-.29c.94-.02,1.41-.13,1.41-.33,0-.04-.07-.25-.2-.62-.04-.17-.3-.9-.76-2.19l-.39-1.11h-4.7c-.9,2.26-1.35,3.56-1.35,3.91,0,.2,.13,.31,.39,.33l.43,.03h.49l.3,.1c.26,0,.39,.07,.39,.2,0,.15-.23,.23-.69,.23-.07,0-.46-.02-1.17-.05-.71-.03-1.34-.05-1.89-.05h-.3l-.3,.05-.36,.05h-.07c-.35,0-.53-.07-.53-.2,0-.15,.14-.24,.43-.26,.39-.02,.66-.04,.79-.07,.37-.07,.61-.16,.72-.3,.13-.07,.67-1.32,1.61-3.76,.37-.99,.73-1.91,1.09-2.77,.13-.31,.22-.54,.26-.69,.04-.15,.13-.38,.26-.69,.37-.9,.9-2.26,1.58-4.09l.5-1.38,.23-.59c.13-.33,.26-.49,.39-.49,.07,0,.21,.31,.43,.92,.66,1.6,2.36,5.83,5.1,12.69,.26,.68,.51,1.04,.76,1.09,.07,.02,.42,.06,1.05,.1,.42,.02,.62,.12,.62,.3Zm-6.68-5.16l-2.11-5.62c-.53,1.31-1.27,3.19-2.2,5.62h4.31Z"/>
    <path d="M339.74,468.51c0,.13-.1,.2-.3,.2h-5.52c-.37,0-.56-.06-.56-.17,0-.15,.24-.24,.72-.26,.66-.04,1-.12,1.04-.23,.03-.11,.05-.58,.05-1.42v-10.66c0-.86-.02-1.36-.07-1.51-.04-.14-.21-.23-.49-.25h-.99c-.2,0-.3-.08-.3-.23s.14-.23,.43-.23c-.02,0,.04,0,.2,0h5.23c.35,0,.53,.09,.53,.26,0,.13-.37,.21-1.12,.23-.31,0-.49,.05-.56,.15s-.1,.4-.1,.9v12.4c0,.22,.08,.36,.25,.43,.16,.07,.55,.12,1.17,.16,.26,.02,.39,.1,.39,.23Z"/>
    <path d="M351.68,464.48c0,1.22-.53,2.27-1.58,3.14-1.05,.87-2.32,1.31-3.81,1.31-1.12,0-2.27-.34-3.45-1.02-.13-.04-.22-.06-.26-.06-.13,0-.21,.1-.23,.31-.02,.21-.06,.39-.1,.54-.04,.15-.15,.23-.33,.23-.22,0-.33-.11-.33-.33,0-.04,.02-.37,.07-.99,.04-.61,.07-1.14,.07-1.58v-1.68c0-.42,.11-.62,.33-.62s.38,.34,.49,1.02c.42,2.41,1.71,3.62,3.88,3.62,1.84,0,2.76-.92,2.76-2.75,0-.81-.22-1.46-.66-1.96-.44-.5-1.29-1.07-2.56-1.7-1.67-.83-2.73-1.48-3.19-1.96-.59-.63-.89-1.42-.89-2.36,0-1.2,.44-2.19,1.32-2.96,.88-.77,1.98-1.16,3.32-1.16,.83,0,1.72,.25,2.66,.76,.11,.07,.2,.1,.26,.1,.15,0,.25-.16,.3-.48,.04-.32,.18-.48,.39-.48s.33,.11,.33,.33c0,.04-.01,.13-.03,.26-.04,.35-.07,.8-.07,1.35,0,.33,.03,.92,.1,1.78,.02,.09,.03,.19,.03,.3,0,.26-.09,.39-.26,.39-.2,0-.34-.2-.43-.59-.2-.96-.6-1.72-1.2-2.3-.6-.58-1.31-.86-2.12-.86-1.58,0-2.37,.84-2.37,2.52,0,.74,.21,1.35,.62,1.83,.22,.26,.46,.47,.72,.62,.26,.15,1.03,.54,2.3,1.15,1.42,.7,2.43,1.37,3.02,2.01s.89,1.4,.89,2.27Z"/>
    <path d="M368.05,461.32c0,2.12-.69,3.92-2.07,5.4-1.38,1.48-3.07,2.22-5.06,2.22-2.13,0-3.92-.75-5.38-2.25-1.46-1.5-2.19-3.33-2.19-5.5s.7-4.1,2.09-5.53c1.39-1.43,3.17-2.15,5.34-2.15s3.79,.75,5.18,2.25c1.39,1.5,2.09,3.35,2.09,5.56Zm-3.09,.1c0-2.54-.52-4.54-1.55-6-.66-.94-1.57-1.41-2.73-1.41-1.6,0-2.76,.87-3.49,2.62-.5,1.23-.76,2.78-.76,4.66,0,2.25,.39,4.01,1.18,5.28,.79,1.27,1.88,1.9,3.29,1.9,2.7,0,4.04-2.35,4.04-7.05Z"/>
    <path d="M384.16,453.97c0,.15-.24,.23-.72,.23h-.82c-.2,0-.31,.04-.35,.13s-.05,.39-.05,.89v12.12c0,.79-.01,1.26-.03,1.39-.02,.13-.12,.2-.3,.2-.24,0-1.02-.92-2.34-2.76-.15-.24-.39-.57-.72-.99-.04-.07-.16-.23-.36-.49-1.1-1.45-3.08-4.19-5.95-8.2v10.43c0,.82,.12,1.25,.35,1.29,.23,.04,.65,.07,1.27,.07h.13c.26,0,.39,.07,.39,.21,0,.16-.24,.25-.72,.25-.09,0-.45-.02-1.09-.07-.33-.02-.62-.03-.89-.03-.22,0-.44,.01-.66,.03-.42,.04-.87,.07-1.35,.07-.35,0-.53-.08-.53-.25,0-.14,.21-.21,.62-.21h.3l.43-.03c.53-.04,.8-.14,.82-.3,.02-.09,.03-.41,.03-.96v-9.11c0-1.65-.1-2.65-.3-2.98-.26-.44-.78-.66-1.55-.66-.55,0-.82-.09-.82-.28,0-.14,.14-.22,.43-.22h4.18l7.76,10.68v-9.14c0-.55-.02-.87-.07-.95-.04-.09-.22-.13-.53-.13h-.89c-.42,0-.62-.08-.62-.25,0-.1,.1-.16,.31-.18,.21-.02,.95-.03,2.22-.03,1.21,0,1.91,0,2.1,.03,.2,.02,.3,.09,.3,.2Z"/>
    <path d="M406.78,461.22c0,2.57-.99,4.56-2.96,5.96-1.43,1.01-3.25,1.52-5.49,1.52,.07,0-.19,0-.77,0h-3.4s-.15,0-.59,0h-1.61c-.37,0-.56-.1-.56-.31,0-.19,.13-.27,.39-.24h.76c.44,.02,.68-.1,.72-.36,.04-.09,.07-.47,.07-1.15v-10.5c0-1.05-.02-1.6-.07-1.67-.11-.13-.49-.21-1.15-.23-.39,0-.59-.08-.59-.23,0-.18,.2-.26,.59-.26-.04,0,.05,0,.3,0h3.39c2.87,0,4.91,.18,6.12,.53,1.45,.42,2.62,1.27,3.52,2.55,.9,1.29,1.35,2.75,1.35,4.4Zm-3.16-.12c0-4.54-1.83-6.81-5.5-6.81-1.11,0-1.73,.06-1.85,.18s-.18,.52-.18,1.2v11.61c0,.39,.09,.64,.28,.72,.19,.09,.66,.13,1.42,.13,3.88,0,5.83-2.34,5.83-7.04Z"/>
    <path d="M420.89,465.17s-.02,.16-.05,.42c-.03,.26-.05,.48-.05,.69v1.91c0,.2,.03,.42,.1,.66l-5.49-.1-6.28,.1c-.46,0-.69-.09-.69-.26,0-.2,.13-.3,.39-.3,.7,0,1.11-.05,1.23-.15,.12-.1,.18-.45,.18-1.07v-11.31c0-.9-.08-1.37-.23-1.43-.15-.05-.54-.08-1.15-.08-.26,0-.39-.08-.39-.23,0-.18,.14-.26,.43-.26h11.24v.23l.03,.49c.04,.32,.13,1.3,.26,2.92,.02,.11,.03,.24,.03,.39,0,.28-.08,.42-.23,.42-.2,0-.34-.22-.43-.66-.31-1.67-.88-2.64-1.74-2.93-.48-.15-1.61-.23-3.4-.23h-1.67v6.15h.78c1.39,0,2.25-.12,2.58-.34,.33-.23,.54-.86,.65-1.89,.07-.61,.2-.92,.39-.92,.22,0,.33,.22,.33,.66,0,.26-.02,.67-.05,1.22-.03,.55-.05,.96-.05,1.25,0,1.43,.02,2.4,.07,2.93,.02,.18,.02,.32,.02,.43,0,.35-.11,.53-.32,.53-.19,0-.32-.27-.39-.82-.13-1.18-.35-1.89-.65-2.12-.3-.23-1.16-.34-2.56-.34h-.81v7.1c3.21-.02,5.1-.11,5.66-.26,.87-.24,1.38-1.29,1.54-3.16,.02-.33,.14-.49,.36-.49s.33,.3,.33,.9Z"/>
    <path d="M442.98,453.92c0,.2-.19,.28-.56,.24-.61,.02-1.03,.1-1.25,.22s-.41,.39-.56,.8l-.2,.54c-1.23,3.11-2.78,7.27-4.67,12.46-.18,.55-.35,.82-.53,.82s-.35-.25-.53-.76c-.87-2.41-2.15-5.79-3.83-10.13-.22-.57-.55-1.42-.97-2.56-.24-.68-.47-1.08-.67-1.2-.21-.12-.74-.18-1.59-.18-.24,0-.36-.07-.36-.2,0-.2,.15-.3,.46-.3h6.41c.57,0,.85,.09,.85,.26,0,.15-.16,.25-.49,.3h-1.22c-.68,.02-1.02,.11-1.02,.27,0,.09,.57,1.64,1.71,4.67,.04,.09,.72,1.91,2.03,5.47,.15-.41,.62-1.61,1.4-3.59l1.36-3.63c.65-1.62,.97-2.56,.97-2.82,0-.22-.19-.34-.56-.36h-1.28c-.18,0-.26-.07-.26-.2,0-.24,.32-.36,.95-.36h1.58c.42,.07,.66,.1,.72,.1,.11,0,.32-.03,.63-.1h.99c.33,0,.49,.08,.49,.24Z"/>
    <path d="M455.74,465.17s-.02,.16-.05,.42c-.03,.26-.05,.48-.05,.69v1.91c0,.2,.03,.42,.1,.66l-5.49-.1-6.28,.1c-.46,0-.69-.09-.69-.26,0-.2,.13-.3,.39-.3,.7,0,1.11-.05,1.23-.15s.18-.45,.18-1.07v-11.31c0-.9-.08-1.37-.23-1.43-.15-.05-.54-.08-1.15-.08-.26,0-.4-.08-.4-.23,0-.18,.14-.26,.43-.26h11.24v.23l.03,.49c.04,.32,.13,1.3,.26,2.92,.02,.11,.03,.24,.03,.39,0,.28-.08,.42-.23,.42-.2,0-.34-.22-.43-.66-.31-1.67-.88-2.64-1.74-2.93-.48-.15-1.61-.23-3.4-.23h-1.67v6.15h.78c1.39,0,2.25-.12,2.58-.34,.33-.23,.54-.86,.65-1.89,.07-.61,.2-.92,.39-.92,.22,0,.33,.22,.33,.66,0,.26-.02,.67-.05,1.22-.03,.55-.05,.96-.05,1.25,0,1.43,.02,2.4,.07,2.93,.02,.18,.02,.32,.02,.43,0,.35-.11,.53-.32,.53-.2,0-.33-.27-.39-.82-.13-1.18-.35-1.89-.65-2.12-.3-.23-1.16-.34-2.56-.34h-.81v7.1c3.21-.02,5.09-.11,5.66-.26,.87-.24,1.39-1.29,1.54-3.16,.02-.33,.14-.49,.36-.49s.33,.3,.33,.9Zm-2.47-13h-2.17c-.83-.83-1.63-2.05-2.4-3.65-.48,.99-1.02,1.85-1.61,2.6-.59,.75-1.04,1.12-1.35,1.12-.2,0-.3-.08-.3-.23,0-.07,.07-.16,.2-.3,.96-.94,1.9-2.36,2.79-4.24,.37-.77,.65-1.15,.82-1.15s.47,.39,.89,1.18c.85,1.62,1.9,3.18,3.12,4.67Z"/>
    <path d="M469.78,457.73c0,.3-.13,.45-.4,.45-.28,0-.44-.2-.46-.6-.07-.87-.25-1.58-.56-2.13-.42-.76-1.37-1.14-2.86-1.14-.22,0-.56,.01-1.02,.03v13.22c0,.42,.32,.64,.95,.66,.64,.02,.95,.11,.95,.26s-.19,.23-.56,.23h-5.36c-.44,0-.66-.08-.66-.23s.36-.24,1.09-.26c.26,0,.44-.02,.53-.07,.18-.04,.27-.16,.3-.35,.02-.19,.03-.74,.03-1.66v-11.83c-1.71-.02-2.82,.15-3.34,.52-.52,.37-.86,1.24-1.04,2.61-.07,.5-.21,.75-.43,.75-.2,0-.3-.25-.3-.75,0-.63,.1-1.86,.3-3.69h7.66c.68,0,2.06-.02,4.14-.06,.17,0,.41-.04,.69-.11l.03,.68,.1,1.16,.1,1.35,.07,.58c.02,.19,.03,.32,.03,.39Z"/>
    <path d="M483.39,465.17s-.02,.16-.05,.42c-.03,.26-.05,.48-.05,.69v1.91c0,.2,.03,.42,.1,.66l-5.49-.1-6.28,.1c-.46,0-.69-.09-.69-.26,0-.2,.13-.3,.39-.3,.7,0,1.11-.05,1.23-.15s.18-.45,.18-1.07v-11.31c0-.9-.08-1.37-.23-1.43-.15-.05-.54-.08-1.15-.08-.26,0-.4-.08-.4-.23,0-.18,.14-.26,.43-.26h11.24v.23l.03,.49c.04,.32,.13,1.3,.26,2.92,.02,.11,.03,.24,.03,.39,0,.28-.08,.42-.23,.42-.2,0-.34-.22-.43-.66-.31-1.67-.88-2.64-1.74-2.93-.48-.15-1.61-.23-3.4-.23h-1.67v6.15h.78c1.39,0,2.25-.12,2.58-.34,.33-.23,.54-.86,.65-1.89,.07-.61,.2-.92,.39-.92,.22,0,.33,.22,.33,.66,0,.26-.02,.67-.05,1.22-.03,.55-.05,.96-.05,1.25,0,1.43,.02,2.4,.07,2.93,.02,.18,.02,.32,.02,.43,0,.35-.11,.53-.32,.53-.2,0-.33-.27-.39-.82-.13-1.18-.35-1.89-.65-2.12-.3-.23-1.16-.34-2.56-.34h-.81v7.1c3.21-.02,5.09-.11,5.66-.26,.87-.24,1.39-1.29,1.54-3.16,.02-.33,.14-.49,.36-.49s.33,.3,.33,.9Z"/>
    <path d="M501.67,468.47c0,.18-.2,.26-.59,.26,.09,0-.02,0-.33,0h-5.52c-.39,0-.59-.08-.59-.23,0-.1,.05-.15,.15-.17s.47-.04,1.1-.06c.46-.02,.73-.09,.81-.2,.08-.11,.12-.52,.12-1.22v-10.61c-.39,1.1-1.03,2.9-1.91,5.43-.5,1.51-1.14,3.46-1.91,5.85-.22,.68-.39,1.02-.53,1.02-.18,0-.36-.3-.56-.89-.5-1.51-1.98-5.26-4.44-11.24v11.28c0,.29,.11,.46,.33,.53,.31,.02,.7,.03,1.18,.03,.28,0,.43,.08,.43,.23,0,.18-.22,.26-.66,.26h-3.75c-.33,0-.49-.09-.49-.26,0-.15,.35-.24,1.05-.26,.48-.02,.76-.08,.84-.18,.08-.1,.12-.45,.12-1.07v-11.15c0-.75-.07-1.18-.21-1.31-.14-.13-.62-.21-1.43-.23-.28,0-.43-.09-.43-.26,0-.13,.19-.21,.56-.23,.37-.02,1.69-.03,3.95-.03l.13,.36c.11,.24,.25,.58,.43,1.02l.79,1.97c.22,.55,.59,1.47,1.12,2.76l1.73,4.3c.33-1.05,.59-1.83,.77-2.33l2.83-8.09h3.94c.57-.02,.85,.07,.85,.28,0,.17-.21,.26-.62,.28-.57,.02-.91,.04-1.02,.07-.31,.11-.46,.35-.46,.72v11.61c0,.88,.08,1.35,.23,1.41s.66,.1,1.51,.1c.33,0,.49,.09,.49,.26Z"/>
    <path d="M515.22,465.17s-.02,.16-.05,.42c-.03,.26-.05,.48-.05,.69v1.91c0,.2,.03,.42,.1,.66l-5.49-.1-6.28,.1c-.46,0-.69-.09-.69-.26,0-.2,.13-.3,.39-.3,.7,0,1.11-.05,1.23-.15s.18-.45,.18-1.07v-11.31c0-.9-.08-1.37-.23-1.43-.15-.05-.54-.08-1.15-.08-.26,0-.4-.08-.4-.23,0-.18,.14-.26,.43-.26h11.24v.23l.03,.49c.04,.32,.13,1.3,.26,2.92,.02,.11,.03,.24,.03,.39,0,.28-.08,.42-.23,.42-.2,0-.34-.22-.43-.66-.31-1.67-.88-2.64-1.74-2.93-.48-.15-1.61-.23-3.4-.23h-1.67v6.15h.78c1.39,0,2.25-.12,2.58-.34,.33-.23,.54-.86,.65-1.89,.07-.61,.2-.92,.39-.92,.22,0,.33,.22,.33,.66,0,.26-.02,.67-.05,1.22-.03,.55-.05,.96-.05,1.25,0,1.43,.02,2.4,.07,2.93,.02,.18,.02,.32,.02,.43,0,.35-.11,.53-.32,.53-.2,0-.33-.27-.39-.82-.13-1.18-.35-1.89-.65-2.12-.3-.23-1.16-.34-2.56-.34h-.81v7.1c3.21-.02,5.09-.11,5.66-.26,.87-.24,1.39-1.29,1.54-3.16,.02-.33,.14-.49,.36-.49s.33,.3,.33,.9Z"/>
    <path d="M530.87,453.97c0,.15-.24,.23-.72,.23h-.82c-.2,0-.31,.04-.35,.13s-.05,.39-.05,.89v12.12c0,.79-.01,1.26-.03,1.39-.02,.13-.12,.2-.3,.2-.24,0-1.02-.92-2.34-2.76-.15-.24-.39-.57-.72-.99-.04-.07-.16-.23-.36-.49-1.1-1.45-3.08-4.19-5.95-8.2v10.43c0,.82,.12,1.25,.34,1.29,.23,.04,.65,.07,1.27,.07h.13c.26,0,.39,.07,.39,.21,0,.16-.24,.25-.72,.25-.09,0-.45-.02-1.08-.07-.33-.02-.62-.03-.89-.03-.22,0-.44,.01-.66,.03-.42,.04-.87,.07-1.35,.07-.35,0-.53-.08-.53-.25,0-.14,.21-.21,.62-.21h.3l.43-.03c.53-.04,.8-.14,.82-.3,.02-.09,.03-.41,.03-.96v-9.11c0-1.65-.1-2.65-.3-2.98-.26-.44-.78-.66-1.55-.66-.55,0-.82-.09-.82-.28,0-.14,.14-.22,.43-.22h4.18l7.76,10.68v-9.14c0-.55-.02-.87-.07-.95-.04-.09-.22-.13-.53-.13h-.89c-.42,0-.62-.08-.62-.25,0-.1,.1-.16,.31-.18s.95-.03,2.22-.03c1.21,0,1.91,0,2.1,.03,.2,.02,.3,.09,.3,.2Z"/>
    <path d="M544.88,457.73c0,.3-.13,.45-.4,.45-.28,0-.44-.2-.46-.6-.07-.87-.25-1.58-.56-2.13-.42-.76-1.37-1.14-2.86-1.14-.22,0-.56,.01-1.02,.03v13.22c0,.42,.32,.64,.95,.66,.64,.02,.95,.11,.95,.26s-.19,.23-.56,.23h-5.36c-.44,0-.66-.08-.66-.23s.36-.24,1.09-.26c.26,0,.44-.02,.53-.07,.18-.04,.27-.16,.3-.35,.02-.19,.03-.74,.03-1.66v-11.83c-1.71-.02-2.82,.15-3.34,.52-.52,.37-.86,1.24-1.04,2.61-.07,.5-.21,.75-.43,.75-.2,0-.3-.25-.3-.75,0-.63,.1-1.86,.3-3.69h7.66c.68,0,2.06-.02,4.14-.06,.17,0,.41-.04,.69-.11l.03,.68,.1,1.16,.1,1.35,.07,.58c.02,.19,.03,.32,.03,.39Z"/>
    <path d="M556.45,464.48c0,1.22-.53,2.27-1.58,3.14-1.05,.87-2.32,1.31-3.81,1.31-1.12,0-2.27-.34-3.45-1.02-.13-.04-.22-.06-.26-.06-.13,0-.21,.1-.23,.31-.02,.21-.05,.39-.1,.54-.04,.15-.15,.23-.33,.23-.22,0-.33-.11-.33-.33,0-.04,.02-.37,.07-.99,.04-.61,.07-1.14,.07-1.58v-1.68c0-.42,.11-.62,.33-.62s.38,.34,.49,1.02c.42,2.41,1.71,3.62,3.88,3.62,1.84,0,2.76-.92,2.76-2.75,0-.81-.22-1.46-.66-1.96-.44-.5-1.29-1.07-2.56-1.7-1.67-.83-2.73-1.48-3.19-1.96-.59-.63-.89-1.42-.89-2.36,0-1.2,.44-2.19,1.32-2.96,.88-.77,1.98-1.16,3.32-1.16,.83,0,1.72,.25,2.66,.76,.11,.07,.2,.1,.26,.1,.15,0,.25-.16,.3-.48,.04-.32,.18-.48,.39-.48s.33,.11,.33,.33c0,.04-.01,.13-.03,.26-.04,.35-.07,.8-.07,1.35,0,.33,.03,.92,.1,1.78,.02,.09,.03,.19,.03,.3,0,.26-.09,.39-.26,.39-.2,0-.34-.2-.43-.59-.2-.96-.6-1.72-1.2-2.3-.6-.58-1.31-.86-2.12-.86-1.58,0-2.37,.84-2.37,2.52,0,.74,.21,1.35,.62,1.83,.22,.26,.46,.47,.72,.62,.26,.15,1.03,.54,2.3,1.15,1.42,.7,2.43,1.37,3.02,2.01s.89,1.4,.89,2.27Z"/>
  </g>
</svg>