<?xml version="1.0" encoding="UTF-8"?>
<svg id="Layer_1" data-name="Layer 1" xmlns="http://www.w3.org/2000/svg" viewBox="300 210 258 32">
  <path d="M317.88,232.98c0,.18-.2,.26-.59,.26,.09,0-.02,0-.33,0h-5.52c-.39,0-.59-.08-.59-.23,0-.1,.05-.15,.15-.17,.1-.02,.47-.04,1.1-.06,.46-.02,.73-.09,.81-.2,.08-.11,.12-.52,.12-1.22v-10.61c-.39,1.1-1.03,2.9-1.91,5.43-.5,1.51-1.14,3.46-1.91,5.85-.22,.68-.39,1.02-.53,1.02-.18,0-.36-.3-.56-.89-.5-1.51-1.98-5.26-4.44-11.24v11.28c0,.29,.11,.46,.33,.53,.31,.02,.7,.03,1.18,.03,.28,0,.43,.08,.43,.23,0,.18-.22,.26-.66,.26h-3.75c-.33,0-.49-.09-.49-.26,0-.15,.35-.24,1.05-.26,.48-.02,.76-.08,.84-.18,.08-.1,.12-.45,.12-1.07v-11.15c0-.75-.07-1.18-.21-1.31-.14-.13-.62-.21-1.43-.23-.28,0-.43-.09-.43-.26,0-.13,.19-.21,.56-.23,.37-.02,1.69-.03,3.95-.03l.13,.36c.11,.24,.25,.58,.43,1.02l.79,1.97c.22,.55,.59,1.47,1.12,2.76l1.73,4.3c.33-1.05,.59-1.83,.77-2.33l2.83-8.09h3.94c.57-.02,.85,.07,.85,.28,0,.17-.21,.26-.62,.28-.57,.02-.91,.04-1.02,.07-.31,.11-.46,.35-.46,.72v11.61c0,.88,.08,1.35,.23,1.41,.15,.07,.66,.1,1.51,.1,.33,0,.49,.09,.49,.26Z"/>
  <path d="M333.59,233.04c0,.13-.22,.2-.66,.2h-6.48c-.39,0-.59-.09-.59-.26s.39-.27,1.18-.29c.94-.02,1.41-.13,1.41-.33,0-.04-.07-.25-.2-.62-.04-.17-.3-.9-.76-2.19l-.39-1.11h-4.7c-.9,2.26-1.35,3.56-1.35,3.91,0,.2,.13,.31,.39,.33l.43,.03h.49l.3,.1c.26,0,.39,.07,.39,.2,0,.15-.23,.23-.69,.23-.07,0-.46-.02-1.17-.05-.71-.03-1.34-.05-1.89-.05h-.3l-.3,.05-.36,.05h-.07c-.35,0-.53-.07-.53-.2,0-.15,.14-.24,.43-.26,.39-.02,.66-.04,.79-.07,.37-.07,.61-.16,.72-.3,.13-.07,.67-1.32,1.61-3.76,.37-.99,.73-1.91,1.09-2.77,.13-.31,.22-.54,.26-.69,.04-.15,.13-.38,.26-.69,.37-.9,.9-2.26,1.58-4.09l.5-1.38,.23-.59c.13-.33,.26-.49,.39-.49,.07,0,.21,.31,.43,.92,.66,1.6,2.36,5.83,5.1,12.69,.26,.68,.51,1.04,.76,1.09,.07,.02,.42,.06,1.05,.1,.42,.02,.62,.12,.62,.3Zm-6.68-5.16l-2.11-5.62c-.53,1.31-1.27,3.19-2.2,5.62h4.31Z"/>
  <path d="M339.74,233.01c0,.13-.1,.2-.3,.2h-5.52c-.37,0-.56-.06-.56-.17,0-.15,.24-.24,.72-.26,.66-.04,1-.12,1.04-.23,.03-.11,.05-.58,.05-1.42v-10.66c0-.86-.02-1.36-.07-1.51-.04-.14-.21-.23-.49-.25h-.99c-.2,0-.3-.08-.3-.23s.14-.23,.43-.23c-.02,0,.04,0,.2,0h5.23c.35,0,.53,.09,.53,.26,0,.13-.37,.21-1.12,.23-.31,0-.49,.05-.56,.15s-.1,.4-.1,.9v12.4c0,.22,.08,.36,.25,.43,.16,.07,.55,.12,1.17,.16,.26,.02,.39,.1,.39,.23Z"/>
  <path d="M351.68,228.98c0,1.22-.53,2.27-1.58,3.14-1.05,.87-2.32,1.31-3.81,1.31-1.12,0-2.27-.34-3.45-1.02-.13-.04-.22-.06-.26-.06-.13,0-.21,.1-.23,.31-.02,.21-.06,.39-.1,.54-.04,.15-.15,.23-.33,.23-.22,0-.33-.11-.33-.33,0-.04,.02-.37,.07-.99,.04-.61,.07-1.14,.07-1.58v-1.68c0-.42,.11-.62,.33-.62s.38,.34,.49,1.02c.42,2.41,1.71,3.62,3.88,3.62,1.84,0,2.76-.92,2.76-2.75,0-.81-.22-1.46-.66-1.96-.44-.5-1.29-1.07-2.56-1.7-1.67-.83-2.73-1.48-3.19-1.96-.59-.63-.89-1.42-.89-2.36,0-1.2,.44-2.19,1.32-2.96,.88-.77,1.98-1.16,3.32-1.16,.83,0,1.72,.25,2.66,.76,.11,.07,.2,.1,.26,.1,.15,0,.25-.16,.3-.48,.04-.32,.18-.48,.39-.48s.33,.11,.33,.33c0,.04-.01,.13-.03,.26-.04,.35-.07,.8-.07,1.35,0,.33,.03,.92,.1,1.78,.02,.09,.03,.19,.03,.3,0,.26-.09,.39-.26,.39-.2,0-.34-.2-.43-.59-.2-.96-.6-1.72-1.2-2.3-.6-.58-1.31-.86-2.12-.86-1.58,0-2.37,.84-2.37,2.52,0,.74,.21,1.35,.62,1.83,.22,.26,.46,.47,.72,.62,.26,.15,1.03,.54,2.3,1.15,1.42,.7,2.43,1.37,3.02,2.01s.89,1.4,.89,2.27Z"/>
  <path d="M368.05,225.82c0,2.12-.69,3.92-2.07,5.4-1.38,1.48-3.07,2.22-5.06,2.22-2.13,0-3.92-.75-5.38-2.25-1.46-1.5-2.19-3.33-2.19-5.5s.7-4.1,2.09-5.53c1.39-1.43,3.17-2.15,5.34-2.15s3.79,.75,5.18,2.25c1.39,1.5,2.09,3.35,2.09,5.56Zm-3.09,.1c0-2.54-.52-4.54-1.55-6-.66-.94-1.57-1.41-2.73-1.41-1.6,0-2.76,.87-3.49,2.62-.5,1.23-.76,2.78-.76,4.66,0,2.25,.39,4.01,1.18,5.28,.79,1.27,1.88,1.9,3.29,1.9,2.7,0,4.04-2.35,4.04-7.05Z"/>
  <path d="M384.16,218.48c0,.15-.24,.23-.72,.23h-.82c-.2,0-.31,.04-.35,.13s-.05,.39-.05,.89v12.12c0,.79-.01,1.26-.03,1.39-.02,.13-.12,.2-.3,.2-.24,0-1.02-.92-2.34-2.76-.15-.24-.39-.57-.72-.99-.04-.07-.16-.23-.36-.49-1.1-1.45-3.08-4.19-5.95-8.2v10.43c0,.82,.12,1.25,.35,1.29,.23,.04,.65,.07,1.27,.07h.13c.26,0,.39,.07,.39,.21,0,.16-.24,.25-.72,.25-.09,0-.45-.02-1.09-.07-.33-.02-.62-.03-.89-.03-.22,0-.44,.01-.66,.03-.42,.04-.87,.07-1.35,.07-.35,0-.53-.08-.53-.25,0-.14,.21-.21,.62-.21h.3l.43-.03c.53-.04,.8-.14,.82-.3,.02-.09,.03-.41,.03-.96v-9.11c0-1.65-.1-2.65-.3-2.98-.26-.44-.78-.66-1.55-.66-.55,0-.82-.09-.82-.28,0-.14,.14-.22,.43-.22h4.18l7.76,10.68v-9.14c0-.55-.02-.87-.07-.95-.04-.09-.22-.13-.53-.13h-.89c-.42,0-.62-.08-.62-.25,0-.1,.1-.16,.31-.18,.21-.02,.95-.03,2.22-.03,1.21,0,1.91,0,2.1,.03,.2,.02,.3,.09,.3,.2Z"/>
  <path d="M406.78,225.73c0,2.57-.99,4.56-2.96,5.96-1.43,1.01-3.25,1.52-5.49,1.52,.07,0-.19,0-.77,0h-3.4s-.15,0-.59,0h-1.61c-.37,0-.56-.1-.56-.31,0-.19,.13-.27,.39-.24h.76c.44,.02,.68-.1,.72-.36,.04-.09,.07-.47,.07-1.15v-10.5c0-1.05-.02-1.6-.07-1.67-.11-.13-.49-.21-1.15-.23-.39,0-.59-.08-.59-.23,0-.18,.2-.26,.59-.26-.04,0,.05,0,.3,0h3.39c2.87,0,4.91,.18,6.12,.53,1.45,.42,2.62,1.27,3.52,2.55,.9,1.29,1.35,2.75,1.35,4.4Zm-3.16-.12c0-4.54-1.83-6.81-5.5-6.81-1.11,0-1.73,.06-1.85,.18s-.18,.52-.18,1.2v11.61c0,.39,.09,.64,.28,.72,.19,.09,.66,.13,1.42,.13,3.88,0,5.83-2.34,5.83-7.04Z"/>
  <path d="M420.89,229.67s-.02,.16-.05,.42c-.03,.26-.05,.48-.05,.69v1.91c0,.2,.03,.42,.1,.66l-5.49-.1-6.28,.1c-.46,0-.69-.09-.69-.26,0-.2,.13-.3,.39-.3,.7,0,1.11-.05,1.23-.15,.12-.1,.18-.45,.18-1.07v-11.31c0-.9-.08-1.37-.23-1.43-.15-.05-.54-.08-1.15-.08-.26,0-.39-.08-.39-.23,0-.18,.14-.26,.43-.26h11.24v.23l.03,.49c.04,.32,.13,1.3,.26,2.92,.02,.11,.03,.24,.03,.39,0,.28-.08,.42-.23,.42-.2,0-.34-.22-.43-.66-.31-1.67-.88-2.64-1.74-2.93-.48-.15-1.61-.23-3.4-.23h-1.67v6.15h.78c1.39,0,2.25-.12,2.58-.34,.33-.23,.54-.86,.65-1.89,.07-.61,.2-.92,.39-.92,.22,0,.33,.22,.33,.66,0,.26-.02,.67-.05,1.22-.03,.55-.05,.96-.05,1.25,0,1.43,.02,2.4,.07,2.93,.02,.18,.02,.32,.02,.43,0,.35-.11,.53-.32,.53-.19,0-.32-.27-.39-.82-.13-1.18-.35-1.89-.65-2.12-.3-.23-1.16-.34-2.56-.34h-.81v7.1c3.21-.02,5.1-.11,5.66-.26,.87-.24,1.38-1.29,1.54-3.16,.02-.33,.14-.49,.36-.49s.33,.3,.33,.9Z"/>
  <path d="M442.98,218.42c0,.2-.19,.28-.56,.24-.61,.02-1.03,.1-1.25,.22s-.41,.39-.56,.8l-.2,.54c-1.23,3.11-2.78,7.27-4.67,12.46-.18,.55-.35,.82-.53,.82s-.35-.25-.53-.76c-.87-2.41-2.15-5.79-3.83-10.13-.22-.57-.55-1.42-.97-2.56-.24-.68-.47-1.08-.67-1.2-.21-.12-.74-.18-1.59-.18-.24,0-.36-.07-.36-.2,0-.2,.15-.3,.46-.3h6.41c.57,0,.85,.09,.85,.26,0,.15-.16,.25-.49,.3h-1.22c-.68,.02-1.02,.11-1.02,.27,0,.09,.57,1.64,1.71,4.67,.04,.09,.72,1.91,2.03,5.47,.15-.41,.62-1.61,1.4-3.59l1.36-3.63c.65-1.62,.97-2.56,.97-2.82,0-.22-.19-.34-.56-.36h-1.28c-.18,0-.26-.07-.26-.2,0-.24,.32-.36,.95-.36h1.58c.42,.07,.66,.1,.72,.1,.11,0,.32-.03,.63-.1h.99c.33,0,.49,.08,.49,.24Z"/>
  <path d="M455.74,229.67s-.02,.16-.05,.42c-.03,.26-.05,.48-.05,.69v1.91c0,.2,.03,.42,.1,.66l-5.49-.1-6.28,.1c-.46,0-.69-.09-.69-.26,0-.2,.13-.3,.39-.3,.7,0,1.11-.05,1.23-.15s.18-.45,.18-1.07v-11.31c0-.9-.08-1.37-.23-1.43-.15-.05-.54-.08-1.15-.08-.26,0-.4-.08-.4-.23,0-.18,.14-.26,.43-.26h11.24v.23l.03,.49c.04,.32,.13,1.3,.26,2.92,.02,.11,.03,.24,.03,.39,0,.28-.08,.42-.23,.42-.2,0-.34-.22-.43-.66-.31-1.67-.88-2.64-1.74-2.93-.48-.15-1.61-.23-3.4-.23h-1.67v6.15h.78c1.39,0,2.25-.12,2.58-.34,.33-.23,.54-.86,.65-1.89,.07-.61,.2-.92,.39-.92,.22,0,.33,.22,.33,.66,0,.26-.02,.67-.05,1.22-.03,.55-.05,.96-.05,1.25,0,1.43,.02,2.4,.07,2.93,.02,.18,.02,.32,.02,.43,0,.35-.11,.53-.32,.53-.2,0-.33-.27-.39-.82-.13-1.18-.35-1.89-.65-2.12-.3-.23-1.16-.34-2.56-.34h-.81v7.1c3.21-.02,5.09-.11,5.66-.26,.87-.24,1.39-1.29,1.54-3.16,.02-.33,.14-.49,.36-.49s.33,.3,.33,.9Zm-2.47-13h-2.17c-.83-.83-1.63-2.05-2.4-3.65-.48,.99-1.02,1.85-1.61,2.6-.59,.75-1.04,1.12-1.35,1.12-.2,0-.3-.08-.3-.23,0-.07,.07-.16,.2-.3,.96-.94,1.9-2.36,2.79-4.24,.37-.77,.65-1.15,.82-1.15s.47,.39,.89,1.18c.85,1.62,1.9,3.18,3.12,4.67Z"/>
  <path d="M469.78,222.23c0,.3-.13,.45-.4,.45-.28,0-.44-.2-.46-.6-.07-.87-.25-1.58-.56-2.13-.42-.76-1.37-1.14-2.86-1.14-.22,0-.56,.01-1.02,.03v13.22c0,.42,.32,.64,.95,.66,.64,.02,.95,.11,.95,.26s-.19,.23-.56,.23h-5.36c-.44,0-.66-.08-.66-.23s.36-.24,1.09-.26c.26,0,.44-.02,.53-.07,.18-.04,.27-.16,.3-.35,.02-.19,.03-.74,.03-1.66v-11.83c-1.71-.02-2.82,.15-3.34,.52-.52,.37-.86,1.24-1.04,2.61-.07,.5-.21,.75-.43,.75-.2,0-.3-.25-.3-.75,0-.63,.1-1.86,.3-3.69h7.66c.68,0,2.06-.02,4.14-.06,.17,0,.41-.04,.69-.11l.03,.68,.1,1.16,.1,1.35,.07,.58c.02,.19,.03,.32,.03,.39Z"/>
  <path d="M483.39,229.67s-.02,.16-.05,.42c-.03,.26-.05,.48-.05,.69v1.91c0,.2,.03,.42,.1,.66l-5.49-.1-6.28,.1c-.46,0-.69-.09-.69-.26,0-.2,.13-.3,.39-.3,.7,0,1.11-.05,1.23-.15s.18-.45,.18-1.07v-11.31c0-.9-.08-1.37-.23-1.43-.15-.05-.54-.08-1.15-.08-.26,0-.4-.08-.4-.23,0-.18,.14-.26,.43-.26h11.24v.23l.03,.49c.04,.32,.13,1.3,.26,2.92,.02,.11,.03,.24,.03,.39,0,.28-.08,.42-.23,.42-.2,0-.34-.22-.43-.66-.31-1.67-.88-2.64-1.74-2.93-.48-.15-1.61-.23-3.4-.23h-1.67v6.15h.78c1.39,0,2.25-.12,2.58-.34,.33-.23,.54-.86,.65-1.89,.07-.61,.2-.92,.39-.92,.22,0,.33,.22,.33,.66,0,.26-.02,.67-.05,1.22-.03,.55-.05,.96-.05,1.25,0,1.43,.02,2.4,.07,2.93,.02,.18,.02,.32,.02,.43,0,.35-.11,.53-.32,.53-.2,0-.33-.27-.39-.82-.13-1.18-.35-1.89-.65-2.12-.3-.23-1.16-.34-2.56-.34h-.81v7.1c3.21-.02,5.09-.11,5.66-.26,.87-.24,1.39-1.29,1.54-3.16,.02-.33,.14-.49,.36-.49s.33,.3,.33,.9Z"/>
  <path d="M501.67,232.98c0,.18-.2,.26-.59,.26,.09,0-.02,0-.33,0h-5.52c-.39,0-.59-.08-.59-.23,0-.1,.05-.15,.15-.17s.47-.04,1.1-.06c.46-.02,.73-.09,.81-.2,.08-.11,.12-.52,.12-1.22v-10.61c-.39,1.1-1.03,2.9-1.91,5.43-.5,1.51-1.14,3.46-1.91,5.85-.22,.68-.39,1.02-.53,1.02-.18,0-.36-.3-.56-.89-.5-1.51-1.98-5.26-4.44-11.24v11.28c0,.29,.11,.46,.33,.53,.31,.02,.7,.03,1.18,.03,.28,0,.43,.08,.43,.23,0,.18-.22,.26-.66,.26h-3.75c-.33,0-.49-.09-.49-.26,0-.15,.35-.24,1.05-.26,.48-.02,.76-.08,.84-.18,.08-.1,.12-.45,.12-1.07v-11.15c0-.75-.07-1.18-.21-1.31-.14-.13-.62-.21-1.43-.23-.28,0-.43-.09-.43-.26,0-.13,.19-.21,.56-.23,.37-.02,1.69-.03,3.95-.03l.13,.36c.11,.24,.25,.58,.43,1.02l.79,1.97c.22,.55,.59,1.47,1.12,2.76l1.73,4.3c.33-1.05,.59-1.83,.77-2.33l2.83-8.09h3.94c.57-.02,.85,.07,.85,.28,0,.17-.21,.26-.62,.28-.57,.02-.91,.04-1.02,.07-.31,.11-.46,.35-.46,.72v11.61c0,.88,.08,1.35,.23,1.41s.66,.1,1.51,.1c.33,0,.49,.09,.49,.26Z"/>
  <path d="M515.22,229.67s-.02,.16-.05,.42c-.03,.26-.05,.48-.05,.69v1.91c0,.2,.03,.42,.1,.66l-5.49-.1-6.28,.1c-.46,0-.69-.09-.69-.26,0-.2,.13-.3,.39-.3,.7,0,1.11-.05,1.23-.15s.18-.45,.18-1.07v-11.31c0-.9-.08-1.37-.23-1.43-.15-.05-.54-.08-1.15-.08-.26,0-.4-.08-.4-.23,0-.18,.14-.26,.43-.26h11.24v.23l.03,.49c.04,.32,.13,1.3,.26,2.92,.02,.11,.03,.24,.03,.39,0,.28-.08,.42-.23,.42-.2,0-.34-.22-.43-.66-.31-1.67-.88-2.64-1.74-2.93-.48-.15-1.61-.23-3.4-.23h-1.67v6.15h.78c1.39,0,2.25-.12,2.58-.34,.33-.23,.54-.86,.65-1.89,.07-.61,.2-.92,.39-.92,.22,0,.33,.22,.33,.66,0,.26-.02,.67-.05,1.22-.03,.55-.05,.96-.05,1.25,0,1.43,.02,2.4,.07,2.93,.02,.18,.02,.32,.02,.43,0,.35-.11,.53-.32,.53-.2,0-.33-.27-.39-.82-.13-1.18-.35-1.89-.65-2.12-.3-.23-1.16-.34-2.56-.34h-.81v7.1c3.21-.02,5.09-.11,5.66-.26,.87-.24,1.39-1.29,1.54-3.16,.02-.33,.14-.49,.36-.49s.33,.3,.33,.9Z"/>
  <path d="M530.87,218.48c0,.15-.24,.23-.72,.23h-.82c-.2,0-.31,.04-.35,.13s-.05,.39-.05,.89v12.12c0,.79-.01,1.26-.03,1.39-.02,.13-.12,.2-.3,.2-.24,0-1.02-.92-2.34-2.76-.15-.24-.39-.57-.72-.99-.04-.07-.16-.23-.36-.49-1.1-1.45-3.08-4.19-5.95-8.2v10.43c0,.82,.12,1.25,.34,1.29,.23,.04,.65,.07,1.27,.07h.13c.26,0,.39,.07,.39,.21,0,.16-.24,.25-.72,.25-.09,0-.45-.02-1.08-.07-.33-.02-.62-.03-.89-.03-.22,0-.44,.01-.66,.03-.42,.04-.87,.07-1.35,.07-.35,0-.53-.08-.53-.25,0-.14,.21-.21,.62-.21h.3l.43-.03c.53-.04,.8-.14,.82-.3,.02-.09,.03-.41,.03-.96v-9.11c0-1.65-.1-2.65-.3-2.98-.26-.44-.78-.66-1.55-.66-.55,0-.82-.09-.82-.28,0-.14,.14-.22,.43-.22h4.18l7.76,10.68v-9.14c0-.55-.02-.87-.07-.95-.04-.09-.22-.13-.53-.13h-.89c-.42,0-.62-.08-.62-.25,0-.1,.1-.16,.31-.18s.95-.03,2.22-.03c1.21,0,1.91,0,2.1,.03,.2,.02,.3,.09,.3,.2Z"/>
  <path d="M544.88,222.23c0,.3-.13,.45-.4,.45-.28,0-.44-.2-.46-.6-.07-.87-.25-1.58-.56-2.13-.42-.76-1.37-1.14-2.86-1.14-.22,0-.56,.01-1.02,.03v13.22c0,.42,.32,.64,.95,.66,.64,.02,.95,.11,.95,.26s-.19,.23-.56,.23h-5.36c-.44,0-.66-.08-.66-.23s.36-.24,1.09-.26c.26,0,.44-.02,.53-.07,.18-.04,.27-.16,.3-.35,.02-.19,.03-.74,.03-1.66v-11.83c-1.71-.02-2.82,.15-3.34,.52-.52,.37-.86,1.24-1.04,2.61-.07,.5-.21,.75-.43,.75-.2,0-.3-.25-.3-.75,0-.63,.1-1.86,.3-3.69h7.66c.68,0,2.06-.02,4.14-.06,.17,0,.41-.04,.69-.11l.03,.68,.1,1.16,.1,1.35,.07,.58c.02,.19,.03,.32,.03,.39Z"/>
  <path d="M556.45,228.98c0,1.22-.53,2.27-1.58,3.14-1.05,.87-2.32,1.31-3.81,1.31-1.12,0-2.27-.34-3.45-1.02-.13-.04-.22-.06-.26-.06-.13,0-.21,.1-.23,.31-.02,.21-.05,.39-.1,.54-.04,.15-.15,.23-.33,.23-.22,0-.33-.11-.33-.33,0-.04,.02-.37,.07-.99,.04-.61,.07-1.14,.07-1.58v-1.68c0-.42,.11-.62,.33-.62s.38,.34,.49,1.02c.42,2.41,1.71,3.62,3.88,3.62,1.84,0,2.76-.92,2.76-2.75,0-.81-.22-1.46-.66-1.96-.44-.5-1.29-1.07-2.56-1.7-1.67-.83-2.73-1.48-3.19-1.96-.59-.63-.89-1.42-.89-2.36,0-1.2,.44-2.19,1.32-2.96,.88-.77,1.98-1.16,3.32-1.16,.83,0,1.72,.25,2.66,.76,.11,.07,.2,.1,.26,.1,.15,0,.25-.16,.3-.48,.04-.32,.18-.48,.39-.48s.33,.11,.33,.33c0,.04-.01,.13-.03,.26-.04,.35-.07,.8-.07,1.35,0,.33,.03,.92,.1,1.78,.02,.09,.03,.19,.03,.3,0,.26-.09,.39-.26,.39-.2,0-.34-.2-.43-.59-.2-.96-.6-1.72-1.2-2.3-.6-.58-1.31-.86-2.12-.86-1.58,0-2.37,.84-2.37,2.52,0,.74,.21,1.35,.62,1.83,.22,.26,.46,.47,.72,.62,.26,.15,1.03,.54,2.3,1.15,1.42,.7,2.43,1.37,3.02,2.01s.89,1.4,.89,2.27Z"/>
</svg>