<?xml version="1.0" encoding="UTF-8"?>
<svg id="Layer_1" data-name="Layer 1" xmlns="http://www.w3.org/2000/svg" viewBox="0 0 1920 393.89">
  <defs>
    <style>
      .cls-1 {
        opacity: .22;
      }

      .cls-1, .cls-2, .cls-3, .cls-4, .cls-5, .cls-6, .cls-7, .cls-8, .cls-9, .cls-10, .cls-11, .cls-12, .cls-13, .cls-14, .cls-15, .cls-16, .cls-17, .cls-18, .cls-19, .cls-20, .cls-21, .cls-22, .cls-23, .cls-24, .cls-25, .cls-26, .cls-27 {
        isolation: isolate;
      }

      .cls-1, .cls-2, .cls-3, .cls-4, .cls-5, .cls-6, .cls-7, .cls-8, .cls-9, .cls-10, .cls-11, .cls-12, .cls-13, .cls-14, .cls-15, .cls-16, .cls-17, .cls-18, .cls-19, .cls-20, .cls-21, .cls-22, .cls-23, .cls-24, .cls-25, .cls-26, .cls-27, .cls-28, .cls-29, .cls-30, .cls-31, .cls-32, .cls-33, .cls-34, .cls-35, .cls-36, .cls-37, .cls-38, .cls-39, .cls-40, .cls-41, .cls-42, .cls-43, .cls-44, .cls-45, .cls-46, .cls-47, .cls-48, .cls-49, .cls-50, .cls-51, .cls-52, .cls-53, .cls-54, .cls-55, .cls-56, .cls-57, .cls-58, .cls-59, .cls-60, .cls-61, .cls-62, .cls-63, .cls-64, .cls-65, .cls-66, .cls-67, .cls-68, .cls-69, .cls-70, .cls-71, .cls-72, .cls-73, .cls-74, .cls-75, .cls-76, .cls-77, .cls-78, .cls-79, .cls-80, .cls-81, .cls-82, .cls-83, .cls-84, .cls-85, .cls-86, .cls-87, .cls-88, .cls-89, .cls-90, .cls-91, .cls-92, .cls-93, .cls-94, .cls-95, .cls-96, .cls-97, .cls-98, .cls-99, .cls-100, .cls-101, .cls-102, .cls-103, .cls-104, .cls-105, .cls-106, .cls-107, .cls-108, .cls-109, .cls-110, .cls-111, .cls-112, .cls-113, .cls-114, .cls-115, .cls-116, .cls-117, .cls-118, .cls-119, .cls-120, .cls-121, .cls-122, .cls-123, .cls-124, .cls-125, .cls-126, .cls-127, .cls-128, .cls-129, .cls-130, .cls-131, .cls-132, .cls-133, .cls-134, .cls-135, .cls-136, .cls-137, .cls-138, .cls-139, .cls-140, .cls-141, .cls-142, .cls-143, .cls-144, .cls-145, .cls-146, .cls-147, .cls-148, .cls-149, .cls-150, .cls-151, .cls-152, .cls-153, .cls-154, .cls-155, .cls-156, .cls-157, .cls-158, .cls-159, .cls-160, .cls-161, .cls-162, .cls-163, .cls-164, .cls-165, .cls-166, .cls-167, .cls-168, .cls-169, .cls-170, .cls-171, .cls-172, .cls-173, .cls-174, .cls-175, .cls-176, .cls-177, .cls-178, .cls-179, .cls-180, .cls-181, .cls-182, .cls-183, .cls-184, .cls-185, .cls-186 {
        fill-rule: evenodd;
      }

      .cls-1, .cls-161 {
        fill: #8b8b8b;
      }

      .cls-2 {
        fill: #636664;
        opacity: .16;
      }

      .cls-3 {
        fill: #676767;
        opacity: .27;
      }

      .cls-4 {
        opacity: .33;
      }

      .cls-4, .cls-11 {
        fill: #8a8a8a;
      }

      .cls-5 {
        opacity: .87;
      }

      .cls-5, .cls-6 {
        fill: #030403;
      }

      .cls-6 {
        opacity: .85;
      }

      .cls-7 {
        fill: #050605;
      }

      .cls-7, .cls-8 {
        opacity: .84;
      }

      .cls-8 {
        fill: #69a06a;
      }

      .cls-9 {
        opacity: .8;
      }

      .cls-9, .cls-10, .cls-22 {
        fill: #020202;
      }

      .cls-10, .cls-11 {
        opacity: .78;
      }

      .cls-12 {
        fill: #aeaeae;
        opacity: .52;
      }

      .cls-13 {
        fill: #d5d5d5;
        opacity: .87;
      }

      .cls-14 {
        fill: #485749;
        opacity: .88;
      }

      .cls-15 {
        fill: #bcbcbc;
        opacity: .5;
      }

      .cls-16 {
        opacity: .5;
      }

      .cls-16, .cls-149 {
        fill: #7f7f7f;
      }

      .cls-17, .cls-18 {
        opacity: .55;
      }

      .cls-17, .cls-152 {
        fill: #656565;
      }

      .cls-18 {
        fill: #707070;
      }

      .cls-19 {
        fill: #535353;
      }

      .cls-19, .cls-20 {
        opacity: .67;
      }

      .cls-20 {
        fill: #868686;
      }

      .cls-21 {
        fill: #4b8851;
        opacity: .93;
      }

      .cls-22 {
        opacity: .96;
      }

      .cls-23 {
        fill: #a6c9a8;
      }

      .cls-23, .cls-24 {
        opacity: 1;
      }

      .cls-24 {
        fill: #87ba8a;
      }

      .cls-25 {
        opacity: .79;
      }

      .cls-25, .cls-116 {
        fill: #dadada;
      }

      .cls-26 {
        fill: #484948;
        opacity: .71;
      }

      .cls-27 {
        fill: #8c8c8c;
        opacity: .12;
      }

      .cls-28 {
        fill: #f8f8f8;
      }

      .cls-29 {
        fill: #3b3b3b;
      }

      .cls-30 {
        fill: #346e3c;
      }

      .cls-31 {
        fill: #3a7a42;
      }

      .cls-32 {
        fill: #2b5530;
      }

      .cls-33 {
        fill: #484848;
      }

      .cls-34 {
        fill: #3c3c3c;
      }

      .cls-35 {
        fill: #575757;
      }

      .cls-36 {
        fill: #2b2b2b;
      }

      .cls-37 {
        fill: #2e2e2e;
      }

      .cls-38 {
        fill: #637664;
      }

      .cls-39 {
        fill: #629472;
      }

      .cls-40 {
        fill: #636363;
      }

      .cls-41 {
        fill: #63936f;
      }

      .cls-42 {
        fill: #4c4c4c;
      }

      .cls-43 {
        fill: #528a59;
      }

      .cls-44 {
        fill: #5f5f5f;
      }

      .cls-45 {
        fill: #616161;
      }

      .cls-46 {
        fill: #767676;
      }

      .cls-47 {
        fill: #48934f;
      }

      .cls-48 {
        fill: #777;
      }

      .cls-49 {
        fill: #76ac7b;
      }

      .cls-50 {
        fill: #60a064;
      }

      .cls-51 {
        fill: #71b771;
      }

      .cls-52 {
        fill: #5d8760;
      }

      .cls-53 {
        fill: #555;
      }

      .cls-54 {
        fill: #77ac79;
      }

      .cls-55 {
        fill: #757575;
      }

      .cls-56 {
        fill: #273728;
      }

      .cls-57 {
        fill: #343434;
      }

      .cls-58 {
        fill: #81bb83;
      }

      .cls-59 {
        fill: #4d4d4d;
      }

      .cls-60 {
        fill: #4d9e56;
      }

      .cls-61 {
        fill: #9a9a99;
      }

      .cls-62 {
        fill: #898989;
      }

      .cls-63 {
        fill: #87a288;
      }

      .cls-64 {
        fill: #46854c;
      }

      .cls-65 {
        fill: #545454;
      }

      .cls-66 {
        fill: #45894c;
      }

      .cls-67 {
        fill: #455c46;
      }

      .cls-68 {
        fill: #6f6f6f;
      }

      .cls-69 {
        fill: #a2a1a1;
      }

      .cls-70 {
        fill: #1a1a1a;
      }

      .cls-71 {
        fill: #1b1b1b;
      }

      .cls-72 {
        fill: #181818;
      }

      .cls-73 {
        fill: #3e3e3e;
      }

      .cls-74 {
        fill: #0a0a0a;
      }

      .cls-75 {
        fill: #43894a;
      }

      .cls-76 {
        fill: #363636;
      }

      .cls-77 {
        fill: #191919;
      }

      .cls-78 {
        fill: #0f0f0f;
      }

      .cls-79 {
        fill: #1c1c1c;
      }

      .cls-80 {
        fill: #101010;
      }

      .cls-81 {
        fill: #101210;
      }

      .cls-82 {
        fill: #1d1d1d;
      }

      .cls-83 {
        fill: #111;
      }

      .cls-84 {
        fill: #0e0e0e;
      }

      .cls-85 {
        fill: #141714;
      }

      .cls-86 {
        fill: #080808;
      }

      .cls-87 {
        fill: #151515;
      }

      .cls-88 {
        fill: #090909;
      }

      .cls-89 {
        fill: #141414;
      }

      .cls-90 {
        fill: #3f7b46;
      }

      .cls-91 {
        fill: #6da26f;
      }

      .cls-92 {
        fill: #a2c9a7;
      }

      .cls-93 {
        fill: #a2cdac;
      }

      .cls-94 {
        fill: #121613;
      }

      .cls-95 {
        fill: #171f18;
      }

      .cls-96 {
        fill: #131313;
      }

      .cls-97 {
        fill: #131213;
      }

      .cls-98 {
        fill: #121212;
      }

      .cls-99 {
        fill: #204a23;
      }

      .cls-100 {
        fill: #0c0d0c;
      }

      .cls-101 {
        fill: #0c0e0c;
      }

      .cls-102 {
        fill: #0b0b0b;
      }

      .cls-103 {
        fill: #202020;
      }

      .cls-104 {
        fill: #222;
      }

      .cls-105 {
        fill: #1f1f1f;
      }

      .cls-106 {
        fill: #1e1e1e;
      }

      .cls-107 {
        fill: #171717;
      }

      .cls-108 {
        fill: #171716;
      }

      .cls-109 {
        fill: #161616;
      }

      .cls-110 {
        fill: #c8c8c7;
      }

      .cls-111 {
        fill: #d6d6d5;
      }

      .cls-112 {
        fill: #d6d5d6;
      }

      .cls-113 {
        fill: #dcdcdc;
      }

      .cls-114 {
        fill: #dbdbdb;
      }

      .cls-115 {
        fill: #dbdcdc;
      }

      .cls-117 {
        fill: #dadbdb;
      }

      .cls-118 {
        fill: #d8e5d6;
      }

      .cls-119 {
        fill: #e0e0e0;
      }

      .cls-120 {
        fill: #c7c6c6;
      }

      .cls-121 {
        fill: #dedede;
      }

      .cls-122 {
        fill: #c9cac9;
      }

      .cls-123 {
        fill: #cacaca;
      }

      .cls-124 {
        fill: #c6dbc8;
      }

      .cls-125 {
        fill: #c4c3c3;
      }

      .cls-126 {
        fill: #c3c2c3;
      }

      .cls-127 {
        fill: #d1d1d1;
      }

      .cls-128 {
        fill: #ddd;
      }

      .cls-129 {
        fill: #bebdbe;
      }

      .cls-130 {
        fill: #bebebd;
      }

      .cls-131 {
        fill: #abaaaa;
      }

      .cls-132 {
        fill: #bdbdbd;
      }

      .cls-133 {
        fill: #a9caaa;
      }

      .cls-134 {
        fill: #a9caac;
      }

      .cls-135 {
        fill: #bbbbba;
      }

      .cls-136 {
        fill: #a7c7a8;
      }

      .cls-137 {
        fill: #bcbbbb;
      }

      .cls-138 {
        fill: #a9a9a9;
      }

      .cls-139 {
        fill: #a8cda8;
      }

      .cls-140 {
        fill: #a5c9a8;
      }

      .cls-141 {
        fill: #cdcccc;
      }

      .cls-142 {
        fill: #a5a5a5;
      }

      .cls-143 {
        fill: #aaa;
      }

      .cls-144 {
        fill: #aaaaa9;
      }

      .cls-145 {
        fill: #a7a7a6;
      }

      .cls-146 {
        fill: #b0b0b0;
      }

      .cls-147 {
        fill: #6b6b6b;
      }

      .cls-148 {
        fill: #6a9f6c;
      }

      .cls-150 {
        fill: #7eb984;
      }

      .cls-151 {
        fill: #98b99c;
      }

      .cls-153 {
        fill: #7fb082;
      }

      .cls-154 {
        fill: #7c7c7c;
      }

      .cls-155 {
        fill: #8dae91;
      }

      .cls-156 {
        fill: #8dd094;
      }

      .cls-157 {
        fill: #8dcb8f;
      }

      .cls-158 {
        fill: #b7d7b9;
      }

      .cls-159 {
        fill: #b7d8b9;
      }

      .cls-160 {
        fill: #8ac68c;
      }

      .cls-162 {
        fill: #929292;
      }

      .cls-163 {
        fill: #84be88;
      }

      .cls-164 {
        fill: #84bf85;
      }

      .cls-165 {
        fill: #84bf86;
      }

      .cls-166 {
        fill: #b4b3b4;
      }

      .cls-167 {
        fill: #89c38c;
      }

      .cls-168 {
        fill: #b7b6b7;
      }

      .cls-169 {
        fill: #b7b7b6;
      }

      .cls-170 {
        fill: #9dc5a1;
      }

      .cls-171 {
        fill: #9d9d9d;
      }

      .cls-172 {
        fill: #9cbd9d;
      }

      .cls-173 {
        fill: #89b78c;
      }

      .cls-174 {
        fill: #8db68e;
      }

      .cls-175 {
        fill: #c2c2c1;
      }

      .cls-176 {
        fill: #72a675;
      }

      .cls-177 {
        fill: #666;
      }

      .cls-178 {
        fill: #e8e7e7;
      }

      .cls-179 {
        fill: #e8e8e8;
      }

      .cls-180 {
        fill: #e7e7e7;
      }

      .cls-181 {
        fill: #e9e8e9;
      }

      .cls-182 {
        fill: #e6e6e6;
      }

      .cls-183 {
        fill: #e5e5e5;
      }

      .cls-184 {
        fill: #fbfbfb;
      }

      .cls-185 {
        fill: #e2e2e2;
      }

      .cls-186 {
        fill: #689b6a;
      }
    </style>
  </defs>
  <g>
    <path d="M147.77,347.08c-13.15,0-26.29-.53-38.39-2.1-11.57-1.58-23.14-3.68-34.71-6.31-5.78,3.16-12.1,5.26-18.41,6.31-7.36,1.58-15.25,2.1-24.19,2.1s-16.3-1.58-21.56-4.73c-8.41-4.73-10.52-11.57-10.52-16.83,0-5.78,2.1-14.2,13.67-19.98,7.36-3.68,16.83-5.78,28.92-5.78,4.21,0,9.47,.53,14.72,1.05,4.21,.53,9.47,1.58,14.72,2.63,23.14-13.67,47.33-54.69,70.99-121.48,4.73-13.15,8.41-23.14,11.04-29.98,15.25-41.02,31.03-70.99,46.28-89.93,16.3-19.98,34.71-29.98,54.17-29.98,13.15,0,23.66,4.73,32.08,13.67,7.89,8.94,11.57,20.51,11.57,34.71,0,16.3-4.73,36.29-14.2,58.37-9.47,22.09-23.14,45.23-40.49,69.94l-2.1,2.63-48.38,8.41,12.1-15.78c18.93-24.72,33.66-48.38,44.17-70.47,9.99-21.56,15.25-39.44,15.25-54.17,0-5.26-1.05-8.94-3.16-11.57-1.58-2.1-4.21-3.16-7.36-3.16-10.52,0-21.56,8.41-32.6,24.72-12.1,17.88-25.77,47.86-39.97,89.4-16.83,48.38-31.03,82.56-42.6,100.97-7.89,12.62-16.3,23.14-26.29,32.08,2.1,0,4.21,.53,6.84,.53,8.94,.53,19.46,1.05,29.98,1.05,17.35,0,34.18-1.05,49.43-2.63,15.25-1.58,28.92-4.21,41.02-7.36l15.25-4.21-15.25,38.92-4.21,.53c-14.72,2.63-29.45,4.21-44.17,5.78-15.78,2.1-29.98,2.63-43.65,2.63Z"/>
    <path d="M289.24,346.56c-14.2,0-25.77-5.26-34.18-16.3-7.89-9.99-12.1-24.19-12.1-40.49,0-18.93,4.73-36.81,14.72-54.17,9.47-16.83,23.14-32.08,39.97-44.17,7.89-5.78,16.3-9.99,25.24-14.2,9.47-4.21,16.3-5.78,21.56-5.78,4.21,0,7.36,1.58,9.99,4.73,2.1,2.63,3.68,6.31,3.68,9.99,0,4.21-2.1,7.36-4.73,9.99,3.16-1.58,6.84-2.1,9.99-2.1,7.36,0,14.2,3.16,18.93,9.99,4.21,5.78,6.31,13.15,6.31,21.56,0,8.94-2.1,19.98-6.84,31.55-2.1,5.26-4.21,10.52-6.84,15.25,5.78-3.68,14.2-9.47,24.72-17.35l12.62-9.99v36.29l-3.16,2.1c-12.1,9.47-21.56,15.78-29.45,19.98-8.41,4.21-16.3,6.31-23.66,6.31-1.05,0-3.16,0-5.78-.53-9.99,11.57-19.98,19.98-29.45,26.29-10.52,7.89-21.04,11.04-31.55,11.04Zm51.54-142.51c-7.89,3.68-14.72,6.84-19.98,10.52-12.62,8.41-23.14,19.98-31.55,34.71-8.41,14.2-12.62,27.87-12.62,41.02,0,7.89,2.1,14.2,5.78,19.46,3.16,4.21,6.31,6.31,10.52,6.31s9.47-2.1,15.25-5.78c5.78-4.21,12.1-9.99,18.93-17.88-2.1-4.21-4.21-8.94-5.78-13.15-2.1-5.78-2.63-12.62-2.63-18.93,0-15.78,4.73-30.5,13.67-44.17,3.68-5.26,7.36-9.47,11.04-12.62-1.58-.53-2.1,0-2.63,.53Zm16.83,26.82c-.53,1.05-1.58,2.63-3.16,5.26-2.63,5.78-4.73,12.1-4.73,18.41,1.58-3.16,2.63-5.78,3.68-8.94,2.63-6.84,3.68-11.57,4.21-14.72Z"/>
    <path d="M433.85,346.56c-14.2,0-25.77-5.26-34.18-16.3-7.89-9.99-12.1-24.19-12.1-40.49,0-18.93,4.73-36.81,14.72-54.17,9.47-16.83,23.14-32.08,39.97-44.17,7.89-5.78,16.3-9.99,25.24-14.2,9.47-4.21,16.3-5.78,21.56-5.78,4.21,0,7.36,1.58,9.99,4.73,2.1,2.63,3.68,6.31,3.68,9.99,0,4.21-2.1,7.36-4.73,9.99,3.16-1.58,6.84-2.1,9.99-2.1,7.36,0,14.2,3.16,18.93,9.99,4.21,5.78,6.31,13.15,6.31,21.56,0,8.94-2.1,19.98-6.84,31.55-2.1,5.26-4.21,10.52-6.84,15.25,5.78-3.68,14.2-9.47,24.72-17.35l12.62-9.99v36.29l-3.16,2.1c-12.1,9.47-21.56,15.78-29.45,19.98-8.41,4.21-16.3,6.31-23.66,6.31-1.05,0-3.16,0-5.78-.53-9.99,11.57-19.98,19.98-29.45,26.29-10.52,7.89-21.04,11.04-31.55,11.04Zm51.54-142.51c-7.89,3.68-14.72,6.84-19.98,10.52-12.62,8.41-23.14,19.98-31.55,34.71-8.41,14.2-12.62,27.87-12.62,41.02,0,7.89,2.1,14.2,5.78,19.46,3.16,4.21,6.31,6.31,10.52,6.31s9.47-2.1,15.25-5.78c5.78-4.21,12.1-9.99,18.93-17.88-2.1-4.21-4.21-8.94-5.78-13.15-2.1-5.78-2.63-12.62-2.63-18.93,0-15.78,4.73-30.5,13.67-44.17,3.68-5.26,7.36-9.47,11.04-12.62-1.05-.53-2.1,0-2.63,.53Zm17.35,26.82c-.53,1.05-1.58,2.63-3.16,5.26-2.63,5.78-4.73,12.1-4.73,18.41,1.58-3.16,2.63-5.78,3.68-8.94,2.63-6.84,3.68-11.57,4.21-14.72Z"/>
    <path d="M638.42,346.56c-12.1,0-22.09-3.68-29.45-11.04-7.89-7.36-12.1-17.35-12.1-28.92,0-5.78,1.05-11.57,3.16-17.35,.53-2.1,1.58-4.21,2.63-6.31-8.41,10.52-17.35,22.09-27.35,34.71-20.51,26.82-26.29,28.92-31.03,28.92-4.21,0-7.36-1.05-9.99-3.16-3.16-2.63-4.73-6.31-4.73-9.99s1.05-9.99,9.99-28.4l1.05-1.58,6.31-13.15c-.53,.53-1.58,1.05-2.1,1.58l-12.1,6.84v-34.71l3.16-2.1c11.04-7.89,20.51-16.3,28.4-24.19,10.52-10.52,12.62-14.2,12.62-14.72l77.3-170.91c4.21-9.99,7.89-16.83,11.04-21.04,4.21-5.26,8.94-7.89,14.72-7.89,4.21,0,7.89,1.58,11.04,5.26,2.63,3.16,3.68,6.84,3.68,11.04,0,5.78-3.16,18.93-26.82,66.79-10.52,21.04-18.41,37.34-24.19,49.96l-33.13,70.47c13.15-14.2,23.14-24.19,31.55-31.03,15.78-12.62,30.5-18.93,43.65-18.93,8.94,0,16.3,3.16,22.09,8.94,5.26,5.78,7.89,13.67,7.89,23.14,0,17.88-8.41,35.76-24.19,52.06-14.72,15.25-34.71,26.29-58.9,34.18-.53,1.58-1.58,3.16-1.58,4.73-.53,2.1-1.05,4.21-1.05,5.78,0,3.16,.53,5.26,2.63,6.84,1.58,1.58,4.21,2.63,8.41,2.63,3.16,0,18.41-4.21,84.14-55.74l16.3-12.1v36.29l-3.16,2.1c-68.89,54.17-89.4,61-99.92,61Zm42.07-136.2c-1.05,0-6.84,.53-23.14,14.72-12.1,10.52-26.29,25.24-42.07,43.65,19.46-5.78,35.76-14.72,48.38-26.29,12.1-11.04,17.88-21.04,17.88-29.98v-1.58q-.53-.53-1.05-.53Z"/>
    <path d="M1236.35,346.56c-10.52,0-18.41-2.63-24.19-8.41-5.78-5.78-8.94-13.67-8.94-23.66,0-5.26,1.05-11.04,3.16-17.88,.53-2.1,1.05-4.21,2.1-5.78l-12.62,7.36v-34.71l3.16-2.1c10.52-7.89,19.98-15.78,28.4-23.66,10.52-9.99,12.62-14.2,13.15-15.25l19.46-42.6h35.23l-53.11,117.8c-2.1,4.21-3.16,7.36-4.21,10.52-.53,2.63-1.05,4.73-1.05,6.31v1.58h2.1c8.41,0,17.88-4.73,28.92-13.67,11.57-9.47,22.61-22.61,33.13-38.92,4.21-22.09,10.52-41.54,18.93-58.37,10.52-19.98,18.93-28.4,28.4-28.4,1.58,0,6.84,.53,9.99,6.84,1.05,2.63,2.1,5.78,2.1,10.52,0,9.47-2.63,21.56-8.41,36.29-5.26,13.15-11.57,26.29-19.98,39.97,.53,.53,1.58,1.58,2.63,2.1,2.63,1.58,5.78,2.1,9.99,2.1,4.73,0,9.47-1.05,14.72-3.68,5.78-3.16,13.15-8.41,22.61-15.78l13.15-10.52v36.81l-2.63,2.1c-7.36,6.31-15.78,11.57-24.19,15.25-8.94,3.68-17.35,5.78-25.24,5.78-6.84,0-13.15-1.58-18.41-4.21-3.16-1.05-5.78-3.16-8.41-4.73-11.57,14.72-23.66,26.29-35.76,34.71-15.25,11.57-29.98,16.3-44.17,16.3Z"/>
    <path d="M1385.7,348.13c-3.68,0-8.41-1.05-12.62-6.84-2.63-3.68-3.68-7.89-3.68-13.15,0-2.63,.53-5.78,1.58-8.94,1.05-3.16,2.1-6.31,4.21-9.47l9.47-18.93c-.53,0-13.15,7.36-13.15,7.36v-34.71l3.16-2.1c10.52-7.89,19.98-15.25,27.87-23.14,9.99-9.99,12.62-14.2,13.67-15.78l20.51-42.07h35.23s-43.65,92.56-56.8,120.43c2.1-1.58,4.73-3.16,7.36-5.26,12.62-8.94,29.45-22.09,49.43-37.86l12.62-9.99v37.34l-12.62,9.99c-61,46.8-78.36,53.11-86.24,53.11Zm77.3-181.43c-6.31,0-10.52-2.63-12.62-5.26-3.16-3.16-4.73-7.36-4.73-12.62,0-7.36,2.1-14.2,6.84-21.04,5.26-7.36,11.57-11.04,18.41-11.04,5.26,0,9.47,1.58,12.62,5.26,3.16,3.16,4.73,7.89,4.73,12.62,0,7.89-2.1,15.25-6.31,21.04-4.73,7.89-11.57,11.04-18.93,11.04Z"/>
    <path d="M1495.09,346.56c-7.36,0-12.62-2.1-16.83-5.78-4.21-3.68-5.78-9.47-5.78-16.3,0-5.26,2.1-12.62,6.31-22.61,1.58-3.16,2.63-5.26,3.16-7.36l4.73-11.57c-4.21,3.16-7.89,5.78-12.1,7.89l-12.1,7.36v-34.71l3.16-2.1c13.15-9.99,24.19-19.46,33.66-27.87,12.1-11.04,13.67-13.67,13.67-13.67l20.51-50.48h-39.97l14.72-28.92h37.34l22.61-54.69c.53-1.05,1.05-2.1,1.58-4.21,8.41-21.56,15.78-29.98,24.72-29.98,5.26,0,8.94,2.1,11.04,4.21,3.16,2.63,4.73,6.31,4.73,10.52,0,3.16-.53,6.31-2.1,11.04-1.05,4.21-3.16,8.94-5.78,15.25l-19.98,47.86h30.5l-11.04,28.92h-31.03l-52.59,127.79c-.53,1.05-1.05,2.63-2.1,5.26-2.1,4.21-2.63,6.84-3.16,8.41,4.73-2.63,17.88-10.52,54.17-37.86l33.66-25.77v41.02h-5.26c-70.47,52.06-90.45,58.37-100.44,58.37Z"/>
    <path d="M1611.31,346.56c-8.41,0-16.3-2.1-23.14-5.78-7.89-4.73-12.1-10.52-12.1-17.88,0-4.73,2.63-8.41,6.84-10.52,2.63-1.05,6.31-2.1,11.04-2.1,2.1,0,5.78,.53,11.57,1.05,5.26,.53,9.47,.53,12.62,.53,1.05,0,4.73,0,13.67-1.05h.53c7.89-9.99,14.2-23.14,18.41-38.39,3.16-12.1,5.26-26.29,6.31-42.6-11.57,12.62-22.61,23.14-32.6,32.6-14.2,13.15-26.29,22.61-36.29,28.92l-12.1,7.36v-34.71l3.16-2.1c15.78-12.1,31.03-25.77,45.75-39.97,13.67-14.2,26.82-28.92,38.39-44.7,2.63-11.57,5.78-20.51,9.47-26.29,6.31-9.47,13.67-11.57,18.93-11.57,4.73,0,9.47,2.1,13.15,5.78,3.68,3.68,5.26,8.41,5.26,13.15,0,5.78-2.1,12.1-6.84,19.46-3.68,5.78-8.41,11.04-14.2,17.35v12.1c0,25.77-2.63,49.43-7.36,69.42-2.1,8.41-4.21,15.78-6.31,22.09,1.58-1.05,3.16-2.1,4.73-2.63,10.52-6.31,27.35-18.93,50.48-37.86l12.62-10.52v37.34l-3.16,2.1c-25.24,19.46-43.65,32.08-57.32,38.39-13.15,6.31-25.77,9.99-38.39,11.04-7.89,3.68-14.2,5.78-18.93,7.36-4.21,2.1-9.47,2.63-14.2,2.63Z"/>
    <path d="M1820.61,348.13c-3.16,0-7.36-1.05-11.57-5.26-3.16-3.16-4.73-7.36-4.73-12.1v-2.1c-1.05,1.05-2.63,2.1-3.68,3.68-11.57,9.99-23.66,14.72-35.23,14.72-13.15,0-23.66-5.26-31.55-16.3-7.36-9.99-11.57-23.14-11.57-38.92,0-11.57,2.1-22.61,6.31-32.6,4.21-9.99,11.04-19.98,19.46-29.98,14.2-15.78,31.55-28.4,51.01-37.34,19.98-9.47,39.44-14.2,57.85-14.2,7.89,0,15.25,.53,21.04,2.63,6.31,1.58,12.62,4.21,18.41,7.89l4.21,2.63-1.58,34.71-10.52-7.36-38.92,83.62c2.63-1.58,5.26-3.68,7.89-5.78,12.62-8.94,29.45-22.09,49.96-37.86l12.62-9.99v37.34l-8.41,6.31c-64.68,49.43-82.56,56.27-90.98,56.27Zm36.81-140.94c-14.2,0-28.92,3.68-44.7,11.04-15.78,7.36-28.92,16.83-38.39,28.4-6.31,7.36-11.04,14.72-14.2,22.61-3.16,7.36-4.73,15.25-4.73,22.09,0,7.89,1.58,13.67,4.73,17.88,2.63,3.68,5.78,5.26,9.99,5.26,3.16,0,11.04-2.1,25.77-18.41,12.62-13.67,33.13-41.02,61-82.04l2.63-3.68,21.04,2.1c-2.1-1.05-4.73-2.1-6.84-2.63-5.78-2.1-11.04-2.63-16.3-2.63Z"/>
  </g>
  <path class="cls-6" d="M1000.23,8.94c0-.53-.53-.53-1.05-1.05-6.31-2.63-12.62-3.68-19.46-2.63,1.58-1.05,3.16-2.1,4.73-2.63-13.15-1.05-24.72,2.63-34.18,12.62-2.63,1.58-4.73,3.16-6.84,5.26-3.16,2.63-5.78,5.26-8.41,7.89h-1.05c1.58-3.68,3.68-6.84,6.31-9.99,7.36-7.89,15.78-13.67,25.77-16.83,3.16-1.05,5.78-1.58,8.94-1.58,5.26,1.05,10.52,1.58,15.78,2.1,3.68,.53,6.84,2.1,9.47,5.26,1.05,1.05,.53,1.58,0,1.58Z"/>
  <path class="cls-158" d="M999.18,7.89c0,.53-.53,.53-1.05,.53-2.63-1.58-5.26-2.1-7.89-2.1-3.16,.53-6.84,1.05-9.99,2.1-2.1-.53-4.21,0-6.31,1.05-4.21,.53-7.89,1.58-12.1,2.63-2.63,1.05-4.73,2.1-6.84,3.68l.53,.53c1.58,0,3.68,0,5.26-.53,1.58-1.05,3.16-1.58,4.73-1.05-1.58,0-3.16,1.05-4.21,2.63-1.58,0-2.63,1.05-3.68,2.1-.53,.53-1.05,.53-1.58,1.05,0,0-.53,0-.53-.53s0-.53,.53-1.05c-.53-.53-1.05-.53-2.1,0-3.16,2.1-6.84,4.21-10.52,6.31-.53,0-.53-.53-1.05-1.05,.53-1.05,.53-2.1,.53-3.16,2.1-2.1,4.21-3.68,6.84-5.26,9.47-9.47,21.04-13.67,34.18-12.62-1.58,.53-3.16,1.58-4.73,2.63,7.36-1.58,13.67-.53,19.98,2.1Z"/>
  <path class="cls-101" d="M970.25,5.78h4.21c0,1.05,0,1.58-1.05,2.1-6.84,.53-13.67,2.1-19.98,5.78h-.53c3.16-2.1,5.78-4.21,8.94-5.78,3.16-1.05,5.78-1.58,8.41-2.1Z"/>
  <path class="cls-9" d="M998.65,8.41c0,.53,.53,1.05,1.05,1.05,0,1.05,0,1.58-1.05,1.58-3.16-2.1-6.31-2.63-9.47-2.1-6.84,3.16-13.67,4.73-20.51,5.26v-1.05c4.21-1.05,8.41-2.63,12.1-4.73,3.16-1.05,6.31-1.58,9.99-2.1,2.63,0,5.26,.53,7.89,2.1Z"/>
  <path class="cls-2" d="M999.18,7.89c.53,0,.53,.53,1.05,1.05q0,.53-.53,.53c-.53,0-1.05,0-1.05-1.05q.53,0,.53-.53Z"/>
  <path class="cls-41" d="M980.77,8.41c-4.21,2.1-7.89,3.16-12.1,4.73v-1.05c2.1-.53,3.68-1.05,5.78-2.1l.53-.53c1.58-1.58,3.68-1.58,5.78-1.05Z"/>
  <path class="cls-94" d="M974.46,8.94s0,.53-.53,.53c-2.1,.53-3.68,1.58-5.78,2.1-2.1,.53-4.21,.53-5.78,0,4.21-1.05,7.89-1.58,12.1-2.63Z"/>
  <path class="cls-22" d="M882.43,51.01c-.53,3.16-.53,6.84,0,10.52,.53-1.05,.53-2.63,1.05-4.21l.53,.53c-.53,6.84,1.05,13.15,4.21,18.93-.53-3.16-1.58-6.31-2.63-8.94-.53-3.68-1.05-7.36-1.58-10.52q0-.53,.53-1.05v1.05c.53,1.58,.53,3.16,1.05,4.73,0,.53,.53,1.05,1.05,1.58v-1.05c1.05,.53,1.58,1.58,2.1,2.63q.53-.53,1.05,0c2.1,3.68,4.21,7.89,5.78,11.57,1.05,2.1,2.63,4.21,4.21,5.78-1.05-2.1-2.1-3.68-3.68-5.78-1.58-3.68-3.68-7.36-5.78-10.52-1.58-4.21-3.16-8.41-4.73-12.62q0-.53-.53-1.05v-1.05c.53,0,1.05,1.05,1.58,1.58,0-2.1-.53-4.21-1.58-5.78-.53-2.63-.53-5.78,0-8.94,.53-1.05,1.05-1.58,2.1-1.05,1.05,0,2.1,.53,2.63,1.05-.53,2.63-1.05,5.26-1.05,7.89s.53,5.26,1.58,7.89c3.68,7.89,7.89,15.25,13.15,22.09q0,.53-.53,.53c-1.58-1.58-3.68-3.16-4.73-5.26-3.68-5.78-6.84-11.57-9.99-17.35,2.63,6.84,5.26,13.15,8.94,18.93,2.1,2.1,3.68,4.21,6.31,5.78,1.58,2.1,2.63,3.68,4.73,5.26,0-1.58,.53-2.63,1.05-4.21q0-.53-.53-1.05c-1.05-2.1-1.58-4.73-2.1-6.84-.53-9.99-3.16-18.93-8.94-26.82-.53-1.58-1.05-2.63-1.58-4.21-.53-4.73-1.05-9.47-1.05-14.2-.53-3.68,.53-6.84,3.16-9.47,2.63-1.58,4.73-2.1,7.36-.53,1.05,1.05,2.1,1.58,3.16,2.63,4.21-.53,6.31,1.05,7.36,5.78,.53,2.1,.53,4.73,0,6.84-1.05,4.21-2.1,7.89-3.16,12.1-1.05,4.73-.53,9.99,0,14.72-.53,1.05-.53,2.1,0,3.16,.53-1.05,1.05-1.58,1.05-3.16,1.58-5.26,3.68-10.52,5.26-16.3,2.63-6.84,7.36-10.52,13.67-12.62-3.16,3.68-6.31,7.36-9.47,10.52-3.68,7.36-6.84,15.25-8.94,23.14v14.2c-1.05-2.1-1.58-4.21-2.1-6.84-.53-5.78-1.05-12.1-2.1-17.88-.53-3.16,0-6.31,0-9.47,.53-3.16,1.05-5.78,1.05-8.94-.53-3.16-1.58-6.31-3.68-9.47,.53-.53,.53-1.58,0-2.1q-.53-.53-1.05,0c-1.05,.53-1.05,1.05-1.05,2.1,.53,1.58,1.05,3.68,2.1,4.73,.53,5.26,.53,10.52,.53,15.78,1.58,9.99,2.63,19.98,4.21,29.98,0,.53-.53,.53-1.05,0-1.05-6.31-1.58-12.62-2.1-18.93-.53-2.63-1.05-4.73-1.58-6.84-.53-2.1-1.05-3.68-1.58-5.78,0-3.68-.53-7.36-1.05-11.04-.53-1.05-.53-2.1-1.05-3.16-1.05-3.16-2.1-5.78-3.16-8.94-1.05-.53-1.58,0-1.58,1.05-.53,2.1,0,3.68,1.05,5.78h1.05c.53,2.1,1.05,4.73,1.58,6.84,0,5.26,1.58,10.52,3.68,15.78,1.05,8.41,2.1,17.35,3.16,25.77,.53,3.16,1.05,5.78,1.58,8.94,0,1.58,.53,3.68,1.05,5.26,.53-2.1,.53-4.21,.53-6.31v-3.16c1.05,2.1,1.58,4.73,2.1,6.84,0-3.16,0-6.84-.53-9.99,0-2.1,0-3.68-.53-5.26,.53-3.16,1.05-6.84,2.1-9.99,2.63-5.78,5.26-11.04,7.89-16.3,6.31-7.89,12.62-15.25,19.46-22.61,3.68-2.1,6.84-4.21,10.52-6.31,.53-.53,1.58,0,2.1,0,0,.53-.53,.53-.53,1.05-1.58,1.58-3.16,3.16-4.21,4.73-6.31,4.73-12.1,9.99-17.88,15.78-1.58,2.63-3.16,5.26-4.73,8.41-1.58,2.1-2.63,4.21-4.21,6.31,1.05-3.68,3.16-6.84,4.73-9.99,0-.53-.53-.53-.53,0-4.73,7.89-8.41,15.78-11.04,24.19q0,.53,.53,1.05c-.53,5.26,0,9.99,2.63,14.72,2.63-1.05,5.26-2.1,8.41-3.16,6.31,0,12.62,1.58,18.93,3.68,2.1,1.05,4.21,3.16,5.26,5.26,0,.53-.53,1.05-1.58,1.58-4.21-2.1-8.41-3.16-13.15-2.1-3.68,1.05-5.26,3.68-4.21,7.89,3.68,4.73,7.89,8.41,13.15,11.57,8.41,5.78,17.88,8.94,27.87,9.99,8.94,.53,17.35,1.58,26.29,3.16,12.62,3.16,25.24,6.84,37.34,11.57,1.58,.53,3.16,1.58,4.21,2.63,3.68,3.16,7.36,6.84,11.04,9.99,4.73,3.68,9.47,6.84,14.2,10.52,5.26,5.26,9.47,11.04,12.62,17.35,4.73,12.62,8.94,25.24,12.1,38.39,0,4.73-.53,8.94-1.58,13.67-1.05,16.83-4.73,33.13-12.1,48.38-3.68,7.89-7.89,15.78-12.62,23.14-.53,0-1.05,.53-1.05,1.05,.53,.53,1.05,0,1.58,0,14.72-.53,29.45,0,44.17,.53,3.16,0,5.78,1.05,8.41,3.16-1.05,.53-2.1,.53-3.16,1.05h-7.36c-13.67-.53-27.87-.53-41.54-.53-2.63-.53-4.73,.53-5.78,2.63-.53,0-1.05,.53-1.05,1.05,.53,.53,1.05,0,1.58,0h28.4c7.89,0,15.25,2.63,21.56,7.36,4.73,.53,9.99,1.58,14.72,2.63,2.63,.53,4.73,1.58,7.36,3.16,1.58,1.05,1.58,2.63,0,3.68-5.78,2.1-12.1,3.68-18.41,4.21-7.36,0-14.72,.53-21.56,.53-2.1,.53-4.21,.53-5.78,1.58-.53-.53-1.05-.53-1.58,0,.53,.53,1.05,1.05,2.1,1.05,13.67,.53,26.82,1.58,40.49,4.21,2.63,.53,2.63,1.58,0,2.1-1.58,.53-3.68,.53-5.78,1.05-7.89,0-15.25,.53-23.14,1.05-3.68,.53-7.36,1.58-11.04,3.68q-2.63,1.05,0,1.05c13.15,1.58,26.29,3.16,39.44,4.73,1.58,0,3.16,.53,4.73,1.05,.53,.53,.53,1.05,0,1.58-1.05,.53-1.58,.53-2.63,1.05-13.15,0-26.29,.53-39.44,1.05-1.58,1.58-3.16,3.16-5.26,3.68-5.26,1.58-9.99,2.63-15.25,3.68-3.68,0-4.21,.53-.53,1.58,0,0,.53,0,.53-.53,2.63,.53,4.73,1.05,7.36,2.1-5.78,2.63-11.57,4.21-17.35,4.73-7.36,1.05-14.72,2.1-21.56,2.1-6.84,.53-6.84,1.05,0,1.05,6.31,.53,12.62,1.05,18.93,2.1q.53,.53,0,1.05c-1.05,.53-2.63,.53-4.21,1.05-14.2,0-27.87,.53-42.07,1.05-11.57,2.1-23.66,4.73-35.23,6.84-23.14,2.63-46.28,5.78-68.89,8.94-5.78,.53-11.04,1.05-16.83,1.58-9.99-1.05-19.98-2.1-29.98-2.1-.53-.53-.53-1.05,0-1.58s1.05-1.05,1.58-1.58c2.63-1.05,4.73-2.1,7.36-3.16,1.58-1.05,1.58-2.1-.53-2.63s-4.21-.53-5.78-1.05c-.53-.53-1.05-1.05-.53-2.1,1.05-1.05,2.63-1.58,4.21-2.1,7.36-1.05,15.25-1.58,22.61-2.63,4.73-.53,8.94-1.58,13.15-3.68v.53c.53-.53,1.05-1.05,1.58-1.58-.53-.53-1.05-.53-1.58,0-14.2-.53-28.4-1.05-42.6-1.58-15.25,1.05-30.5,1.58-45.75,1.58-3.68-.53-7.89-1.05-11.57-2.63-2.63-2.1-2.63-3.68-.53-6.31,3.68-2.63,7.89-4.21,12.1-4.21,4.73,0,9.47-.53,14.2-1.05,3.16-1.05,5.78-2.1,8.94-3.16,2.1-.53,4.21-1.05,6.31-1.05,6.84-.53,13.15-1.05,19.98-1.05,1.58,0,2.63,0,4.21-.53,1.58,0,3.16-.53,4.21-1.05-1.05,0-2.63-.53-3.68,0-1.58,0-3.16,0-4.73,.53-11.57-.53-22.61-.53-33.66,0-1.58,0-2.1-1.05-2.1-2.63,1.05-1.05,2.1-2.1,3.68-2.63,3.16-1.05,6.84-1.58,10.52-1.58,8.94-.53,17.88-.53,26.82-1.05,4.73,0,9.99-.53,14.72-1.58,.53,.53,1.05,.53,1.58,0-.53-.53-1.05-1.05-1.58-1.58v.53c-7.89-5.26-15.25-11.04-22.09-17.88-5.26-6.84-9.99-14.2-13.67-22.61-4.21-12.1-7.89-24.19-9.99-36.81-1.05-9.47-.53-18.93,1.05-28.4,.53-2.1,1.05-4.21,1.58-6.31,.53,1.05,.53,1.58,.53,3.16-.53,1.58-.53,3.16-1.05,4.73-.53,6.84,0,13.67,0,20.51,.53,4.21,1.58,8.41,2.63,12.62,0-3.16,.53-6.31,.53-8.94,0-3.16-.53-6.31-1.58-9.47-.53-3.68-.53-7.89,0-11.57s1.05-7.36,1.58-11.04c.53-.53,1.05-.53,1.58-.53,0,3.16-.53,6.84,0,9.99,1.05-5.78,2.1-12.1,2.63-17.88,1.58-3.68,3.16-7.36,5.26-11.04,3.68-5.78,7.36-11.57,11.04-16.83,1.58-1.58,2.63-2.63,4.21-3.68,.53-.53,1.05-1.05,1.05-2.1,15.25-11.04,25.77-25.77,32.08-44.17,2.63-8.41,2.1-16.83-1.05-24.72-1.05-2.1-2.63-3.68-4.73-4.73-3.68,0-7.36,.53-11.04,1.05-5.26-1.05-9.47,0-13.67,3.68-1.58,3.68-3.16,7.89-4.21,11.57q-.53,.53-1.05,0c-.53-.53-.53-1.58-1.05-2.1-2.1-9.47-3.16-18.93-2.63-28.92,1.05-5.78,4.21-8.94,9.47-10.52,4.21-1.05,7.89-1.58,12.1-1.58l.53-.53c-4.21-5.78-7.36-12.62-9.47-19.98-.53-2.63-.53-5.26-1.05-8.41,0-1.58-.53-3.16-1.05-4.73-1.58-3.68-3.68-7.36-5.78-10.52-2.1-4.73-2.63-9.47-2.1-14.72,.53-3.16,1.05-6.84,1.58-9.99,0-1.58,1.05-2.1,2.63-1.58,0,3.68,.53,7.36,1.05,11.04,3.16,6.31,6.84,12.1,10.52,18.41,1.05,2.63,1.58,5.26,2.63,7.89-1.58-1.58-1.58-1.05-1.58-.53Z"/>
  <path class="cls-140" d="M962.37,11.57c2.1,.53,3.68,.53,5.78,0v2.1c-1.05,.53-2.63,1.05-4.21,1.58q-.53,.53-.53,1.05c-3.16,2.1-5.78,4.21-8.41,6.84-1.58,0-3.16,.53-3.68,2.1,0-.53,0-1.05,.53-1.58,1.58-1.58,3.68-3.16,5.78-4.73q.53-.53,0-.53c1.05-1.05,2.1-1.58,3.68-2.1,1.05-1.58,2.63-2.1,4.21-2.63-1.58-.53-3.16,0-4.73,1.05-1.58,0-3.68,.53-5.26,.53l-.53-.53c2.63-1.05,5.26-2.1,7.36-3.16Z"/>
  <path class="cls-5" d="M963.94,16.3c1.05,.53,1.05,1.58,0,2.63-1.58,2.1-3.16,4.21-4.73,6.31-6.31,4.21-12.62,8.94-18.41,13.67-2.63,2.63-4.73,5.26-6.84,7.89-1.58,2.1-3.16,3.68-5.26,4.73h-.53c2.1-2.1,3.68-4.21,4.73-6.84,2.63-4.21,5.78-7.89,9.47-11.57,4.21-3.68,8.94-6.84,13.67-9.99,2.1-2.63,4.73-5.26,7.89-6.84Z"/>
  <path class="cls-136" d="M902.94,18.41c2.1,.53,3.16,2.1,2.63,4.73l-.53,.53c-1.05-1.05-2.1-2.1-2.63-3.68,0-1.05,.53-1.05,.53-1.58Z"/>
  <path class="cls-39" d="M958.16,18.41c.53,0,.53,.53,0,.53-2.1,1.58-3.68,3.16-5.78,4.73,0-.53-.53-.53-1.05-.53,1.58-1.58,2.63-3.16,4.21-4.73,0,0,0,.53,.53,.53,1.05,0,1.58-.53,2.1-.53Z"/>
  <path class="cls-24" d="M943.96,20.51c0,1.05,0,2.1-.53,3.16,0,.53,.53,.53,1.05,1.05-6.84,6.84-13.67,14.2-19.46,22.61-2.63,5.26-5.26,11.04-7.89,16.3-1.05,3.16-1.58,6.31-2.1,9.99,0,1.58,0,3.16-.53,4.73v-13.15c2.1-7.89,5.26-15.78,8.94-23.14,3.68-3.68,6.84-6.84,9.47-10.52,.53-.53,1.58-1.05,2.1-1.58h1.05c2.1-4.73,4.73-7.36,7.89-9.47Z"/>
  <path class="cls-172" d="M913.46,26.82c-.53-1.05-1.58-1.05-2.63-1.05-.53-.53-.53-1.58-1.05-2.63,.53-1.58,1.58-1.58,2.63,0,.53,1.58,1.05,2.63,1.05,3.68Z"/>
  <path class="cls-165" d="M913.46,26.82c.53,3.68,.53,6.84-1.58,9.99v-5.78c0-1.58-.53-3.68-1.05-5.26,1.05,0,2.1,0,2.63,1.05Z"/>
  <path class="cls-153" d="M898.21,26.29c.53,3.16,1.58,5.78,2.63,8.94-1.05,3.16-1.05,6.84,0,9.99v1.05c-1.05-1.58-1.58-3.16-2.1-4.73,0-3.68-.53-6.84-.53-10.52-.53-1.58-.53-3.16,0-4.73Z"/>
  <path class="cls-163" d="M904.52,30.5v1.58c-.53-.53-1.05-.53-1.05,.53,.53,.53,.53,1.58,0,2.1-1.05-2.1-1.58-4.21-1.58-6.84q-.53,.53-1.05,0c-1.05-1.58-1.58-3.68-1.05-5.78,0-1.05,.53-1.58,1.58-1.05,1.05,3.68,2.1,6.84,3.16,9.47Z"/>
  <path class="cls-174" d="M911.36,35.76c-1.05-1.58-2.1-3.16-3.68-4.73-1.05-1.58-1.58-3.16-2.1-4.73,0-1.05,.53-1.58,1.05-2.1h1.05v2.1c1.58,2.63,3.16,5.78,3.68,9.47Z"/>
  <path class="cls-56" d="M898.21,26.29c-.53,1.58-.53,3.16-.53,4.73-.53-2.1-.53-3.68,0-5.78q.53,.53,.53,1.05Z"/>
  <path class="cls-173" d="M874.02,37.86v2.63h-1.05c-2.1-3.16-4.21-6.84-5.78-10.52,0-.53,.53-.53,.53-1.05-.53-.53-1.05-1.05-1.05-1.58-.53-3.16-.53-6.31,0-9.47,0,2.63,.53,4.73,1.05,6.84,1.58,4.73,3.68,8.94,6.31,13.15Z"/>
  <path class="cls-167" d="M951.85,23.14q.53,0,1.05,.53c-.53,.53-.53,1.05-.53,1.58,1.05-1.58,2.1-2.1,3.68-2.1-4.73,3.16-8.94,6.84-13.67,9.99-3.68,3.68-6.84,7.36-9.47,11.57v-.53c-1.05,1.05-2.1,2.1-3.16,3.16,1.58-2.63,3.16-5.78,4.73-8.41,5.26-5.78,11.04-11.04,17.35-15.78Z"/>
  <path class="cls-91" d="M904.52,30.5c.53,1.05,.53,2.1,1.05,3.16,.53,3.68,.53,7.36,1.05,11.04,.53,2.1,1.05,3.68,1.58,5.78h-1.05c-2.1-4.73-3.16-9.99-3.68-15.78,.53-.53,.53-1.05,0-2.1,0-1.05,.53-1.05,1.05-.53v-1.58Z"/>
  <path class="cls-93" d="M907.67,31.03c1.05,1.58,2.63,3.16,3.68,4.73,0,3.16-.53,6.31-1.05,8.94,0,1.05-1.05,1.58-2.1,2.1,0-5.26,0-10.52-.53-15.78Z"/>
  <path class="cls-186" d="M874.02,37.86c2.1,3.16,3.68,6.31,4.73,10.52-1.58-2.63-3.16-5.26-4.73-7.89v-2.63Z"/>
  <path class="cls-90" d="M873.49,40.49h0c1.58,1.58,2.1,3.16,3.16,4.73v3.16c-1.05-1.58-1.58-3.16-2.63-4.73-2.1-2.63-3.68-5.26-5.78-7.89-.53-.53-.53-1.05,0-1.05,1.58,2.1,3.16,4.21,5.26,5.78-.53,.53,0,0,0,0Z"/>
  <path class="cls-92" d="M873.49,40.49q.53,0,0,0c2.1,2.63,3.68,5.26,5.26,7.89,.53,2.63,.53,5.78,.53,8.94-.53,1.58-1.05,3.68-1.05,5.26,0,.53-.53,1.05-1.05,1.58-.53-5.26-.53-10.52-1.05-15.78v-3.16c-.53-1.58-1.58-3.16-2.63-4.73Z"/>
  <path class="cls-142" d="M885.06,47.33c1.05,1.58,1.05,3.68,1.58,5.78,0-1.05-.53-1.58-1.58-1.58-.53-.53-1.05-1.58-1.05-2.1,0-1.05,.53-1.58,1.05-2.1Z"/>
  <path class="cls-164" d="M907.15,50.48h1.05c.53,2.1,1.05,4.73,1.58,6.84,.53,6.31,1.05,12.62,2.1,18.93,.53,2.1,.53,4.21,1.05,6.84,0,.53,0,1.05-.53,1.58-1.05-2.63-1.58-5.78-1.58-8.94-2.1-7.89-3.16-16.83-3.68-25.24Z"/>
  <path class="cls-26" d="M882.43,51.01c.53,0,.53,.53,1.05,1.05-.53,1.58-.53,2.63-.53,4.21q.53,.53,1.05-.53,.53,0,1.05,.53c-.53,0-.53,.53-.53,1.05-.53,0-.53,.53-.53,1.05,0,0-.53,0-.53-.53,0,1.58-.53,2.63-1.05,4.21-.53-4.21-.53-7.89,0-11.04Z"/>
  <path class="cls-15" d="M882.96,51.54c.53,0,1.05,0,1.05,.53,0,1.05-.53,2.1-1.05,3.16,0,.53-.53,1.05-1.05,.53,.53-1.05,1.05-2.63,1.05-4.21Z"/>
  <path class="cls-8" d="M929.24,47.33c1.05-.53,2.63-1.58,3.16-3.16v.53c-1.05,2.63-2.63,4.73-4.73,6.84h.53c-4.21,5.26-7.36,11.04-9.99,16.83,0,0-.53-.53-.53-1.05,3.16-8.41,6.84-16.3,11.04-24.19,0-.53,.53-.53,.53,0-2.1,3.16-3.68,6.31-4.73,9.99,2.1-1.58,3.16-3.68,4.73-5.78Z"/>
  <path class="cls-159" d="M884.54,52.06h1.05c.53,0,.53,.53,.53,1.05v3.68h-1.05v-1.05c0-.53-.53-.53-1.05-.53,0-1.05,0-2.1,.53-3.16Z"/>
  <path class="cls-49" d="M885.59,53.11c1.58,4.21,3.16,8.41,4.73,12.62,2.1,3.68,3.68,6.84,5.78,10.52,1.58,2.1,2.63,3.68,3.68,5.78-1.58-1.58-3.16-3.68-4.21-5.78-2.1-3.68-3.68-7.89-5.78-11.57q-.53-.53-1.05,0c-.53-1.05-1.05-1.58-2.1-2.63v1.05c-.53-.53-.53-1.05-1.05-1.58,0-1.58-.53-3.16-1.05-4.73h1.05v-3.68Z"/>
  <path class="cls-75" d="M884.01,56.8c.53,3.68,1.05,7.36,1.58,10.52,1.05,3.16,1.58,6.31,2.63,8.94-3.16-5.78-4.73-12.1-4.21-18.93-.53,0-.53-.53,0-.53Z"/>
  <path class="cls-4" d="M912.93,58.9h1.05c0,1.05-.53,2.1-1.05,3.16-.53-1.58-.53-2.1,0-3.16Z"/>
  <path class="cls-95" d="M886.11,58.37c1.05,1.05,1.58,2.1,1.58,3.68-1.05-1.05-1.58-2.1-1.58-3.68Z"/>
  <path class="cls-148" d="M879.28,57.32c-.53,6.84,.53,13.67,4.21,19.46-3.16-3.68-5.26-7.89-6.31-12.62,.53-.53,1.05-1.05,1.05-1.58,0-2.1,.53-3.68,1.05-5.26Z"/>
  <path class="cls-52" d="M886.11,63.11c1.05,1.58,1.05,2.63,1.05,4.73-.53-1.58-1.05-3.16-1.05-4.73Z"/>
  <path class="cls-150" d="M902.42,76.78c0,.53,.53,1.05,1.05,1.58,0,0,0,.53-.53,.53-2.1-1.58-4.21-3.68-6.31-5.78-3.68-6.31-6.84-12.62-8.94-18.93,3.16,5.78,6.31,11.57,9.99,17.35,1.58,1.58,3.16,3.68,4.73,5.26Z"/>
  <path class="cls-176" d="M910.3,44.7c-.53,3.16-.53,6.31,0,9.47,1.05,5.78,1.58,11.57,2.1,17.88,.53,2.1,1.58,4.73,2.1,6.84v1.05c0-.53,.53-1.05,.53-1.58,.53,3.16,.53,6.84,.53,9.99-.53-2.63-1.05-4.73-2.1-6.84,0-1.58-.53-3.16-1.05-4.73-1.05-9.99-2.63-19.98-4.21-29.98,1.05-.53,1.58-1.05,2.1-2.1Z"/>
  <path class="cls-21" d="M902.94,76.25c1.58,1.05,2.63,2.1,3.68,3.16h1.58s.53,.53,.53,1.05c-.53,1.05-1.05,2.63-1.05,4.21-1.58-1.58-3.16-3.68-4.73-5.26,0,0,.53,0,.53-.53-.53-1.05-.53-1.58-.53-2.63,0,.53,0,0,0,0Z"/>
  <path class="cls-99" d="M911.36,76.78q.53,.53,1.05,0c.53,1.58,1.05,3.16,1.05,4.73v3.16c-.53-.53-1.05-.53-1.05-1.05-.53-2.63-.53-4.73-1.05-6.84Z"/>
  <path class="cls-32" d="M914.51,73.1c.53,1.58,.53,3.68,.53,5.26-.53,.53-.53,1.05-.53,1.58v-6.84Z"/>
  <path class="cls-30" d="M934.49,82.04h2.63c-1.58,.53-2.63,1.05-4.21,1.05,.53-.53,1.05-.53,1.58-1.05Z"/>
  <path class="cls-60" d="M911.88,83.09c.53,.53,1.05,.53,1.05,1.05,0,2.1,0,4.21-.53,6.31-.53-1.58-1.05-3.68-1.05-5.26,.53-.53,1.05-1.58,.53-2.1Z"/>
  <path class="cls-66" d="M917.14,82.56c.53,1.05,1.05,2.1,1.58,3.16,0,.53-.53,.53-1.05,.53,0-1.58-.53-2.63-.53-3.68Z"/>
  <path class="cls-31" d="M919.77,93.08c0-.53-.53-1.05-1.05-1.58,3.68-3.68,7.89-6.31,13.15-7.89,0,.53-.53,.53-1.05,1.05-4.21,1.58-7.89,4.73-11.04,8.41Z"/>
  <path class="cls-133" d="M918.19,109.38q-.53-.53-1.05-.53v-5.26c0,1.05-.53,2.1-1.58,2.1-.53-.53-.53-1.58,0-2.63,2.63-4.21,5.26-7.36,9.47-9.99-2.63,2.63-4.73,5.26-6.84,8.41-.53,.53-.53,1.05,0,1.58,2.1-4.21,5.26-7.89,8.94-10.52,3.16-2.1,6.31-3.68,8.94-5.78,1.05-.53,2.1-.53,3.16-1.05h-2.63c.53-.53,1.05-.53,1.58-1.05,4.73-.53,8.94,.53,12.62,3.16-1.05,0-2.63-.53-3.68-1.05-4.21-1.05-7.89,0-11.57,2.63-4.21,4.73-8.94,8.94-13.15,13.67-1.58,2.1-3.16,4.21-4.21,6.31Z"/>
  <path class="cls-134" d="M875.6,85.72c5.26,.53,10.52,.53,15.25,0h3.68l-.53,.53c-1.05,.53-1.58,.53-2.63,1.05,0-.53-.53-1.05-1.58-1.05-1.05,.53-2.63,.53-4.21,1.05-2.63-.53-5.26-.53-7.89,0h-2.63c1.05-.53,1.05-1.05,.53-1.58Z"/>
  <path class="cls-38" d="M936.07,85.72c-.53,.53-1.58,1.05-2.63,1.58-.53,0-1.05,.53-1.58,0,1.05-1.05,2.63-1.58,4.21-1.58Z"/>
  <path class="cls-118" d="M891.37,87.3c-4.73,2.63-9.47,5.26-13.67,8.94-1.05,0-2.63-.53-4.21-.53l-.53-.53c1.05-2.63,2.63-5.26,4.73-7.89,2.63-.53,5.26-.53,7.89,0,1.58,0,2.63-.53,4.21-1.05,1.05,0,1.58,.53,1.58,1.05Z"/>
  <path class="cls-85" d="M926.61,92.56c1.58-1.58,3.68-3.68,5.78-4.73h1.58c1.05-.53,1.58-1.05,2.63-1.58s2.1-.53,2.63,0c-1.05,.53-2.1,1.05-3.16,1.05-3.68,1.05-6.84,3.16-9.47,5.26Z"/>
  <path class="cls-100" d="M876.12,87.3h2.63c-2.1,2.63-3.68,5.26-4.73,7.89-.53,1.05-1.58,1.58-2.1,2.63l-.53-.53c1.05-2.63,2.1-5.78,3.16-8.41,0-.53,.53-1.05,1.58-1.58Z"/>
  <path class="cls-43" d="M890.85,85.72c5.26-1.58,9.99,0,14.2,4.21,1.05,1.05,1.58,2.63,1.58,3.68-3.16-4.73-7.36-6.84-12.62-6.84,0,0,0-.53,.53-.53-1.05-.53-2.1-.53-3.68-.53Z"/>
  <path class="cls-28" d="M889.27,90.98c1.05,0,2.1,0,2.63,.53,3.68,3.68,6.31,7.89,7.36,13.15-4.21-2.63-8.41-5.26-12.62-8.41-.53-.53-.53-1.05,0-1.58,1.05-1.05,1.58-2.63,2.63-3.68Z"/>
  <path class="cls-63" d="M931.87,87.3c-2.1,1.58-3.68,3.16-5.78,4.73-.53,.53-1.58,.53-2.1,1.05,1.58-1.58,3.16-3.16,4.73-4.21,1.05-1.05,2.1-1.05,3.16-1.58Z"/>
  <path class="cls-51" d="M896.11,90.98c3.68,1.58,5.78,4.21,6.31,8.41,0,1.05,0,1.58-.53,2.1-1.05-2.63-2.1-5.78-3.68-8.41-.53-.53-1.05-1.58-2.1-2.1Z"/>
  <path class="cls-50" d="M918.72,91.5c.53,.53,.53,1.05,1.05,1.58-1.05,1.58-2.1,3.16-3.68,4.73-.53-.53-1.05-1.05-1.58-1.58-.53,.53-1.58,1.05-2.63,1.05,2.63-2.1,4.73-3.68,6.84-5.78Z"/>
  <path class="cls-81" d="M926.61,92.56c-3.68,3.16-6.84,6.84-8.94,10.52-.53-.53-.53-1.05,0-1.58,2.1-3.16,4.21-5.78,6.84-8.41,.53,0,1.05-.53,2.1-.53Z"/>
  <path class="cls-124" d="M875.6,85.72c.53,.53,.53,1.05,.53,1.58-1.05,.53-1.58,1.05-2.1,1.58-1.05,2.63-2.1,5.26-3.16,8.41l.53,.53c1.05-.53,1.58-1.58,2.1-2.63,0,0,0,.53,.53,.53,1.58,0,2.63,.53,4.21,.53-2.1,2.63-3.68,4.73-5.78,7.36-1.05,1.58-1.58,3.68-2.1,5.26-.53,.53-.53,1.05-1.05,1.58-1.05,1.58-1.58,3.68-2.63,5.26-.53,2.63-.53,5.26-1.05,7.89-.53-4.73-.53-9.47-.53-14.2,1.05-6.31,2.63-12.1,4.73-17.88-2.1,.53-3.16,2.1-4.21,4.73-.53,3.68-1.05,7.36-1.05,11.04-3.16-7.89-1.58-14.2,4.21-19.98,2.63-.53,4.73-1.58,6.84-1.58Z"/>
  <path class="cls-157" d="M916.09,97.81c-.53,1.05-1.05,1.58-1.58,2.63-1.05-.53-2.1-1.58-2.63-3.16q0-.53,.53-.53c1.05,0,1.58,0,2.63-1.05,0,.53,.53,1.05,1.05,2.1Z"/>
  <path class="cls-115" d="M911.88,97.29c.53,1.05,1.58,2.1,2.63,3.16-1.05,2.1-1.58,4.21-2.1,6.84,.53,2.1,1.05,3.68,1.58,5.78-1.58-2.1-2.1-4.21-2.63-6.84-.53,0-.53,.53-.53,1.05-.53,0-1.58,0-2.1,.53-.53,1.05-1.05,1.58-1.05,3.16,0-1.58-.53-2.63-1.05-4.21,0,1.05-.53,2.1-1.05,3.16,0-6.31,1.58-9.99,6.31-12.62Z"/>
  <path class="cls-58" d="M877.17,99.92c2.63,0,5.26,0,7.36,1.05,4.73,1.58,9.47,3.68,13.67,5.78-7.36-2.1-14.72-4.21-21.56-6.31,.53,0,.53-.53,.53-.53Z"/>
  <path class="cls-160" d="M918.19,109.38q-.53,1.05-1.58,.53c-1.05-1.05-1.58-2.63-1.58-4.21,1.05,0,1.58-1.05,1.58-2.1,0,1.58,.53,3.68,0,5.26,1.05,0,1.58,0,1.58,.53Z"/>
  <path class="cls-139" d="M880.33,107.28c-1.05,0-1.58-.53-2.1-1.05,4.73-.53,4.73-1.05,0-1.58-2.1,.53-4.21,.53-6.31,1.58,2.1-1.58,4.21-2.1,6.31-2.1,2.63,0,5.26,.53,7.89,.53,2.63,1.05,4.73,2.1,7.36,3.16-4.21-.53-8.41-.53-13.15-.53Z"/>
  <path class="cls-130" d="M974.46,125.16c-.53,0-1.05,0-1.05,.53-3.16-.53-6.31-1.05-8.94-1.58-5.26-1.58-10.52-4.21-15.25-6.84-1.05,0-2.63-.53-3.68-1.05-.53,.53-1.05,1.05-2.1,1.58-3.16-2.1-5.78-4.73-8.41-7.36-.53-.53-.53-1.58-.53-2.63,.53-1.05,1.58-2.63,2.1-3.68,11.57,8.94,24.19,15.78,37.86,21.04Z"/>
  <path class="cls-54" d="M910.83,106.75c.53,5.26-.53,5.26-2.1,.53,.53-.53,1.58-.53,2.1-.53Z"/>
  <path class="cls-156" d="M878.23,106.23c.53,.53,1.05,1.05,2.1,1.05-3.68,.53-6.84,1.58-9.99,3.68q-.53-.53,0-1.05c2.1-2.1,5.26-3.68,7.89-3.68Z"/>
  <path class="cls-184" d="M942.91,117.8c.53-.53,1.58-1.05,2.1-1.58,1.05,.53,2.1,1.05,3.68,1.05,4.73,3.16,9.99,5.26,15.25,6.84,3.16,.53,6.31,1.05,8.94,1.58,.53,0,.53-.53,1.05-.53,11.57,4.21,23.14,7.36,35.23,9.99,15.78,4.73,30.5,12.1,43.65,22.61,3.68,4.21,7.36,8.41,12.1,11.57,6.31,6.31,10.52,13.67,13.67,22.09q0,.53-.53,.53c-.53-.53-1.05-1.58-1.58-2.1,.53,1.58,1.58,3.16,2.63,4.73,0,.53,.53,1.05,1.05,1.05,2.1,5.26,3.68,9.99,5.78,15.25,.53,3.16,.53,6.31,.53,9.47-.53,7.89-1.05,15.78-2.1,24.19-2.1,8.41-4.73,16.83-7.89,24.72-.53,0-.53-.53-.53-1.05,1.05-6.31,2.63-12.1,4.21-18.41,1.58-2.1,2.1-4.21,2.63-6.84v-7.36c.53-3.68,1.05-7.36,1.05-10.52,1.05-4.73,1.05-9.47,0-14.2-1.58-5.78-4.21-11.57-7.89-16.3,2.1,3.68,4.21,7.89,5.78,12.1,0,.53-.53,1.05-1.58,1.05-1.05-.53-1.58-1.58-2.63-2.63-.53-.53-1.05-1.05-1.05-2.1-.53-2.63-1.05-5.26-2.63-7.89,0,1.05-.53,2.1-.53,3.16,1.05,4.73,2.63,9.47,5.26,13.67,2.63,7.89,3.68,16.3,2.63,24.72-2.1,9.99-4.21,19.98-6.31,29.98-1.05,5.78-3.16,11.04-5.26,16.3-5.26,9.47-11.04,18.41-16.83,27.35-4.73,4.73-9.99,9.47-15.25,13.67-3.16,2.1-6.31,4.21-8.94,6.31-5.26,5.26-10.52,10.52-16.3,15.25-6.31,2.1-12.62,4.21-18.41,6.31-3.16,.53-6.31,.53-9.47,0-3.68-1.05-7.36-2.63-11.04-4.21-5.78-1.05-11.57-2.1-16.83-3.16-4.73-1.05-8.94-2.63-13.15-5.78l-7.89-7.89c-6.84-9.47-14.2-18.93-20.51-28.92-3.68-6.84-6.31-14.2-8.41-22.09-1.58-8.94-3.16-17.88-5.26-26.82-.53-3.16-1.05-6.84-1.05-9.99,0-3.68-.53-7.36-.53-11.04-.53,4.73,0,8.94,0,13.67,0,2.63,.53,5.78,1.05,8.41,1.05,8.41,2.1,17.35,3.16,25.77,2.63,9.99,6.31,18.93,11.04,27.87,0,.53,0,1.05-.53,1.58-2.63-2.1-5.26-4.73-7.89-7.36,0,1.58,.53,2.63,1.05,3.68,2.1,3.16,4.73,5.78,7.36,8.94,1.05,1.58,1.58,2.63,2.63,4.21,0-1.05-.53-2.1-1.05-3.68l.53-.53c1.58,1.58,2.63,2.63,4.21,3.68,5.26,6.84,10.52,13.67,16.3,20.51,2.63,3.16,5.78,5.26,9.47,6.31-6.84,.53-13.15-.53-18.93-3.68-1.05-.53-2.63-.53-3.68-.53-21.04,3.68-38.39-3.16-52.59-19.98-9.99-14.72-17.88-30.5-23.14-47.86-.53-1.58-.53-3.16-1.05-4.73-1.05-12.62,0-24.72,3.68-36.29,3.68-13.15,9.47-24.72,16.83-35.76,3.16-3.68,6.84-7.89,10.52-11.57,10.52-7.36,17.88-17.35,22.61-29.45,2.1-5.78,4.21-11.57,6.31-16.83,.53-2.63,1.05-5.26,1.05-7.89-.53-3.16-.53-6.84,0-9.99,.53,2.63,.53,5.26,1.05,7.89,0,3.68,0,7.36-1.05,11.04,0,.53,.53,.53,.53,0,.53,1.58,0,1.58-1.05,1.05,0,4.21-.53,8.41-1.58,12.62v1.05c2.1-7.36,2.63-7.36,2.63,.53-1.58,4.73-2.63,9.47-3.68,14.72-2.1,7.89-4.73,15.78-6.31,24.19v1.05c1.58-3.16,2.63-6.84,3.68-9.99,.53,.53,1.05,.53,2.1,0,4.21-3.68,6.84-8.94,7.89-14.72-.53-1.05-1.05-2.63-1.58-4.73,0-.53,0-1.05,.53-1.05,.53-1.05,1.05-2.1,2.1-3.16,0-5.26,.53-10.52,1.05-15.78,0-1.58,0-2.63-.53-3.68-.53-4.73-.53-9.47-1.05-14.72,0-2.1,0-3.68,.53-5.26,1.05,7.36,2.1,14.72,3.68,22.61,.53,11.57,.53,22.61,0,34.18-.53,1.58-.53,3.68,0,5.26,.53-1.05,.53-1.58,.53-2.63,1.05-5.78,1.58-11.57,2.63-17.35,.53-1.05,1.05-2.1,1.05-3.16,.53-3.68,.53-6.84,.53-10.52v-8.94c-1.58-5.26-2.63-11.04-2.63-16.3,.53,1.05,1.05,2.1,1.58,3.16,0,.53,.53,1.05,1.05,1.58,1.05-1.58,1.58-3.16,1.05-4.73-.53-1.05-.53-2.63-.53-3.68,.53,.53,1.05,1.05,1.58,2.1,3.68,8.94,7.36,18.41,10.52,27.87,1.58,7.89,3.68,15.78,6.31,23.14,2.1,4.21,4.73,7.89,7.89,10.52,1.05,.53,2.1,1.05,3.68,1.58,9.47,.53,15.78,4.73,19.46,13.67,.53,2.63,1.58,5.78,2.63,8.41,.53-.53,.53-1.58,.53-2.63,1.58,2.63,3.68,5.26,5.78,7.36,13.15,15.78,26.29,31.55,39.44,47.86-3.68-10.52-9.99-18.93-18.93-25.24-6.31-7.36-13.15-14.72-19.46-22.09,0-1.05-.53-2.1-1.05-3.16-1.05-1.58-2.1-3.16-3.16-4.73-1.05-3.68-2.63-7.36-4.21-10.52-.53-1.58-1.58-2.63-3.16-3.16-1.58-1.05-3.16-2.1-4.21-3.68-9.47-3.16-16.3-9.99-20.51-19.46-2.63-7.89-5.26-15.78-8.41-23.66,0-2.1-.53-3.68-2.63-4.73-3.68-6.84-6.84-14.2-9.99-21.56,1.58,1.05,2.63,2.63,3.68,4.21,3.68,5.78,7.36,11.57,11.57,17.35,2.1,2.1,4.21,4.21,6.31,6.31-1.05-1.58-2.1-3.16-3.68-4.73-3.16-4.73-6.31-9.47-9.47-14.72,7.89,6.84,15.25,13.15,23.14,19.46,12.1,8.41,25.77,14.2,39.97,16.83,7.89,1.58,16.3,3.16,24.19,4.73,2.1,.53,4.21,.53,6.31,0-15.25-4.73-30.5-9.99-45.23-15.78-7.89-3.16-15.25-7.36-22.09-12.62-5.78-4.73-12.1-9.99-18.41-14.72-3.16-2.63-5.26-5.78-6.84-9.47-.53-1.58,0-3.16,.53-4.73,.53,2.63,3.68,5.26,7.89,6.84q0,.53,0,0Z"/>
  <path class="cls-67" d="M869.81,109.38s.53,.53,0,0q0,1.05,.53,1.58-.53,.53-1.05,0c0-.53,.53-1.05,.53-1.58Z"/>
  <path class="cls-47" d="M905.57,112.01c1.05,1.05,1.05,1.58,.53,3.16-.53-1.58-1.05-2.63-.53-3.16Z"/>
  <path class="cls-143" d="M913.46,120.43c-.53,1.58-.53,3.68-.53,5.26-.53-2.1-.53-4.21,0-6.84,0,.53,0,1.05,.53,1.58Z"/>
  <path class="cls-149" d="M947.12,122c-1.05-.53-1.58-1.05-2.63-2.1,1.05,.53,2.1,1.05,2.63,2.1Z"/>
  <path class="cls-114" d="M1071.22,165.13c0,.53-.53,.53-1.05,.53-2.63-2.63-5.26-5.78-7.36-8.41-2.1-1.58-3.68-3.16-5.78-4.73-4.73-5.78-10.52-10.52-17.35-13.67,0,0-.53,0-.53,.53-2.1-.53-3.68-1.05-5.78-2.1-5.26-2.63-11.04-5.26-16.3-7.36-11.57-2.63-23.14-5.78-34.71-8.94,19.98,1.58,38.92,6.31,57.32,14.2,9.99,7.36,18.93,15.78,27.35,25.24,1.58,1.05,2.63,3.16,4.21,4.73Z"/>
  <path class="cls-123" d="M921.87,123.06c.53,1.58,.53,3.16-1.05,4.73-.53-.53-.53-1.05-1.05-1.58,0-2.1-.53-4.21-2.1-6.31v-.53c1.58,1.58,2.63,3.16,3.16,4.73,1.05,0,1.05-.53,1.05-1.05Z"/>
  <path class="cls-87" d="M947.12,122c14.2,11.04,29.45,19.98,45.75,27.35,4.73,1.58,9.99,2.63,14.72,4.21-4.73-.53-9.47-1.05-14.2-2.63-12.1-5.26-24.19-11.57-34.71-19.46-4.73-2.63-8.41-5.78-11.57-9.47Z"/>
  <path class="cls-79" d="M1025.47,131.47c2.63,1.05,5.26,2.1,7.36,3.68-3.16,0-5.26-1.05-7.36-3.68Z"/>
  <path class="cls-55" d="M973.41,135.15c0-.53,.53-.53,0,0,2.1,.53,3.16,1.05,4.73,2.1-1.58-.53-3.16-1.58-4.73-2.1Z"/>
  <path class="cls-126" d="M922.93,135.68c.53,.53,1.05,1.05,1.05,1.58,1.05,5.78,1.05,11.04,1.05,16.83q-.53-.53-1.05,0c-.53-3.68,0-7.89,0-11.57-.53-2.1-.53-4.21-1.05-6.84Z"/>
  <path class="cls-166" d="M933.97,138.83c2.1,.53,3.16,2.1,2.63,4.73-1.05-1.58-2.1-3.16-2.63-4.73Z"/>
  <path class="cls-170" d="M1057.03,152.51c-6.31-4.21-12.1-8.41-17.88-13.15,0,0,0-.53,.53-.53,6.84,3.16,12.62,7.36,17.35,13.67Z"/>
  <path class="cls-105" d="M980.77,138.83q0-.53,0,0c6.84,2.63,13.67,5.78,20.51,7.89-3.68,0-6.84-1.05-10.52-2.63-3.16-2.1-6.84-3.68-9.99-5.26Z"/>
  <path class="cls-122" d="M913.99,140.41c.53,1.05,.53,2.63,.53,3.68-.53,5.26-.53,10.52-1.05,15.78-1.05,.53-1.58,1.58-2.1,3.16-.53-.53-.53-1.05-.53-1.58-1.05,1.05-1.58,.53-2.1-1.05q-.53,.53-1.05,0c-.53,1.05-.53,2.1-1.05,3.16-.53,1.58-1.58,3.16-2.1,4.73,1.05-4.73,2.1-9.47,3.68-14.72,.53-7.36-.53-7.89-2.63-.53v-1.05c1.05-4.21,2.1-8.41,1.58-12.62,1.05,1.05,1.05,.53,1.05-1.05,0,.53-.53,.53-.53,0,.53-3.68,1.05-7.36,1.05-11.04,.53,3.68,.53,7.89,1.05,12.1-.53,4.73-.53,9.47,0,14.2,1.05-3.16,1.58-6.84,1.58-9.99-.53-7.89-.53-15.25-1.05-23.14,0-.53,.53-.53,.53-1.05,.53,.53,.53,1.05,1.05,1.58,1.05,8.94,1.58,17.35,2.63,26.29-.53-2.1-.53-4.21-.53-6.84Z"/>
  <path class="cls-71" d="M937.65,132.52c4.21,4.21,8.41,8.41,13.15,12.1,5.78,3.68,11.57,7.89,17.35,11.57,1.58,1.05,3.68,2.1,5.78,3.16-2.63,0-4.73-1.05-6.84-2.63-10.52-5.78-19.98-13.15-28.92-22.09,0-.53,0-1.58-.53-2.1Z"/>
  <path class="cls-62" d="M946.06,146.2c0-.53,.53-.53,1.05,0s1.05,1.05,1.58,1.58q-.53,.53-1.05,0c-.53-.53-1.05-1.05-1.58-1.58Z"/>
  <path class="cls-177" d="M951.32,150.93c.53-.53,1.05,0,1.58,.53-.53,0-1.05,0-1.58-.53Z"/>
  <path class="cls-77" d="M1073.85,191.95c-8.41-12.1-18.41-23.14-29.98-32.6-2.1-1.58-4.21-2.63-6.84-3.68-4.21-1.58-7.89-3.16-12.1-4.73,10.52,2.1,19.98,6.84,27.87,14.2,8.94,7.89,15.78,16.83,21.04,26.82Z"/>
  <path class="cls-123" d="M921.35,148.83c0,3.68,0,6.84-.53,10.52,0,1.05-.53,2.1-1.05,3.16,.53-4.73,1.05-9.47,1.58-13.67Z"/>
  <path class="cls-147" d="M932.92,159.87q-.53,0,0,0c-1.05-1.58-1.58-3.68-1.58-5.26,.53,1.58,1.05,3.16,1.58,5.26Z"/>
  <path class="cls-183" d="M911.36,163.02c0,.53-.53,1.05-.53,1.05,.53,1.58,1.05,3.16,1.58,4.73-1.05,5.78-3.68,11.04-7.89,14.72h-2.1c2.1-6.31,3.68-12.62,4.21-19.46,0-1.05,.53-2.1,1.05-3.16q.53,.53,1.05,0c.53,1.58,1.05,1.58,2.1,1.05,0,0,0,.53,.53,1.05Z"/>
  <path class="cls-74" d="M932.39,159.87h0c1.58,4.73,2.1,9.47,2.63,14.72,3.16,9.99,8.41,18.41,15.25,25.77,1.05,1.05,1.58,2.63,1.58,3.68,0,3.16-.53,5.78-1.58,8.94-2.1,4.21-5.26,8.41-8.41,12.1-.53,1.05-1.05,2.63-1.58,4.21-.53,8.94-.53,17.88,0,26.29,.53,12.1,4.21,22.61,11.57,32.08,3.16,3.68,6.84,6.84,9.99,10.52,4.73,4.21,9.47,8.41,14.2,12.62-4.21-1.58-7.89-3.68-11.04-6.84-5.78-5.78-11.04-11.57-16.3-17.35-5.26-7.89-8.41-16.83-9.99-26.82-1.58-9.47-2.63-18.93-3.68-28.92,0-4.21,1.58-8.41,4.21-11.57,4.21-3.68,6.84-8.41,7.89-14.2,0-1.05-.53-2.1-1.05-3.16-2.63-3.16-5.78-6.31-8.41-9.47-3.16-4.73-4.73-9.99-5.26-15.25,0-6.84,0-12.1,0-17.35Z"/>
  <path class="cls-149" d="M915.56,164.08c0-1.05,0-1.58-.53-2.1q0-.53,.53-1.05c.53,1.58,.53,2.63,0,3.16Z"/>
  <path class="cls-107" d="M960.79,156.19c7.89,4.73,15.78,9.99,23.66,15.78,4.73,2.63,8.94,5.26,13.67,7.89-5.26-1.58-9.99-3.68-14.2-6.84-7.89-5.26-15.78-11.04-23.14-16.83Z"/>
  <path class="cls-128" d="M897.16,174.07c-1.05,1.58-2.63,3.68-4.21,4.73,0-.53-.53-.53-.53-1.05,.53-1.05,.53-1.58,1.05-2.63,1.58-3.16,3.68-6.31,6.31-8.94,1.58-2.63,3.16-5.26,4.21-7.89,0,.53,.53,.53,.53,1.05,.53-.53,1.05-1.05,1.05-1.58-1.05,4.21-3.16,8.41-5.26,12.62-1.05,1.05-2.1,2.1-3.16,3.68Z"/>
  <path class="cls-98" d="M907.15,164.08c-.53,6.84-2.1,13.15-4.21,19.46-1.05,3.16-2.63,6.84-3.68,9.99v-1.05c2.1-7.89,4.21-16.3,6.31-24.19,0-1.58,.53-2.63,1.58-4.21Z"/>
  <path class="cls-155" d="M1071.22,165.13c1.58,2.1,3.16,4.21,4.21,6.84-1.58-2.1-3.16-4.21-4.73-6.31t.53-.53Z"/>
  <path class="cls-102" d="M856.14,254.53c.53,.53,.53,1.05,.53,1.58,0,5.78,0,12.1,1.05,17.88,1.05,5.26,2.63,10.52,4.21,15.25,3.16,6.31,6.84,12.1,11.04,17.35-1.58-4.73-3.16-8.94-5.26-13.67-3.68-10.52-5.26-21.56-4.21-33.13,.53-8.41,1.58-16.83,3.16-25.24,2.1-6.84,4.73-13.67,8.41-19.98,4.73-7.36,8.94-15.25,13.67-22.61,4.73-6.84,8.94-13.15,13.15-19.46-1.05,2.63-2.1,4.73-3.16,7.36-9.47,12.62-17.35,26.29-23.14,41.02-5.78,17.35-8.41,35.23-7.36,53.64,0,3.16,.53,6.84,1.05,9.99,2.1,8.41,5.26,16.83,8.41,25.24,6.84,16.83,19.46,25.77,36.81,27.35-16.3,1.58-28.92-4.73-38.39-18.93-3.16-5.26-6.84-11.04-10.52-16.3-2.1-4.21-4.21-8.94-6.31-13.15-2.63-11.57-3.68-22.61-3.16-34.18Z"/>
  <path class="cls-106" d="M1077.01,189.84c-3.16-3.68-5.78-7.89-8.41-12.1-1.05-1.58-1.58-3.16-2.63-4.73,4.73,5.26,7.89,11.04,11.04,16.83Z"/>
  <path class="cls-120" d="M897.16,174.07c-.53,2.1-1.58,3.68-3.16,4.73-5.26,5.78-10.52,11.04-16.83,15.78-.53,1.58-1.58,2.1-2.63,2.1-1.05,1.58-2.1,2.63-3.68,3.16,3.16-4.21,7.36-7.36,11.04-10.52,1.58-2.63,3.68-5.26,6.31-7.36,1.58-2.1,3.16-4.73,4.73-6.84,0,1.05-.53,1.58-1.05,2.63,0,.53,.53,.53,.53,1.05,2.1-1.58,3.68-3.16,4.73-4.73Z"/>
  <path class="cls-29" d="M917.14,176.7c0,1.05,0,2.1,.53,3.16,0,1.05-.53,1.58-.53,2.63-.53-2.1-.53-4.21,0-5.78Z"/>
  <path class="cls-98" d="M919.77,205.62c0,2.1,0,4.21-.53,6.31-1.05-8.41-1.58-16.83-1.05-25.77,0-1.58,.53-2.63,1.05-4.21,0,.53,.53,1.58,.53,2.1v21.56Z"/>
  <path class="cls-25" d="M868.23,183.53c0,.53-.53,1.58-1.05,2.1-1.58,1.05-3.16,2.63-4.21,3.68q-.53,0-.53-.53c.53-.53,.53-1.05,0-1.05,1.58-1.05,3.16-2.63,4.73-3.68,.53-.53,1.05-.53,1.05-.53Z"/>
  <path class="cls-87" d="M1047.03,185.64h0c3.68,2.63,6.84,5.78,9.99,8.94,.53,.53,.53,1.58,1.05,2.1-4.21-3.16-7.89-6.84-11.04-11.04Z"/>
  <path class="cls-106" d="M915.04,162.5c.53,.53,.53,1.05,.53,2.1,0,2.1,0,4.21-.53,6.84-3.16,15.78-5.78,32.08-6.84,48.38-.53-11.57,.53-22.61,3.68-34.18,1.05-7.89,2.1-15.78,3.16-23.14Z"/>
  <path class="cls-7" d="M862.45,187.74c.53,.53,.53,1.05,0,1.05-5.78,7.36-11.04,14.72-16.3,22.61-2.1,3.68-3.68,7.89-5.26,11.57h-1.05c1.05-7.36,3.68-14.2,7.89-19.98,2.63-3.68,5.78-6.84,8.41-10.52,2.1-2.1,4.21-3.68,6.31-4.73Z"/>
  <path class="cls-109" d="M956.58,189.84s.53-.53,1.05-.53c2.1,.53,4.21,1.58,6.31,2.1,1.05,.53,2.1,1.58,3.16,2.63-3.68-1.05-7.36-2.63-10.52-4.21Z"/>
  <path class="cls-37" d="M1077.01,189.84c.53,.53,1.05,1.05,1.58,2.1,.53,1.05,.53,1.58,1.05,2.63,0,0,0,.53-.53,.53-.53-1.58-1.58-3.16-2.1-5.26Z"/>
  <path class="cls-57" d="M1073.85,191.95c.53,0,1.05,.53,1.05,1.05-1.05,0-1.05-.53-1.05-1.05Z"/>
  <path class="cls-23" d="M862.45,188.79s0,.53,0,0c-3.68,5.78-7.36,11.57-11.04,17.35-2.1,3.68-3.68,7.36-5.26,11.04-1.05,5.78-1.58,12.1-2.63,17.88v-9.99c-.53,0-1.05,0-1.58,.53-.53,3.68-1.05,7.36-1.58,11.04-.53,3.68-.53,7.89,0,11.57,1.05,3.16,1.58,6.31,1.58,9.47-1.05-1.05-1.05-2.1-1.05-3.16-.53,0-1.58,0-2.1-.53-.53-6.84-.53-13.67,0-20.51,.53-1.58,.53-3.16,1.05-4.73,0-2.1,.53-4.21,1.05-6.84,1.58-3.68,3.68-7.89,5.26-11.57,5.26-6.84,10.52-14.2,16.3-21.56Z"/>
  <path class="cls-59" d="M1074.91,193.53c.53,0,1.05,.53,1.05,1.05-1.05,0-1.58-.53-1.05-1.05Z"/>
  <path class="cls-146" d="M1079.11,191.42c.53,1.05,1.05,2.63,1.58,4.21-.53,0-1.05,0-1.05-1.05,0,0,.53,0,.53-.53-.53-.53-1.05-1.05-1.05-2.63q0,.53,0,0Z"/>
  <path class="cls-127" d="M989.71,197.21c0,.53,.53,1.58,1.05,2.1h-2.1c-2.1-1.58-3.68-2.63-5.78-4.21,0-.53-.53-1.05-1.05-2.1-2.63-2.1-4.73-4.21-7.36-6.31-2.63-1.58-5.26-3.68-7.36-6.31-2.63-2.1-5.26-4.73-8.41-6.84v-.53c11.04,7.89,21.04,15.78,31.03,24.19Z"/>
  <path class="cls-109" d="M989.71,197.21c4.21,4.21,8.41,8.41,12.62,12.62,3.68,3.16,7.36,5.78,11.04,8.94-1.58-.53-3.16-1.58-4.73-2.63-2.1-1.58-4.21-3.16-6.31-4.73-4.21-3.68-7.89-7.89-12.1-11.57,0-1.58-.53-2.1-.53-2.63Z"/>
  <path class="cls-112" d="M1075.96,202.99c-.53-.53-.53-1.05-1.05-1.05v.53c1.58,3.16,2.63,6.31,3.16,9.99-2.1-4.21-4.21-8.94-5.26-13.67,0-1.05,.53-2.1,.53-3.16,1.05,2.1,2.1,4.73,2.63,7.36Z"/>
  <path class="cls-87" d="M881.38,231.39q-.53,0,0,0c1.05-11.04,4.73-21.04,10.52-29.98h.53c-2.63,6.31-5.78,12.62-7.89,18.93-1.58,3.68-2.63,7.36-3.16,11.04Z"/>
  <path class="cls-168" d="M969.73,189.84c1.58,.53,2.63,1.58,3.16,3.16,1.58,3.68,2.63,6.84,4.21,10.52,1.05,1.58,2.1,3.68,3.16,4.73,.53,1.05,1.05,2.1,1.05,3.16-.53-.53-1.05-.53-1.05,0-2.1-2.63-3.68-4.73-5.78-7.36,.53-5.26-1.05-9.99-4.73-14.2Z"/>
  <path class="cls-98" d="M931.34,227.18c-.53-3.16-.53-6.31-.53-9.99,0-2.63,.53-5.26,1.58-7.89,1.58-3.16,2.63-5.78,3.68-8.94v2.1c-1.58,8.41-3.16,16.83-4.73,24.72Z"/>
  <path class="cls-117" d="M1008.12,191.95c0-.53,.53-.53,1.05,0,6.31,4.73,13.15,9.47,18.93,14.72l-3.16-1.58c-5.78-4.21-11.04-8.94-16.83-13.15Z"/>
  <path class="cls-37" d="M1075.43,194.58c3.68,5.26,6.31,10.52,7.89,16.3-1.05-1.58-1.58-3.16-2.63-4.73-1.05-3.68-3.16-7.89-5.26-11.57Z"/>
  <path class="cls-89" d="M1028.1,187.74c4.21,2.1,7.89,4.73,11.57,7.89,3.68,3.16,7.36,6.31,11.04,8.94,6.84,6.31,11.04,14.2,12.62,23.14,0,.53-.53,.53-.53,1.05-3.16-8.41-7.36-16.3-12.62-23.14-7.36-5.78-14.72-11.57-22.61-16.83,0,0,0-.53,.53-1.05Z"/>
  <path class="cls-119" d="M1077.01,205.09c.53,1.05,1.58,1.58,2.63,2.63,.53,0,1.05-.53,1.58-1.05,1.05,1.58,1.58,3.16,2.63,4.73,1.05,4.73,1.05,9.47,0,14.2-.53-3.16-1.58-6.84-2.1-9.99-1.58-3.68-3.16-7.36-4.73-10.52Z"/>
  <path class="cls-125" d="M952.37,203.52c.53,1.05,.53,2.63,.53,4.21,.53,1.58,1.05,3.16,1.58,4.73v1.05s-.53,0-.53-.53c-.53,3.68,0,6.84,1.58,9.99,.53,2.63,1.05,5.26,1.05,8.41-.53,0-1.05,.53-1.05,1.05-.53,2.63-1.05,5.26-1.58,7.89v-1.58c.53-5.26,.53-9.99,0-15.25,0-1.58-1.05-3.16-2.1-4.21-.53,1.05-.53,1.58-.53,2.63v-6.84c0-1.05-.53-2.1-1.05-2.63,1.58-2.63,2.1-5.78,2.1-8.94Z"/>
  <path class="cls-77" d="M1000.76,205.09c0-.53,.53-.53,1.05,0,5.26,3.68,11.04,7.36,16.83,10.52,7.36,4.73,13.15,10.52,17.88,18.41-4.21-5.78-8.94-11.04-14.72-15.25-8.41-3.68-14.72-8.41-21.04-13.67Z"/>
  <path class="cls-98" d="M1071.22,209.3c1.05,0,1.58,.53,1.58,1.58,5.26,9.99,5.78,21.04,2.63,32.08-2.1,6.84-3.68,13.67-5.78,20.51-1.05,2.63-2.1,4.73-4.21,6.84-.53-1.05-.53-1.58,0-2.63,2.1-7.89,4.21-15.78,6.84-23.14,2.63-7.89,3.16-16.3,2.63-24.19-1.05-4.21-2.1-7.36-3.68-11.04Z"/>
  <path class="cls-35" d="M919.77,205.62c.53,2.63,.53,5.26,0,8.41,0-.53-.53-1.58-.53-2.1,.53-2.1,.53-4.21,.53-6.31Z"/>
  <path class="cls-69" d="M954.48,212.98c.53,.53,1.05,1.05,1.05,1.58-.53,2.63-.53,5.26-.53,7.89-1.05-3.16-1.58-6.31-1.58-9.99,.53,.53,1.05,.53,1.05,.53Z"/>
  <path class="cls-102" d="M974.99,211.41c1.58,4.21,3.16,7.89,5.78,11.57,5.26,6.31,10.52,12.1,15.78,18.41,3.68,8.94,7.89,17.35,12.1,26.29,0,3.16,.53,6.31,.53,8.94,1.58,9.47,3.68,19.46,5.26,28.92,.53,4.21,0,8.41-1.05,12.62-.53,1.58-1.58,2.63-2.63,3.68,0,.53,.53,1.05,.53,1.05-.53,1.58-1.05,3.68-1.05,5.78-2.1,5.78-4.21,11.57-5.78,17.35-.53-1.05-.53-1.58,0-2.63,1.05-2.63,2.1-4.73,2.63-7.36,1.05-6.84,2.63-13.15,4.73-19.98,.53-2.1,.53-4.73,0-6.84-1.58-7.36-3.16-14.72-4.21-22.09-.53-5.78-.53-11.57-1.05-17.35-.53-2.1-1.05-4.21-2.1-6.31-3.68-6.84-6.84-13.67-9.47-21.04-3.68-5.26-7.89-9.99-12.1-14.2-4.73-5.26-7.36-10.52-7.89-16.83Z"/>
  <path class="cls-78" d="M980.25,211.41q.53-.53,1.05,0c6.31,7.36,12.62,14.72,19.46,22.09,8.94,6.31,15.25,14.72,18.93,25.24-13.15-15.78-26.29-31.55-39.44-47.33Z"/>
  <path class="cls-131" d="M1039.15,216.66c3.68,3.68,6.31,8.41,7.89,13.15h-1.05c-2.63-4.21-5.26-7.89-7.89-12.1-1.58-1.58-3.16-3.68-4.73-5.26q.53-.53,1.05,0c1.58,1.58,3.16,2.63,4.73,4.21Z"/>
  <path class="cls-97" d="M955.53,215.09c.53,1.05,1.05,2.63,1.05,3.68,.53,5.26,.53,11.04,1.05,16.3-.53-.53-.53-1.05-1.05-1.05,0-1.05,0-2.1-.53-3.16-.53-2.63-.53-5.78-1.05-8.41,0-2.63,.53-5.26,.53-7.36Z"/>
  <path class="cls-129" d="M985.51,213.51c0-.53,.53-.53,1.05,0,5.78,6.31,12.62,11.04,19.98,14.72,3.68,2.1,6.84,4.73,10.52,6.84,1.05,1.05,1.58,2.1,2.63,3.16-.53,0-1.58,0-2.1-.53-2.63-1.58-4.73-2.63-7.36-4.21-1.05,0-2.63-.53-3.68-.53-2.1-2.63-4.21-4.73-7.36-5.26-4.73-4.73-9.47-9.47-13.67-14.2Z"/>
  <path class="cls-175" d="M1071.75,220.87c0-.53-.53-.53-1.05-1.05-1.05,5.78-1.58,11.57-1.58,17.35,0,1.58-.53,3.16-1.05,4.73-.53-3.68-.53-7.89,0-11.57,.53-4.21,1.58-7.89,2.1-12.1q.53,.53,1.05,0c.53,1.05,.53,1.58,.53,2.63Z"/>
  <path class="cls-138" d="M960.26,216.66c.53,1.05,1.58,2.1,2.1,3.16v-3.16c2.1,3.16,3.68,6.84,4.73,10.52-1.05-1.58-2.1-3.16-3.16-4.73q-.53-.53-.53,0h-1.05v-1.05c-1.58-1.05-3.16-2.63-4.21-4.73,.53-.53,1.05-.53,2.1,0Z"/>
  <path class="cls-152" d="M930.81,217.19c0,3.16,0,6.84,.53,9.99,0,.53,0,1.05-.53,1.05-.53-3.68-.53-7.36,0-11.04Z"/>
  <path class="cls-152" d="M1071.75,220.87c.53,5.26,0,11.04-1.58,16.3h-1.05c0-5.78,.53-11.57,1.58-17.35,.53,.53,1.05,1.05,1.05,1.05Z"/>
  <path class="cls-46" d="M859.82,221.4v-1.05c0-.53,0-1.05,.53-1.58,0,1.05,0,2.1-.53,2.63Z"/>
  <path class="cls-78" d="M967.1,227.18c4.21,6.84,7.89,13.15,12.1,19.98,2.63,5.26,4.73,10.52,6.31,16.3,0,.53,0,1.05-.53,1.05-2.63-5.78-5.26-11.04-7.89-16.83-3.68-6.31-7.89-13.15-11.57-19.46-1.05-2.1-1.58-3.68-2.1-5.78,0-.53,.53-.53,.53,0,1.05,1.58,2.1,3.16,3.16,4.73Z"/>
  <path class="cls-107" d="M859.82,220.87v1.05c-1.58,5.26-3.68,10.52-5.78,15.78,0-2.63,.53-4.73,1.05-6.84,1.58-4.21,3.16-7.36,4.73-9.99Z"/>
  <path class="cls-14" d="M840.36,222.45h1.05c-.53,2.1-1.05,4.21-1.05,6.84,0-1.05,0-2.1-.53-3.16,0-1.05,0-2.1,.53-3.68Z"/>
  <path class="cls-107" d="M1056.5,223.5c4.21,3.68,5.78,8.94,5.26,14.72-1.05-5.26-3.16-9.99-5.26-14.72Z"/>
  <path class="cls-182" d="M954.48,212.46c1.58,1.05,2.63,1.58,4.21,2.1,.53,.53,1.05,1.05,1.05,2.1-1.05-.53-1.58-.53-2.63,0,1.05,1.58,2.63,3.16,4.21,4.73v1.05h1.05c.53,2.1,1.05,3.68,2.1,5.78-1.05-.53-1.58-.53-2.1,1.05,1.58,4.21,2.1,8.94,1.58,13.67-1.05-3.68-2.1-7.36-3.16-11.04,.53-2.1,1.58-3.16,2.63-4.73-2.1-2.1-3.68-4.21-5.78-6.31,0-1.05-.53-2.1-1.05-3.16v1.05c-.53-1.05-.53-2.63-1.05-3.68-.53-.53-1.05-1.05-1.05-1.58,0-.53,0-1.05,0-1.05Z"/>
  <path class="cls-86" d="M960.79,334.99c1.58,1.05,3.68,2.1,5.78,2.63,3.68,1.05,7.36,1.58,10.52,2.63-.53,0-.53,.53-1.05,0-9.99-1.05-19.46-4.21-27.87-9.99-11.57-9.47-22.09-19.98-30.5-32.6-5.26-9.47-7.89-19.46-7.36-30.5-2.63-8.41-4.21-16.83-4.73-25.24,0-4.21,.53-7.89,1.58-11.57,.53,1.58,1.05,3.16,1.58,4.73,.53,5.78,1.58,11.04,2.63,16.3,1.58,5.26,2.63,10.52,4.21,16.3-.53,15.78,4.21,29.98,14.72,41.54,7.89,8.94,16.83,16.83,25.77,24.19,1.58,0,3.16,1.05,4.73,1.58Z"/>
  <path class="cls-78" d="M1046.51,229.81h1.05c2.1,3.68,4.21,7.36,5.26,11.04,2.63,6.84,4.21,13.67,5.78,20.51,.53,10.52-.53,20.51-3.16,30.5-.53,1.05-1.05,2.1-2.1,3.16,.53-5.78,1.58-12.1,2.63-17.88,1.05-9.99,.53-19.98-2.1-29.98-2.63-5.78-4.73-11.57-7.36-17.35Z"/>
  <path class="cls-79" d="M1024.95,228.23c0-.53,.53-.53,1.05,0,3.68,3.68,6.84,7.89,9.47,12.1,.53,.53,.53,1.05,.53,1.58-3.68-4.73-7.36-9.47-11.04-13.67Z"/>
  <path class="cls-137" d="M1039.15,216.66c2.63,1.05,4.73,2.63,6.31,4.73,3.68,5.26,6.84,10.52,9.47,16.3,2.63,7.89,3.68,15.78,3.16,23.66-1.58-6.84-3.16-13.67-5.78-20.51-1.58-4.21-3.16-7.89-5.26-11.04-1.58-5.26-4.21-9.47-7.89-13.15Z"/>
  <path class="cls-44" d="M859.82,241.91c1.05-4.21,2.1-7.89,3.68-12.1-1.05,4.21-2.1,7.89-3.68,12.1Z"/>
  <path class="cls-180" d="M915.04,232.97c.53,0,.53,.53,.53,1.05,0,6.31,.53,12.1,1.58,18.41-.53,0-.53,.53-1.05,.53-1.58-1.05-2.63-2.63-3.16-4.73-.53-3.16-.53-6.31,0-8.94,1.05-2.63,1.58-4.21,2.1-6.31Z"/>
  <path class="cls-162" d="M880.85,231.39h0c0,1.58,0,3.16-.53,4.73-.53-1.58,0-3.16,.53-4.73Z"/>
  <path class="cls-178" d="M956.58,230.86c.53,1.05,.53,2.1,.53,3.16s0,2.1,1.05,2.63c-.53,4.21-.53,8.94-1.05,13.15-.53,1.58-.53,3.16-.53,4.73-1.05-2.1-1.58-3.68-2.63-5.78-.53-3.16-.53-6.84,0-9.99v1.58c.53-2.63,1.05-5.26,1.58-7.89,0-1.05,.53-1.05,1.05-1.58Z"/>
  <path class="cls-40" d="M957.11,234.02c.53,.53,.53,1.05,1.05,1.05v1.05c-1.05-.53-1.58-1.05-1.05-2.1Z"/>
  <path class="cls-87" d="M895.58,207.2l.53,.53c-2.1,8.94-3.68,17.88-5.26,27.35-.53,4.21-.53,8.94,0,13.15,.53,5.78,1.58,11.57,2.63,17.35,0,5.78,.53,11.04,1.58,16.3,1.05,5.78,2.63,11.57,4.21,16.83-2.63-7.36-5.26-14.72-6.84-22.61-.53-9.99-1.58-19.98-3.16-29.45,.53-11.04,1.58-22.61,4.21-33.13,.53-2.1,1.05-4.21,2.1-6.31Z"/>
  <path class="cls-171" d="M917.14,234.02c1.58,6.31,2.63,13.15,3.16,19.98-2.1-6.84-3.16-13.15-3.16-19.98Z"/>
  <path class="cls-144" d="M1082.79,236.12c.53,2.63,.53,4.73,0,7.36s-1.05,4.73-2.63,6.84c1.05-4.73,2.1-9.47,2.63-14.2Z"/>
  <path class="cls-73" d="M899.26,243.48c-.53,.53-.53,1.58-.53,2.63-.53-4.73-.53-8.94,0-13.67,0,3.68,0,7.36,.53,11.04Z"/>
  <path class="cls-33" d="M859.82,241.91c-1.58,4.73-2.63,9.47-3.16,14.72,0-.53,0-1.05-.53-1.58,.53-5.26,1.58-9.47,3.68-13.15Z"/>
  <path class="cls-44" d="M948.69,247.69q-.53,0,0,0c-1.05-.53-1.05-2.1-1.05-3.16,.53,.53,.53,2.1,1.05,3.16Z"/>
  <path class="cls-185" d="M979.19,247.17c1.58,.53,2.63,1.05,3.16,2.63,3.68,7.89,6.84,15.78,9.99,23.66v3.16c-1.05-3.16-2.63-6.84-3.68-9.99-1.58-2.63-2.1-2.63-1.58,.53-1.05-.53-1.58-1.05-2.1-2.1,0-.53,.53-.53,.53-1.05-2.1-6.31-4.21-11.57-6.31-16.83Z"/>
  <path class="cls-82" d="M1069.65,237.17h1.05c-1.58,7.36-3.68,15.25-6.31,22.61,0,.53-.53,.53-.53,0,1.05-4.73,2.63-9.99,4.73-14.72,.53-1.05,.53-2.1,.53-3.16,0-1.58,0-3.16,.53-4.73Z"/>
  <path class="cls-88" d="M948.69,247.69c2.1,7.89,4.21,15.25,6.84,22.61,3.16,7.36,7.89,13.15,13.67,18.41,4.21,2.1,8.94,4.21,13.15,6.31,5.26,4.21,8.94,9.99,11.04,16.3,1.58,6.31,3.16,13.15,4.73,19.46v3.68c-1.05-2.1-2.63-4.21-4.21-6.31-2.1-7.36-5.26-14.72-8.94-22.09-2.1-3.68-4.21-6.84-6.84-9.47-1.05-.53-2.1-1.58-2.63-2.1-3.68-1.58-6.84-3.16-9.99-5.26-10.52-12.1-15.78-25.77-16.83-41.54q-.53,0,0,0Z"/>
  <path class="cls-83" d="M953.95,248.22c.53,2.1,1.58,3.68,2.63,5.78,0-1.58,.53-3.16,.53-4.73,0,3.16,.53,6.31,1.58,8.94,3.68,6.84,7.89,13.67,12.1,19.98,.53,1.05,1.05,2.1,1.58,3.16l-.53,.53c-6.84-7.36-12.1-15.78-16.3-25.24-.53-2.63-1.05-5.26-1.58-8.41Z"/>
  <path class="cls-77" d="M1042.83,271.36h0c-.53-4.21-.53-8.41-1.05-12.62-1.05-3.68-2.1-7.36-3.16-11.04,3.16,4.73,4.73,9.99,4.73,15.78,0,2.63-.53,5.26-.53,7.89Z"/>
  <path class="cls-102" d="M885.06,249.27c0,.53,.53,1.58,.53,2.63-2.63,18.41-.53,35.76,6.84,52.59,4.73,8.94,11.04,16.3,19.46,21.56,2.63,1.58,5.26,3.16,7.36,4.73,.53,.53,1.05,1.05,1.58,2.1l-.53,.53c-4.21-1.58-8.41-3.16-12.62-5.26-2.1-1.05-4.21-2.63-6.31-4.21-7.36-7.89-12.62-17.35-15.25-28.4-3.16-11.04-4.21-22.61-3.68-34.18,.53-4.21,1.58-8.41,2.63-12.1Z"/>
  <path class="cls-34" d="M899.26,243.48c0,3.16,.53,6.84,1.05,9.99-.53,0-.53,.53-.53,1.05-1.05-2.63-1.05-5.26-1.05-8.41,0-1.05,0-2.1,.53-2.63Z"/>
  <path class="cls-84" d="M1026.52,251.9c.53,1.05,1.05,2.1,1.58,3.16,2.63,6.84,4.21,13.15,5.78,20.51,1.05,7.36,1.05,14.72,1.05,22.09-1.05,4.21-2.63,7.89-4.73,11.57-2.1,2.1-3.68,3.68-5.78,5.78,2.1-4.21,4.21-8.41,5.78-12.62,1.05-4.21,1.58-8.41,1.58-13.15-.53-5.26-1.05-11.04-1.58-16.3-1.05-6.84-2.63-14.2-3.68-21.04Z"/>
  <path class="cls-64" d="M839.31,254c.53,.53,1.05,.53,2.1,.53,0,1.58,.53,2.63,1.05,3.16,0,3.16-.53,6.31-.53,8.94-1.58-3.68-2.1-7.89-2.63-12.62Z"/>
  <path class="cls-83" d="M1038.09,263.47c0,2.63,0,4.73-.53,6.84-.53-4.73-1.58-9.47-2.63-14.2,0-.53,.53-1.05,.53-1.58,1.58,2.63,2.63,5.78,2.63,8.94Z"/>
  <path class="cls-70" d="M873.49,258.21c.53,3.16,.53,6.31,.53,9.47v1.58c-1.05-3.68-1.05-7.36-.53-11.04Z"/>
  <path class="cls-48" d="M873.49,258.21s.53-.53,0,0c1.05,3.16,1.05,6.31,.53,9.47,0-3.16,0-6.31-.53-9.47Z"/>
  <path class="cls-104" d="M1048.61,261.36c.53,0,.53,.53,.53,1.05,.53,6.84,0,13.67-1.58,20.51,.53-6.84,.53-14.2,1.05-21.56Z"/>
  <path class="cls-76" d="M936.07,264.52c-.53,0-.53,.53-.53,1.05-.53-2.63-1.05-4.73-1.58-7.36,1.05,1.58,1.58,4.21,2.1,6.31Z"/>
  <path class="cls-83" d="M936.07,264.52c1.58,7.89,3.68,15.25,7.36,22.61,3.16,4.73,6.84,9.47,11.04,13.67,6.84,5.26,13.67,11.04,20.51,16.83,2.63,3.16,4.73,6.31,6.84,10.52,1.58,4.21,2.1,8.41,2.63,12.62-.53-2.1-1.58-3.68-2.63-5.78-2.1-2.1-4.21-4.73-5.78-7.36-.53-1.05-.53-2.1-1.05-3.16,1.58,2.1,3.16,4.21,4.73,6.84v-.53c-2.63-6.31-6.31-11.57-12.1-15.25-8.94-5.78-16.83-13.15-23.14-21.56-5.26-7.89-8.41-16.83-9.47-26.82,.53-2.1,.53-2.63,1.05-2.63Z"/>
  <path class="cls-87" d="M992.34,276.09c1.05,3.16,1.05,5.78,1.05,8.94-1.58-6.31-3.68-12.62-6.31-18.41-.53-3.16,0-3.16,1.58-.53,1.05,3.16,2.63,6.84,3.68,9.99Z"/>
  <path class="cls-42" d="M1038.09,263.47c.53,3.16,.53,6.31,0,9.47,0-1.05-.53-1.58-.53-2.63,.53-2.1,.53-4.73,.53-6.84Z"/>
  <path class="cls-169" d="M860.35,262.42c.53,5.26,1.58,10.52,2.1,15.78-.53,.53-1.05,.53-1.58,1.05-1.05-5.26-1.58-11.04-.53-16.83Z"/>
  <path class="cls-96" d="M1026.52,279.24c0,.53,0,1.05-.53,1.58-1.05-4.21-2.1-7.89-3.68-11.57q.53-.53,1.05,0c1.58,3.16,2.63,6.84,3.16,9.99Z"/>
  <path class="cls-161" d="M1076.48,268.73q0,.53,.53,1.05c0,1.05-.53,1.58-1.05,2.63-.53-1.58,0-2.63,.53-3.68Z"/>
  <path class="cls-79" d="M1017.58,274.51c.53,1.58,1.05,3.16,1.58,4.73,.53,7.36,0,14.72-.53,22.61-.53-9.47-1.05-18.41-1.05-27.35Z"/>
  <path class="cls-76" d="M1042.3,271.36q.53,0,0,0c.53,3.68,0,7.89-1.05,11.57,.53-3.68,.53-7.36,1.05-11.57Z"/>
  <path class="cls-68" d="M876.12,285.55s-.53,0,0,0c-1.05-1.05-1.05-2.63-.53-3.68,0,1.05,0,2.63,.53,3.68Z"/>
  <path class="cls-135" d="M987.61,280.82c.53,0,.53,.53,1.05,1.05,1.05,6.31,2.63,13.15,4.21,19.46-2.63-6.31-4.73-13.15-5.26-20.51Z"/>
  <path class="cls-42" d="M1026.52,279.24c.53,2.1,.53,4.21,0,6.31,0-1.58-.53-3.16-.53-4.73,0,0,.53-.53,.53-1.58Z"/>
  <path class="cls-103" d="M875.6,285.55s.53,0,0,0c2.1,8.41,3.68,16.3,5.26,24.19-2.63-7.36-4.73-15.78-5.26-24.19Z"/>
  <path class="cls-110" d="M939.23,300.81c-.53-.53-1.05-.53-1.58-1.05v.53c-2.1-2.1-3.68-5.26-4.21-8.41,2.1,2.63,4.21,5.78,5.78,8.94Z"/>
  <path class="cls-98" d="M1035.99,310.27c-1.05,2.1-2.63,3.68-3.68,5.78-4.21,4.73-8.94,8.94-13.67,12.62,.53-1.58,1.05-2.63,2.63-3.68,3.68-2.63,7.36-6.31,9.99-9.99,2.1-4.73,3.68-9.47,5.78-14.2,.53-.53,1.05-1.05,1.58-1.58,.53-2.63,1.58-5.26,2.1-7.89-.53,6.84-2.1,13.15-4.73,18.93Z"/>
  <path class="cls-132" d="M881.38,290.29c.53,0,.53,.53,1.05,1.05,.53,2.1,1.05,3.68,1.58,5.26,0,3.68,.53,7.36,1.58,10.52,1.05,2.1,2.1,4.73,3.16,6.84,1.05,2.1,2.63,3.68,4.21,5.26,.53,.53,.53,1.05,0,1.05-.53-1.05-1.58-1.58-2.63-2.1v1.05q-.53,.53-1.05,0c-4.21-4.73-6.84-9.99-7.89-16.3,.53-3.68,0-8.41,0-12.62Z"/>
  <path class="cls-11" d="M1067.02,296.6c0,.53,.53,.53,.53,1.05-.53,.53-1.05,.53-1.58,0,0-1.05,.53-1.05,1.05-1.05Z"/>
  <path class="cls-96" d="M1035.99,315l-.53-.53c.53-1.05,.53-1.58,1.05-2.63,3.16-5.26,6.31-11.04,9.47-16.3-1.05,6.84-4.73,13.15-9.99,19.46Z"/>
  <path class="cls-89" d="M939.23,300.81c6.31,7.89,14.2,14.2,23.14,18.41v-1.05c1.58,2.1,3.16,4.21,4.21,6.84-.53,.53-1.05,.53-2.1,0-2.63-2.63-5.78-4.73-8.94-6.84-2.1-2.1-4.21-3.16-6.84-4.21-4.21-3.68-8.41-8.41-11.57-13.15v-.53c1.05,0,1.58,.53,2.1,.53Z"/>
  <path class="cls-179" d="M897.68,304.49c2.63,3.16,4.73,6.84,6.84,10.52,1.05,1.05,2.63,2.1,3.68,2.63,0,1.58,.53,1.58,1.05,1.05,1.58,1.58,2.63,3.16,4.21,5.26,2.1,1.58,3.68,2.63,5.78,3.68-.53,.53-1.05,.53-1.05,0-7.89-4.21-14.2-9.99-19.98-16.83-1.05-1.58-2.1-3.16-2.63-5.26,1.05-.53,1.58-1.05,2.1-1.05Z"/>
  <path class="cls-1" d="M1061.76,303.96c0,.53,.53,.53,.53,1.05-.53,.53-1.05,.53-1.58,0,0-.53,.53-1.05,1.05-1.05Z"/>
  <path class="cls-84" d="M1021.27,306.06h1.05c0,3.68-.53,6.84-1.58,10.52-1.58,2.63-3.16,4.73-4.73,7.36-2.1,5.26-4.73,11.04-7.36,16.3,.53-5.26,1.58-9.99,4.21-14.2,3.68-4.73,5.78-10.52,6.31-16.83,1.05-1.58,1.58-2.63,2.1-3.16Z"/>
  <path class="cls-72" d="M1029.68,326.05c4.73-4.73,8.94-9.99,13.15-14.72,2.63-3.16,4.73-6.84,6.84-10.52-2.63,7.36-6.31,13.67-11.57,18.93-2.63,2.1-5.26,4.21-8.41,6.31Z"/>
  <path class="cls-141" d="M914.51,307.64c2.1,3.16,4.21,6.84,6.31,10.52-1.58-1.05-3.16-2.1-4.21-3.68l-.53,.53c.53,1.05,.53,2.1,1.05,3.68-1.05-1.58-1.58-2.63-2.63-4.21-2.63-2.63-4.73-5.78-7.36-8.94-.53-1.05-1.05-2.63-1.05-3.68,2.63,2.63,4.73,5.26,7.89,7.36,.53-.53,.53-1.05,.53-1.58Z"/>
  <path class="cls-105" d="M962.37,317.63c-7.36-5.26-13.67-11.04-19.98-17.35-.53-.53-.53-1.58-1.05-2.1,1.58,2.1,3.68,4.21,5.78,6.31,4.21,3.68,8.94,7.36,13.67,10.52,.53,1.05,1.05,2.1,1.58,2.63Z"/>
  <path class="cls-109" d="M1020.74,324.47c-2.1,1.58-3.16,4.21-4.21,6.84-1.58,2.63-2.63,5.26-3.68,8.41-.53,1.05-.53,2.1-1.05,3.16,.53-5.78,2.63-11.57,5.78-17.35,3.68-3.68,6.84-7.36,10.52-10.52,1.05-1.05,1.58-2.1,2.63-3.16,0,1.05-.53,2.1-1.05,3.16-2.63,3.16-5.26,6.31-8.94,9.47Z"/>
  <path class="cls-53" d="M949.22,313.43c2.63,1.05,4.73,2.1,6.84,4.21,0,1.05,.53,1.58,1.05,2.1-3.16-2.1-5.78-3.68-7.89-6.31Z"/>
  <path class="cls-105" d="M1003.91,317.63c0,9.99-1.05,19.98-3.68,29.45,1.05-9.47,2.1-19.46,3.68-29.45Z"/>
  <path class="cls-78" d="M1034.41,317.11c-.53,1.05-1.05,1.58-1.58,2.63-5.78,5.78-11.57,11.57-17.35,16.83,.53-1.58,1.58-2.63,2.1-4.21,5.78-5.26,11.57-10.52,16.83-15.25Z"/>
  <path class="cls-113" d="M1035.99,310.27c0,.53,0,1.05,1.05,1.05-.53,1.05-1.05,1.58-1.05,2.63q0,.53,.53,.53c-.53,.53-1.05,1.58-1.58,2.1-5.78,5.26-11.04,9.99-16.3,15.25-1.05,1.58-1.58,2.63-2.1,4.21v1.05c-1.05,.53-1.58,1.58-2.63,2.1,.53-3.16,2.1-5.78,3.68-8.41,1.05-.53,1.58-1.05,2.1-2.1,4.73-4.21,9.47-8.41,13.67-12.62,.53-1.58,1.58-3.68,2.63-5.78Z"/>
  <path class="cls-61" d="M955.53,317.63c3.16,2.1,6.31,4.21,8.94,6.84,.53,.53,1.58,.53,2.1,0,0,.53,.53,1.05,.53,1.58-.53,0-.53,.53,0,1.05-1.05,.53-2.1,.53-3.16,0-3.16-1.05-3.16-1.58,0-1.58-1.05-1.05-1.58-2.1-2.63-2.63-1.58-1.05-3.16-2.1-4.21-3.16-.53-.53-1.05-1.58-1.58-2.1Z"/>
  <path class="cls-116" d="M961.31,322.89c1.05,1.05,2.1,1.58,2.63,2.63-3.16-.53-3.16,0,0,1.58,1.58,2.1,3.68,3.68,6.31,5.26-1.05,0-2.1,0-2.63-.53q-.53,0-1.05,.53c-1.05-.53-1.58-1.58-2.63-2.63-2.1-1.05-4.21-2.63-5.78-4.21q-.53-.53,0-1.05c.53,.53,1.05,1.05,1.58,1.58l.53-.53c-.53-.53-.53-1.05-1.05-1.05,1.58-.53,2.1-1.05,2.1-1.58Z"/>
  <path class="cls-181" d="M961.84,331.83c1.58,1.58,3.16,2.1,4.73,3.16,4.21,1.58,8.41,3.16,12.62,5.26l-.53,.53c-1.05,0-1.58,0-2.63-.53h1.05c-3.68-.53-7.36-1.58-10.52-2.63-2.1-.53-4.21-1.58-5.78-2.63-2.1-1.58-4.21-3.68-6.31-5.78-.53-1.05-.53-1.58-1.05-2.63,.53-1.05,1.05-1.05,2.1,0,2.1,1.58,4.21,3.68,6.31,5.26Z"/>
  <path class="cls-65" d="M1029.68,326.05c-.53,.53-1.05,1.05-1.58,1.05,.53-.53,1.05-1.05,1.58-1.05Z"/>
  <path class="cls-151" d="M1020.74,324.47q0,.53,.53,1.05c-1.05,1.05-2.1,2.1-2.63,3.68-.53,1.05-1.05,1.58-2.1,2.1,1.05-2.63,2.1-4.73,4.21-6.84Z"/>
  <path class="cls-80" d="M967.1,326.05c2.63,3.16,5.78,5.78,8.94,7.89,2.63,2.1,4.73,4.73,6.31,7.89,.53,1.05,1.05,1.58,2.1,1.58,1.05,.53,1.58,1.58,2.63,2.63h-1.05c-2.63-1.58-5.78-2.1-8.94-1.58-4.73-.53-9.99-1.58-14.72-2.63v-.53c6.84,1.05,13.67,1.58,19.98,1.58-1.05-1.05-2.63-2.1-4.21-2.1,0,0,0-.53,.53-.53-4.21-2.1-8.41-3.68-12.62-5.26q0-.53,.53-.53h5.78c-2.1-.53-4.21-1.58-5.78-2.1,0,0,.53-.53,1.05-.53,1.05,.53,1.58,.53,2.63,.53-2.63-1.05-4.73-3.16-6.31-5.26,1.05,.53,2.1,.53,3.16,0q-.53-.53,0-1.05Z"/>
  <path class="cls-17" d="M1087,327.63c0,.53,0,1.05,.53,1.05-.53,0-1.58-.53-2.1-1.05,.53-.53,1.05-.53,1.58,0Z"/>
  <path class="cls-152" d="M1028.1,327.63c-.53,1.05-1.05,1.05-1.58,1.05,.53-1.05,1.05-1.05,1.58-1.05Z"/>
  <path class="cls-109" d="M993.39,329.73c2.1,1.58,3.16,3.68,2.63,6.84q-.53-.53-1.05-1.05c-.53-1.58-1.58-3.16-2.1-5.26,0,0,.53,0,.53-.53Z"/>
  <path class="cls-111" d="M993.39,328.15c1.58,2.1,3.16,4.21,4.21,6.31,0-1.05,.53-2.63,0-3.68,1.05,.53,1.05,1.58,1.05,2.63-.53,2.63-.53,4.73-.53,7.36-.53,2.63-1.05,4.73-1.58,7.36q-.53-.53-.53-1.05c.53-1.05,.53-2.1,1.05-3.16-.53-2.1-.53-4.73,0-6.84-1.05,0-1.58,0-2.1-1.05,.53,0,.53,.53,1.05,1.05,.53-2.63-.53-4.73-2.63-6.84,0-1.05,0-1.58,0-2.1Z"/>
  <path class="cls-83" d="M991.82,349.19c-3.68-4.21-5.78-9.47-5.26-15.25,0-1.05,.53-1.58,1.05-2.63,.53,5.78,2.1,11.57,4.21,17.88,.53-.53,0-.53,0,0Z"/>
  <path class="cls-89" d="M996.02,347.08c0,.53,0,1.05,.53,1.05q-.53,.53-1.05,0c-2.63-5.26-4.21-10.52-4.21-16.3-2.63-3.16-3.68-6.84-3.68-11.04,3.68,8.41,6.31,16.83,8.41,26.29Z"/>
  <path class="cls-45" d="M961.84,331.83c1.58,1.05,3.16,1.58,5.26,2.63q-.53,0-.53,.53c-2.1-.53-3.68-1.58-4.73-3.16Z"/>
  <path class="cls-36" d="M1023.89,330.25h1.05c-2.1,2.1-4.21,4.21-6.31,5.78q-.53-.53,0-1.05c1.58-1.05,3.68-3.16,5.26-4.73Z"/>
  <path class="cls-121" d="M981.82,327.63c.53,0,1.58,.53,1.58,1.05,.53,3.16,1.05,6.31,1.05,9.47,.53-1.05,1.05-2.63,1.05-4.21l.53-.53c-.53,5.78,1.05,11.04,5.26,15.25-1.58,1.05-2.1,.53-2.63-1.05-.53-.53-1.05-1.05-1.58-1.58-.53-1.05-1.58-1.58-2.63-2.63,.53,0,.53-.53,1.05-1.05-.53-1.05-1.05-2.1-1.58-3.16,0-3.68-.53-7.89-2.1-11.57Z"/>
  <path class="cls-3" d="M882.96,339.19c0-.53,0-1.05-.53-1.05v-.53c.53,.53,1.05,1.05,1.58,1.58,0,.53-.53,.53-1.05,0Z"/>
  <path class="cls-154" d="M962.89,341.3q0,.53,0,0c-2.63,0-5.26-.53-7.89-1.05l.53-.53c2.1,.53,4.73,1.05,7.36,1.58Z"/>
  <path class="cls-16" d="M1088.05,340.25v1.05q-2.63,0,0-1.05Z"/>
  <path class="cls-145" d="M977.62,344.45c3.16-.53,6.31,0,8.94,1.58-.53,0-1.05,0-1.05,1.05-4.21-1.58-7.89-2.1-12.1-1.05-.53,0-1.05,0-1.05-.53,1.58-.53,3.16-.53,5.26-1.05Z"/>
  <path class="cls-108" d="M973.41,345.51c4.21-.53,8.41-.53,12.1,1.05,.53,.53,1.05,1.05,1.58,2.1-4.73-1.05-8.94-2.1-13.67-3.16Z"/>
  <path class="cls-12" d="M867.71,347.61c-.53,.53-.53,1.05-1.05,1.05-1.05,.53-2.63,.53-4.21,.53v-1.05c2.1-.53,3.68-.53,5.26-.53Z"/>
  <path class="cls-19" d="M867.71,347.61h3.68c-1.58,.53-3.16,.53-4.21,1.05,0,0,0-.53,.53-1.05Z"/>
  <path class="cls-27" d="M1069.65,358.65v1.05s0,.53-.53,.53c-3.16-1.05-3.16-1.58,.53-1.58Z"/>
  <path class="cls-18" d="M901.36,370.22c0-.53,.53-.53,.53-1.05,.53-.53,1.05-.53,1.58,0-.53,.53-1.05,1.05-2.1,1.05q0,.53,0,0Z"/>
  <path class="cls-20" d="M1037.57,368.64v1.05c-6.84,0-6.84-.53,0-1.05Z"/>
  <path class="cls-10" d="M1007.07,383.89c-2.63-.53-5.26-.53-7.36,.53,1.58,0,3.16,.53,4.73,.53-.53,.53-1.05,1.05-2.1,1.05-9.99,1.05-20.51,1.05-30.5,.53-.53-1.05,0-1.58,1.05-2.1,3.16-1.05,6.31-1.58,9.47-1.58,8.41-.53,16.3-.53,24.72,0,.53,0,.53,.53,0,1.05Z"/>
  <path class="cls-13" d="M1007.07,383.89c-.53,.53-1.58,1.05-2.63,1.05-1.58-.53-3.16-.53-4.73-.53,2.63-1.05,5.26-1.05,7.36-.53Z"/>
</svg>