<?xml version="1.0" encoding="utf-8"?>
<!-- Generator: Adobe Illustrator 26.4.1, SVG Export Plug-In . SVG Version: 6.00 Build 0)  -->
<svg version="1.1" id="Layer_1" xmlns="http://www.w3.org/2000/svg" xmlns:xlink="http://www.w3.org/1999/xlink" x="0px" y="0px"
	 viewBox="0 0 1920 1080" style="enable-background:new 0 0 1920 1080;" xml:space="preserve">
<style type="text/css">
	.st0{fill:url(#SVGID_1_);}
	.st1{fill:url(#SVGID_00000171682957672565654210000012022185097305877431_);}
	.st2{fill:url(#SVGID_00000111901939229191956140000013813126902214787222_);}
	.st3{fill:url(#SVGID_00000047030143082126200830000015246087341509490330_);}
	.st4{fill:url(#SVGID_00000165193509458124915510000010414278027256629130_);}
	.st5{fill:url(#SVGID_00000024718088673208493160000009441117543447984294_);}
	.st6{fill:url(#SVGID_00000181792504506069018420000016135143289653106820_);}
	.st7{fill:url(#SVGID_00000183234625556527670440000012537070410499542701_);}
	.st8{fill:url(#SVGID_00000106124694142073817120000010717623824234774969_);}
	.st9{fill:url(#SVGID_00000064338326660175987180000016994554683000527517_);}
	.st10{fill:url(#SVGID_00000040568227518042705300000010504000193898579369_);}
	.st11{fill:url(#SVGID_00000130615130437210567410000015967409773756828325_);}
	.st12{fill:url(#SVGID_00000160894757301787392280000007522951178810683807_);}
	.st13{fill:url(#SVGID_00000153671140742471173530000013247577430804095876_);}
</style>
<linearGradient id="SVGID_1_" gradientUnits="userSpaceOnUse" x1="-71.7512" y1="946.0255" x2="169.98" y2="946.0255" gradientTransform="matrix(1 0 0 -1 0 1080)">
	<stop  offset="0" style="stop-color:#7BD989"/>
	<stop  offset="1" style="stop-color:#2BBEC8"/>
</linearGradient>
<path class="st0" d="M170,127.7l-65.1,84.7c-18,23.4-42.8,38-68.2,42.9c-25.5,4.9-51.6,0.1-72.5-15.6c-21-15.7-32.9-39.4-35.4-65.2
	c-2.4-25.8,4.6-53.7,22-77.5l63-86.3c15.9,11.6,31.8,23.2,47.5,35c17.2,12.7,19.6,38.2,5.6,56.9C80.8,83.9,106,79.1,123,92
	C138.7,103.8,154.4,115.8,170,127.7z"/>
<linearGradient id="SVGID_00000046314191515646747850000010342175754578143146_" gradientUnits="userSpaceOnUse" x1="494.7635" y1="562.5479" x2="662.129" y2="562.5479" gradientTransform="matrix(0.9437 -0.3309 -0.3309 -0.9437 218.7065 1239.7039)">
	<stop  offset="0" style="stop-color:#7BD989"/>
	<stop  offset="1" style="stop-color:#2BBEC8"/>
</linearGradient>
<path style="fill:url(#SVGID_00000046314191515646747850000010342175754578143146_);" d="M656,485.7L632.8,556
	c-6.4,19.4-19.2,34.6-34.7,43.7c-15.5,9-33.7,11.9-51,6.4c-17.3-5.5-30.5-18.2-38.1-34.5c-7.5-16.3-9.3-36.1-3.4-55.7l21.4-70.8
	c13,3.9,26.1,7.9,39.1,12c14.1,4.4,21.6,20.5,16.7,35.9c4.8-15.4,20.2-24.3,34.3-19.8C630.1,477.2,643,481.4,656,485.7z"/>
<linearGradient id="SVGID_00000154411932146347503570000017821241865667814309_" gradientUnits="userSpaceOnUse" x1="1103.09" y1="159.825" x2="1393.2637" y2="159.825" gradientTransform="matrix(1 0 0 -1 0 1080)">
	<stop  offset="0" style="stop-color:#7BD989"/>
	<stop  offset="1" style="stop-color:#2BBEC8"/>
</linearGradient>
<path style="fill:url(#SVGID_00000154411932146347503570000017821241865667814309_);" d="M1103.1,893.4l74.2-76.9
	c10.2-10.6,22.6-18.3,35.8-23.6c6.6-2.6,13.4-4.6,20.3-5.9c6.9-1.4,13.8-2,21-2.4c7.1-0.3,14.2,0,21.2,0.9c1.7,0.2,3.5,0.5,5.2,0.8
	l2.6,0.5l2.6,0.5c3.5,0.7,7,1.5,10.4,2.4c3.4,1,6.8,2.1,10.1,3.4c1.7,0.7,3.3,1.3,4.9,2.1c1.7,0.7,3.3,1.4,5,2.1
	c6.6,3,13,6.7,19.1,11.1c6.3,4.1,12,8.8,17.1,13.9c1.3,1.3,2.5,2.6,3.8,3.9c1.3,1.3,2.5,2.6,3.7,3.9c2.4,2.7,4.6,5.4,6.8,8.3
	c2.1,2.9,4.1,5.8,6,8.9l1.4,2.3l1.4,2.3c0.9,1.5,1.8,3,2.6,4.6c3.3,6.2,6.1,12.7,8.3,19.5c2.2,6.8,4,13.5,5.2,20.5
	c1.2,6.9,1.7,14,1.6,21.1c-0.2,14.2-3.1,28.5-9.4,41.8l-45.7,96.6l-19.4-9.7c-6.5-3.2-13-6.4-19.3-10c-12.7-7-25.4-13.8-37.7-21.4
	c-6.7-4.1-12.5-8.9-17.1-14.3c-4.5-5.5-7.9-11.5-10-17.4c-4.2-12-3.3-24,3.3-33.6c-6.6,9.6-17.6,14.7-30.3,15
	c-6.3,0.2-13.1-0.9-19.8-3.2c-6.7-2.4-13.2-6.1-19.4-10.9c-11.5-8.8-22.4-18.3-33.4-27.7c-5.6-4.6-10.8-9.6-16.1-14.5L1103.1,893.4
	L1103.1,893.4L1103.1,893.4z"/>
<linearGradient id="SVGID_00000134245316621876036870000017686998236959234222_" gradientUnits="userSpaceOnUse" x1="1346.3901" y1="539.1887" x2="1501.4722" y2="539.1887" gradientTransform="matrix(1 0 0 -1 0 1080)">
	<stop  offset="0" style="stop-color:#7BD989"/>
	<stop  offset="1" style="stop-color:#2BBEC8"/>
</linearGradient>
<path style="fill:url(#SVGID_00000134245316621876036870000017686998236959234222_);" d="M1496.8,432.1l4.6,106.8
	c1.2,29.5-5.7,56.5-17.7,76.5c-12,20-28.9,32.8-48.4,34.1c-19.5,1.3-37.9-9.3-52.3-27.6c-14.4-18.2-24.8-44.2-27.3-73.5l-9.2-106.5
	c15.1-1.3,30.3-2.5,45.4-3.6c8.2-0.6,16,3.6,21.8,10.9s9.8,17.6,10.6,29.2c-0.8-11.6,1.9-22.4,6.8-30.4c4.9-8,12.1-13.1,20.3-13.6
	C1466.4,433.5,1481.6,432.8,1496.8,432.1L1496.8,432.1L1496.8,432.1z"/>
<linearGradient id="SVGID_00000088836205407864997490000000682998935233923251_" gradientUnits="userSpaceOnUse" x1="84.25" y1="314.5743" x2="348.8096" y2="314.5743" gradientTransform="matrix(1 0 0 -1 0 1080)">
	<stop  offset="0" style="stop-color:#7BD989"/>
	<stop  offset="1" style="stop-color:#2BBEC8"/>
</linearGradient>
<path style="fill:url(#SVGID_00000088836205407864997490000000682998935233923251_);" d="M294.8,646.2l44.6,111
	c12.3,30.7,12,60.1,1.9,82.9c-10.1,22.8-30,39-57.7,43.4c-27.7,4.3-58-4-85.1-21c-27.1-17-50.9-42.7-64.6-73.1L84.2,679.2
	c21.2-3.5,42.3-6.9,63.5-10.3c23-3.7,50,13,60.2,37.1c-10.3-24.1-0.1-46.7,23-50.2C252.3,652.6,273.6,649.4,294.8,646.2L294.8,646.2
	L294.8,646.2z"/>
<linearGradient id="SVGID_00000034812232208907900310000015545787240014242206_" gradientUnits="userSpaceOnUse" x1="790.8304" y1="615.7258" x2="1020.9399" y2="615.7258" gradientTransform="matrix(1 0 0 -1 0 1080)">
	<stop  offset="0" style="stop-color:#7BD989"/>
	<stop  offset="1" style="stop-color:#2BBEC8"/>
</linearGradient>
<path style="fill:url(#SVGID_00000034812232208907900310000015545787240014242206_);" d="M939.7,569.3l-91.3-55.6
	c-25.2-15.3-43.4-36.7-52.1-59.5c-8.6-22.7-7.5-46.6,5.2-65.5c12.7-18.9,34.4-29,58.7-29.6c24.3-0.6,51,8.1,74.7,25.7l86,63.5
	c-8.7,11.9-17.3,23.7-25.7,35.8c-2.3,3.3-5.4,5.7-9.1,7.3c-3.7,1.6-8,2.5-12.7,2.5c-9.3,0-19.9-3.1-29.6-9.6
	c9.7,6.5,16.6,15.1,20.1,23.7c1.7,4.3,2.6,8.6,2.5,12.6c-0.1,4.1-1.2,7.9-3.3,11.2C955.2,544.3,947.4,556.8,939.7,569.3L939.7,569.3
	L939.7,569.3z"/>
<linearGradient id="SVGID_00000098191092132786072820000003989949051421317812_" gradientUnits="userSpaceOnUse" x1="383.6174" y1="839.7786" x2="632.6308" y2="839.7786" gradientTransform="matrix(1 0 0 -1 0 1080)">
	<stop  offset="0" style="stop-color:#7BD989"/>
	<stop  offset="1" style="stop-color:#2BBEC8"/>
</linearGradient>
<path style="fill:url(#SVGID_00000098191092132786072820000003989949051421317812_);" d="M532.8,145.2l69.5,85.2
	c19.2,23.5,28.9,46.9,30.2,65.4c1.2,18.6-6.1,32.4-23.1,37.4c-17,5.1-41,0.6-66.9-10.6c-25.8-11.2-53.7-29.1-76.5-51.6l-82.4-81.4
	c14.7-4.8,29.5-9.6,44.4-14.2c4-1.2,8.7-1.5,13.8-0.9c5.1,0.6,10.5,2,15.8,4.2c10.8,4.4,21.5,11.6,29.8,20.7
	c-8.3-9.1-12.6-18.3-12.7-25.8c0-3.8,1-7.1,3-9.8c2-2.7,5.2-4.7,9.3-5.9C502.2,153.5,517.5,149.3,532.8,145.2L532.8,145.2
	L532.8,145.2z"/>
<linearGradient id="SVGID_00000083079361640683560700000003443939446527323045_" gradientUnits="userSpaceOnUse" x1="1291.1499" y1="891.7932" x2="1424.4567" y2="891.7932" gradientTransform="matrix(1 0 0 -1 0 1080)">
	<stop  offset="0" style="stop-color:#7BD989"/>
	<stop  offset="1" style="stop-color:#2BBEC8"/>
</linearGradient>
<path style="fill:url(#SVGID_00000083079361640683560700000003443939446527323045_);" d="M1417.2,79.3l6.8,106.6
	c1.9,29.4-2.5,56.5-10.2,76.5c-7.7,20-18.5,33-31.2,34.5c-6.2,0.9-12.6-1.3-18.8-5.8c-6.3-4.5-12.3-11.3-18.4-20
	c-3-4.4-5.9-9.1-8.8-14.3c-2.8-5.2-5.6-10.8-8.2-16.8c-5.2-11.9-9.9-25.3-13.2-39.7l-24.2-104.1c13.3-3,26.6-5.7,39.6-7.7
	c3.5-0.6,7.1,0,10.4,1.7c3.3,1.7,6.4,4.4,9.2,7.9c5.5,7,9.5,17.1,11,28.7c-1.5-11.6-0.1-22.4,3.4-30.5c1.8-4.1,4.1-7.4,6.8-9.9
	c2.7-2.4,5.8-3.9,9.1-4.2c6.3-0.7,12.3-1.1,18.4-1.6c3.1-0.3,6.1-0.5,9.1-0.7L1417.2,79.3L1417.2,79.3L1417.2,79.3z"/>
<linearGradient id="SVGID_00000141444773029759920750000012622049991140297399_" gradientUnits="userSpaceOnUse" x1="1610.83" y1="370.1914" x2="1835.397" y2="370.1914" gradientTransform="matrix(1 0 0 -1 0 1080)">
	<stop  offset="0" style="stop-color:#7BD989"/>
	<stop  offset="1" style="stop-color:#2BBEC8"/>
</linearGradient>
<path style="fill:url(#SVGID_00000141444773029759920750000012622049991140297399_);" d="M1635.4,633.2l105.8,14.7
	c14.6,2,28.3,5.9,40.4,11.2c12.1,5.3,22.8,12.3,31.3,20.3c17,16,25.6,36.7,21.5,56.9c-4.2,20.3-20.2,35.9-42.2,43.8
	c-11,4-23.5,6.2-36.8,6.3c-13.3,0.1-27.3-1.7-41.5-5.6l-103.1-28.2c3.2-11.9,6.3-23.8,9-35.8c0.7-3.2,2.6-6.1,5.3-8.4
	c2.7-2.4,6.3-4.3,10.5-5.6c8.4-2.7,19.3-3.3,30.8-1c-11.4-2.3-21.2-7.2-27.9-13c-3.3-2.9-5.8-6.1-7.4-9.3c-1.6-3.2-2.2-6.6-1.6-9.9
	C1631.8,657.5,1633.6,645.3,1635.4,633.2L1635.4,633.2L1635.4,633.2z"/>
<linearGradient id="SVGID_00000176727367589321469940000001725824124721485204_" gradientUnits="userSpaceOnUse" x1="546.5381" y1="247.2666" x2="777.72" y2="247.2666" gradientTransform="matrix(1 0 0 -1 0 1080)">
	<stop  offset="0" style="stop-color:#7BD989"/>
	<stop  offset="1" style="stop-color:#2BBEC8"/>
</linearGradient>
<path style="fill:url(#SVGID_00000176727367589321469940000001725824124721485204_);" d="M777.7,848.9L692.2,913
	c-11.8,8.9-24.4,15.5-37.2,19.5c-6.4,2-12.9,3.5-19.4,4.2c-6.5,0.8-13,0.9-19.2,0.3c-12.4-1.1-24.6-4.8-34.8-11
	c-10.5-6.2-19.1-14.8-25.5-25.4c-3.1-5.3-5.4-10.9-7-16.6c-0.8-2.8-1.4-5.7-1.8-8.6c-0.4-2.9-0.6-5.8-0.7-8.8
	c-0.1-5.9,0.4-11.8,1.7-17.6c1.3-5.8,3.2-11.6,5.7-17.2c10.1-22.5,29.9-42.5,56.3-55.8l95.4-48.1l5.1,10c1.7,3.3,3.4,6.7,5.2,10
	c3.5,6.5,6.9,13.2,10.4,19.5c1.9,3.5,2.7,7.3,2.5,11.4c-0.2,4-1.3,8.1-3.4,12.3c-4.1,8.3-11.5,16.5-21.6,22.4
	c10-5.9,20.8-8.5,30-8.1c4.6,0.2,8.8,1.2,12.3,2.9c3.5,1.7,6.5,4,8.5,7.2l2.8,4.4l1.4,2.2l1.4,2.1l5.7,8.4c1,1.4,1.9,2.8,2.9,4.2
	l2.9,4L777.7,848.9L777.7,848.9L777.7,848.9z"/>
<linearGradient id="SVGID_00000181064040522753456300000009123487913260261279_" gradientUnits="userSpaceOnUse" x1="84.25" y1="635.5465" x2="368.3036" y2="635.5465" gradientTransform="matrix(0.7689 -0.6394 -0.6394 -0.7689 458.6511 1077.796)">
	<stop  offset="0" style="stop-color:#7BD989"/>
	<stop  offset="1" style="stop-color:#2BBEC8"/>
</linearGradient>
<path style="fill:url(#SVGID_00000181064040522753456300000009123487913260261279_);" d="M229,279.6l89.1,59
	c24.6,16.3,39,43,42.6,72.7c3.7,29.8-3.2,62.6-21.7,92c-18.4,29.4-44.9,50-73.3,59.7c-28.3,9.7-58.6,8.4-84.1-6.6l-92-54.3
	c13.5-22.8,27.1-45.5,40.9-68c3.8-6.1,8.3-11.3,13.4-15.5c5.1-4.1,10.7-7.3,16.4-9.2c11.4-3.9,23.4-3.2,33.3,3
	c-9.9-6.2-15.8-16.7-17.2-28.7c-0.7-6-0.4-12.4,1.1-18.8c1.5-6.4,4.2-12.8,8.1-18.8C199.9,323.9,214.4,301.7,229,279.6L229,279.6
	L229,279.6z"/>
<linearGradient id="SVGID_00000049904352300368451460000001433068503192994698_" gradientUnits="userSpaceOnUse" x1="1751.3" y1="129.9832" x2="1978.0846" y2="129.9832" gradientTransform="matrix(1 0 0 -1 0 1080)">
	<stop  offset="0" style="stop-color:#7BD989"/>
	<stop  offset="1" style="stop-color:#2BBEC8"/>
</linearGradient>
<path style="fill:url(#SVGID_00000049904352300368451460000001433068503192994698_);" d="M1885.2,832.7l65.6,84.4
	c18.1,23.3,27.1,50.1,27.3,74.5c0.2,24.4-8.3,46.5-25.8,60.7c-17.5,14.2-40.8,18-64.7,12.7c-23.8-5.3-48.2-19.6-67.3-42.2l-69-81.6
	c13.3-11.2,26.6-22.3,40-33.4c7.2-6,16.8-7.7,26.4-5.7c9.6,2,19.2,7.9,26.5,16.9c-7.3-9.1-11.1-19.6-11.1-29.5
	c0-9.8,3.7-18.8,11-24.7C1857.8,854.1,1871.5,843.4,1885.2,832.7L1885.2,832.7L1885.2,832.7z"/>
<linearGradient id="SVGID_00000020400296819838305500000005315734067568868779_" gradientUnits="userSpaceOnUse" x1="1645.5101" y1="929.475" x2="1861.8921" y2="929.475" gradientTransform="matrix(1 0 0 -1 0 1080)">
	<stop  offset="0" style="stop-color:#7BD989"/>
	<stop  offset="1" style="stop-color:#2BBEC8"/>
</linearGradient>
<path style="fill:url(#SVGID_00000020400296819838305500000005315734067568868779_);" d="M1814.8,31.8l38.7,99.6
	c21.4,55,0.8,114.3-45.9,132.5s-101.9-11.7-123.3-66.7l-38.7-99.6l51.2-19.9c18.5-7.2,40.3,4.6,48.8,26.4
	c-8.4-21.8-0.3-45.2,18.2-52.4L1814.8,31.8L1814.8,31.8L1814.8,31.8z"/>
<linearGradient id="SVGID_00000109733868638536289720000016455324149037502616_" gradientUnits="userSpaceOnUse" x1="773.8" y1="924.5764" x2="1010.9279" y2="924.5764" gradientTransform="matrix(1 0 0 -1 0 1080)">
	<stop  offset="0" style="stop-color:#7BD989"/>
	<stop  offset="1" style="stop-color:#2BBEC8"/>
</linearGradient>
<path style="fill:url(#SVGID_00000109733868638536289720000016455324149037502616_);" d="M939.7,32.8l54.7,91.8
	c15.1,25.4,19.6,53.8,14.7,79.2c-4.9,25.5-19,48-41.4,61.6c-22.4,13.6-48.9,15.9-73.8,8.5c-24.8-7.4-48-24.4-63.6-49.5l-56.4-90.8
	c16.6-10.3,33.3-20.6,49.9-30.8c18.1-11.1,42.6-3.9,54.7,16.1c-12.1-19.9-7.3-45,10.9-56C906.1,52.8,922.9,42.8,939.7,32.8z"/>
</svg>
